<svg width="94" height="83" viewBox="0 0 94 83" fill="none" xmlns="http://www.w3.org/2000/svg">
<g clip-path="url(#clip0_424_1277)">
<path d="M7.57889 83L87.0966 83C88.7161 82.9983 90.2689 82.3435 91.414 81.1795C92.5592 80.0154 93.2034 78.4372 93.2051 76.7909L93.2051 45.4419L91.6281 45.4419L91.6281 76.7909C91.6266 78.0119 91.1488 79.1823 90.2995 80.0456C89.4502 80.909 88.2987 81.3946 87.0975 81.3961L7.57889 81.3961C6.37776 81.3946 5.22625 80.909 4.37693 80.0456C3.5276 79.1823 3.0498 78.0118 3.04833 76.7909L3.04833 45.4419L1.47135 45.4419L1.47135 76.7909C1.47307 78.437 2.11706 80.0151 3.26205 81.1792C4.40704 82.3432 5.95952 82.998 7.57889 83Z" fill="#3B89FF" stroke="#3B89FF" stroke-width="2"/>
<path d="M30.6434 9.90909L30.8289 9.90909L30.8289 2.16777C30.8289 1.46718 31.6517 0.896722 32.6629 0.896722L61.4742 0.896724C62.4863 0.896724 63.3091 1.46247 63.3091 2.16777L63.3091 9.9091L63.4946 9.9091L63.4946 2.16777C63.4946 1.36252 62.5883 0.707199 61.4733 0.707199L32.6638 0.707196C31.5506 0.707196 30.6434 1.36724 30.6434 2.16777L30.6434 9.90909Z" fill="black"/>
<path d="M29.9477 11.1163L29.4477 11.1163L29.4477 10.6163L29.4477 2.16777C29.4478 0.576111 30.9754 -0.500934 32.6639 -0.500934L61.4734 -0.500931C63.1617 -0.500931 64.6904 0.576988 64.6904 2.16777L64.6904 10.6163L64.6904 11.1163L64.1904 11.1163L62.6135 11.1163L62.1135 11.1163L62.1135 10.6163L62.1135 2.28035C62.0986 2.26868 62.079 2.2549 62.054 2.24003C61.9384 2.17152 61.7424 2.10202 61.4743 2.10202L32.6629 2.10202C32.396 2.10202 32.2003 2.17167 32.0846 2.24045C32.0594 2.25543 32.0397 2.26934 32.0247 2.28112L32.0247 10.6163L32.0247 11.1163L31.5247 11.1163L29.9477 11.1163ZM62.153 2.31833C62.1531 2.31833 62.1521 2.31679 62.1495 2.31368C62.1516 2.31676 62.1529 2.31832 62.153 2.31833ZM31.9848 2.31959C31.985 2.31958 31.9863 2.31794 31.9884 2.31469C31.9857 2.31798 31.9847 2.31961 31.9848 2.31959Z" fill="#F55E31" stroke="#F55E31"/>
<path d="M54.4947 50.0669L93.1455 39.4119L93.1455 20.0605C93.144 18.5652 92.5591 17.1315 91.5189 16.0741C90.4788 15.0166 89.0684 14.4217 87.5973 14.42L6.39967 14.42C4.92849 14.4217 3.51804 15.0166 2.47776 16.074C1.43747 17.1314 0.852279 18.5651 0.850563 20.0605L0.850561 39.4119L40.1878 49.8717L40.5403 48.5035L2.24479 38.32L2.2448 20.0605C2.24602 18.94 2.68446 17.8658 3.46391 17.0735C4.24335 16.2813 5.30016 15.8356 6.40246 15.8344L87.5973 15.8344C88.6995 15.8356 89.7563 16.2813 90.5356 17.0736C91.3148 17.8659 91.7531 18.9401 91.7541 20.0605L91.7541 38.3257L54.1311 48.6978L54.4947 50.0669Z" fill="#3B89FF"/>
<path d="M39.7768 49.4416L41.1265 49.7952L41.0799 49.979L39.7301 49.6255L39.7768 49.4416Z" fill="#3B89FF"/>
<path d="M54.5439 50.2498L93.332 39.5524L93.332 20.0605C93.3306 18.5149 92.7259 17.033 91.6508 15.94C90.5757 14.847 89.118 14.2322 87.5974 14.2305L6.39973 14.2305C4.8791 14.2322 3.42123 14.847 2.34599 15.94C1.27073 17.0329 0.665901 18.5148 0.664184 20.0605L0.664182 39.5581L40.1378 50.0555L40.4903 48.6864L2.05562 38.4662L2.05563 20.0605C2.05685 18.8898 2.51493 17.7674 3.32935 16.9395C4.14376 16.1117 5.24799 15.6461 6.39973 15.6448L87.5974 15.6448C88.7491 15.6461 89.8532 16.1117 90.6675 16.9396C91.4817 17.7675 91.9396 18.8899 91.9406 20.0605L91.9406 38.47L54.1794 48.8844L54.5439 50.2498Z" fill="#3B89FF" stroke="#3B89FF" stroke-width="2"/>
<path d="M42.4846 56.489L52.1904 56.489C52.7843 56.4885 53.3536 56.2486 53.7736 55.8219C54.1936 55.3951 54.4299 54.8165 54.4307 54.2128L54.4307 44.3462C54.4302 43.7424 54.194 43.1635 53.774 42.7366C53.354 42.3096 52.7844 42.0696 52.1904 42.0691L42.4846 42.0691C41.8906 42.0696 41.3211 42.3096 40.901 42.7366C40.481 43.1635 40.2448 43.7424 40.2444 44.3462L40.2444 54.2128C40.2451 54.8165 40.4814 55.3951 40.9014 55.8219C41.3214 56.2486 41.8908 56.4885 42.4846 56.489ZM52.1904 42.2595C52.7349 42.2598 53.257 42.4797 53.6421 42.8709C54.0271 43.2622 54.2437 43.7928 54.2442 44.3462L54.2442 54.2128C54.2435 54.7662 54.0268 55.2967 53.6418 55.6879C53.2568 56.079 52.7348 56.299 52.1904 56.2995L42.4846 56.2995C41.9402 56.299 41.4182 56.079 41.0332 55.6879C40.6482 55.2967 40.4315 54.7662 40.4308 54.2128L40.4308 44.3462C40.4313 43.7928 40.6479 43.2622 41.0329 42.8709C41.418 42.4797 41.9401 42.2598 42.4846 42.2595L52.1904 42.2595Z" fill="black"/>
<path d="M42.4845 57.1962L52.1903 57.1962C52.9679 57.1945 53.7132 56.8795 54.2628 56.3203C54.8124 55.7611 55.1216 55.0033 55.1226 54.2128L55.1226 44.3462C55.1216 43.555 54.8119 42.7965 54.2616 42.2371C53.7112 41.6776 52.965 41.3629 52.1866 41.3619L42.4845 41.3619C41.7061 41.3629 40.9599 41.6776 40.4095 42.2371C39.8591 42.7965 39.5495 43.555 39.5485 44.3462L39.5485 54.2128C39.5495 55.0039 39.8592 55.7623 40.4096 56.3216C40.96 56.8809 41.7062 57.1955 42.4845 57.1962ZM52.1903 42.9667C52.5498 42.9677 52.8942 43.1134 53.1482 43.372C53.4022 43.6305 53.5451 43.9808 53.5456 44.3462L53.5456 54.2128C53.5451 54.5783 53.4022 54.9287 53.1483 55.1874C52.8943 55.4461 52.5499 55.592 52.1903 55.5933L42.4845 55.5933C42.1246 55.5928 41.7796 55.4473 41.525 55.1887C41.2705 54.9302 41.1272 54.5796 41.1264 54.2138L41.1264 44.3462C41.1269 43.9803 41.2702 43.6296 41.5248 43.371C41.7794 43.1124 42.1245 42.967 42.4845 42.9667L52.1903 42.9667Z" fill="#F55E31" stroke="#F55E31"/>
</g>
<defs>
<clipPath id="clip0_424_1277">
<rect width="92.6678" height="83" fill="white" transform="matrix(-1 -8.77361e-08 -8.71105e-08 1 93.332 1.52588e-05)"/>
</clipPath>
</defs>
</svg>
