<svg width="31" height="31" viewBox="0 0 31 31" fill="none" xmlns="http://www.w3.org/2000/svg">
<circle cx="15.5" cy="15.5" r="14.5" stroke="#686868" stroke-width="1.5"/>
<path d="M15.4143 23.04V7.06H16.8083V23.04H15.4143ZM15.9413 21.17C15.012 21.17 14.1223 21.0397 13.2723 20.779C12.4223 20.507 11.748 20.1613 11.2493 19.742L12.0143 18.025C12.4903 18.399 13.0796 18.7107 13.7823 18.96C14.485 19.2093 15.2046 19.334 15.9413 19.334C16.5646 19.334 17.069 19.266 17.4543 19.13C17.8396 18.994 18.123 18.8127 18.3043 18.586C18.4856 18.348 18.5763 18.0817 18.5763 17.787C18.5763 17.4243 18.446 17.1353 18.1853 16.92C17.9246 16.6933 17.5846 16.5177 17.1653 16.393C16.7573 16.257 16.2983 16.1323 15.7883 16.019C15.2896 15.9057 14.7853 15.7753 14.2753 15.628C13.7766 15.4693 13.3176 15.271 12.8983 15.033C12.4903 14.7837 12.156 14.455 11.8953 14.047C11.6346 13.639 11.5043 13.1177 11.5043 12.483C11.5043 11.837 11.6743 11.2477 12.0143 10.715C12.3656 10.171 12.8926 9.74033 13.5953 9.423C14.3093 9.09433 15.2103 8.93 16.2983 8.93C17.0123 8.93 17.7206 9.02067 18.4233 9.202C19.126 9.38333 19.738 9.644 20.2593 9.984L19.5623 11.701C19.0296 11.3837 18.48 11.1513 17.9133 11.004C17.3466 10.8453 16.8026 10.766 16.2813 10.766C15.6693 10.766 15.1706 10.8397 14.7853 10.987C14.4113 11.1343 14.1336 11.327 13.9523 11.565C13.7823 11.803 13.6973 12.075 13.6973 12.381C13.6973 12.7437 13.822 13.0383 14.0713 13.265C14.332 13.4803 14.6663 13.6503 15.0743 13.775C15.4936 13.8997 15.9583 14.0243 16.4683 14.149C16.9783 14.2623 17.4826 14.3927 17.9813 14.54C18.4913 14.6873 18.9503 14.88 19.3583 15.118C19.7776 15.356 20.112 15.679 20.3613 16.087C20.622 16.495 20.7523 17.0107 20.7523 17.634C20.7523 18.2687 20.5766 18.858 20.2253 19.402C19.8853 19.9347 19.3583 20.3653 18.6443 20.694C17.9303 21.0113 17.0293 21.17 15.9413 21.17Z" fill="#686868"/>
</svg>
