<svg width="88" height="86" viewBox="0 0 88 86" fill="none" xmlns="http://www.w3.org/2000/svg">
<g clip-path="url(#clip0_254_36)">
<path d="M43.9993 30.2704C41.398 30.2711 38.8548 29.5015 36.6916 28.059C34.5284 26.6165 32.8423 24.5659 31.8465 22.1666C30.8507 19.7672 30.5899 17.1269 31.0973 14.5796C31.6046 12.0323 32.8572 9.69244 34.6966 7.85596C36.536 6.01949 38.8797 4.7689 41.431 4.26238C43.9824 3.75586 46.627 4.01618 49.0302 5.01039C51.4334 6.00459 53.4873 7.68803 54.9321 9.84778C56.3769 12.0075 57.1477 14.5466 57.147 17.1437C57.1434 20.624 55.757 23.9607 53.2921 26.4217C50.8272 28.8826 47.4852 30.2668 43.9993 30.2704ZM43.9993 7.43208C42.0747 7.4314 40.1932 8.00076 38.5928 9.06808C36.9924 10.1354 35.7451 11.6527 35.0087 13.428C34.2724 15.2034 34.0801 17.1569 34.4561 19.0413C34.8322 20.9258 35.7597 22.6566 37.1213 24.0145C38.4829 25.3725 40.2174 26.2968 42.1053 26.6702C43.9932 27.0437 45.9496 26.8496 47.727 26.1125C49.5044 25.3755 51.0229 24.1286 52.0902 22.5297C53.1575 20.9307 53.7258 19.0516 53.7231 17.1301C53.7204 14.5558 52.6952 12.0877 50.8723 10.2671C49.0494 8.44648 46.5777 7.42202 43.9993 7.4184V7.43208Z" fill="#3B89FF"/>
<path d="M73.4793 50.1018H14.5166V48.7345C14.5211 44.5252 16.1977 40.4896 19.1785 37.5129C22.1594 34.5362 26.2011 32.8614 30.4171 32.856H57.5788C61.7948 32.8614 65.8365 34.5362 68.8173 37.5129C71.7982 40.4896 73.4748 44.5252 73.4793 48.7345V50.1018ZM17.3276 47.3671H70.6717C70.3295 44.1371 68.803 41.1475 66.386 38.9735C63.9689 36.7995 60.832 35.5946 57.5788 35.5907H30.4171C27.1645 35.5955 24.0284 36.8007 21.6121 38.9747C19.1957 41.1486 17.6698 44.1377 17.3276 47.3671Z" fill="#3B89FF"/>
<path d="M78.8817 71.6632H7.95255L0.800058 50.8999C0.660446 50.4953 0.619668 50.0632 0.681114 49.6397C0.742559 49.2161 0.904453 48.8133 1.15332 48.4649C1.40218 48.1164 1.73082 47.8324 2.11187 47.6364C2.49291 47.4403 2.91535 47.338 3.34401 47.338H84.6509C85.091 47.3384 85.5242 47.4464 85.9127 47.6526C86.3013 47.8588 86.6334 48.1568 86.8799 48.5207C87.1265 48.8846 87.2801 49.3032 87.3272 49.74C87.3744 50.1768 87.3136 50.6184 87.1504 51.0264L78.8817 71.6632ZM9.90759 68.9285H77.0157L84.5688 50.0727H3.40906L9.90759 68.9285Z" fill="#3B89FF"/>
<path d="M29.1952 86C28.8879 85.9992 28.5899 85.8953 28.3489 85.705C28.108 85.5146 27.9382 85.2489 27.8667 84.9506L22.5665 62.8814C22.4298 62.3157 22.4234 61.7265 22.5478 61.158C22.6722 60.5895 22.9242 60.0566 23.2849 59.5994C23.6455 59.1423 24.1053 58.7728 24.6297 58.5188C25.1541 58.2649 25.7294 58.133 26.3123 58.1332H61.7015C62.2835 58.1308 62.8586 58.2601 63.3833 58.5113C63.9081 58.7626 64.3691 59.1293 64.7315 59.584C65.094 60.0386 65.3485 60.5694 65.4761 61.1363C65.6036 61.7033 65.6008 62.2917 65.4678 62.8575L60.3012 84.9437C60.2163 85.2945 59.996 85.5976 59.6883 85.7869C59.3805 85.9762 59.0103 86.0364 58.6583 85.9543C58.3063 85.8722 58.0011 85.6545 57.8092 85.3486C57.6173 85.0428 57.5543 84.6736 57.634 84.3216L62.8006 62.2353C62.8411 62.0719 62.843 61.9012 62.8061 61.7369C62.7693 61.5726 62.6947 61.4191 62.5883 61.2884C62.4841 61.1569 62.3514 61.0508 62.2002 60.9779C62.049 60.9051 61.8831 60.8675 61.7152 60.868H26.2952C26.1273 60.8681 25.9616 60.9061 25.8105 60.9793C25.6594 61.0524 25.5268 61.1587 25.4228 61.2903C25.3187 61.4218 25.2458 61.5751 25.2095 61.7388C25.1732 61.9025 25.1745 62.0722 25.2132 62.2353L30.5305 84.3045C30.5726 84.4803 30.5794 84.6627 30.5504 84.8411C30.5215 85.0195 30.4574 85.1904 30.3619 85.344C30.2664 85.4975 30.1413 85.6306 29.994 85.7356C29.8466 85.8406 29.6798 85.9153 29.5033 85.9556C29.4025 85.9812 29.2992 85.9961 29.1952 86Z" fill="#F55E31"/>
<path d="M81.3334 49.3924C80.5459 38.8569 77.146 32.4918 70.9385 29.9349L71.9828 27.4053C79.2414 30.3964 83.1926 37.5237 84.0656 49.1907L81.3334 49.3924Z" fill="#3B89FF"/>
<path d="M69.7543 32.2526C72.5245 32.2526 74.7703 30.0104 74.7703 27.2446C74.7703 24.4788 72.5245 22.2367 69.7543 22.2367C66.984 22.2367 64.7383 24.4788 64.7383 27.2446C64.7383 30.0104 66.984 32.2526 69.7543 32.2526Z" fill="#F55E31"/>
</g>
<defs>
<clipPath id="clip0_254_36">
<rect width="86.6893" height="86" fill="white" transform="translate(0.65332)"/>
</clipPath>
</defs>
</svg>
