<svg width="62" height="43" viewBox="0 0 62 43" fill="none" xmlns="http://www.w3.org/2000/svg">
<g clip-path="url(#clip0_522_2380)">
<path d="M21.5484 15.5663H7.48336C6.24236 15.5663 5.23633 16.5154 5.23633 17.6862V24.3881C5.23633 25.5589 6.24236 26.508 7.48336 26.508H21.5484C22.7894 26.508 23.7954 25.5589 23.7954 24.3881V17.6862C23.7954 16.5154 22.7894 15.5663 21.5484 15.5663Z" fill="#DFE3E8"/>
<path d="M26.5343 42.7096C26.4815 42.7141 26.4284 42.7141 26.3756 42.7096C26.2703 42.6913 26.1699 42.6535 26.0802 42.5983C25.9905 42.5431 25.9133 42.4717 25.8531 42.3882C25.7928 42.3046 25.7508 42.2107 25.7293 42.1117C25.7079 42.0127 25.7074 41.9107 25.728 41.8116L34.4701 0.629239C34.5095 0.431107 34.6303 0.255698 34.8061 0.141254C34.982 0.0268093 35.1988 -0.0173863 35.4091 0.0183157L49.4903 2.46201C49.5974 2.48056 49.6994 2.51923 49.7904 2.57572C49.8813 2.6322 49.9593 2.70535 50.0197 2.79083C50.0801 2.87631 50.1217 2.97237 50.142 3.07331C50.1623 3.17424 50.1609 3.27799 50.1378 3.37839L47.104 16.7332C47.0596 16.9286 46.9357 17.0999 46.7589 17.2101C46.5821 17.3203 46.3666 17.3608 46.1586 17.3227L33.1038 14.9462L27.3437 42.0957C27.3065 42.2713 27.2051 42.4291 27.0571 42.5413C26.9092 42.6535 26.7241 42.7131 26.5343 42.7096ZM33.4081 13.4495L45.6923 15.6732L48.3862 3.81826L35.9109 1.65255L33.4081 13.4495Z" fill="#686868"/>
<path d="M57.2485 22.5492C57.1968 22.5537 57.1447 22.5537 57.093 22.5492L40.0816 19.3602C39.8725 19.3237 39.6872 19.2108 39.5659 19.0461C39.4446 18.8813 39.3972 18.678 39.4341 18.4804L39.9974 15.4472C40.0348 15.2475 40.1547 15.07 40.3308 14.9537C40.5069 14.8374 40.7247 14.7919 40.9364 14.8271C41.1481 14.8624 41.3363 14.9755 41.4595 15.1416C41.5828 15.3077 41.631 15.5133 41.5937 15.713L41.1663 18.01L56.2415 20.8356L55.0953 14.653C55.0594 14.4559 55.1058 14.2534 55.2248 14.0879L59.0746 8.81868L48.869 6.98591C48.7644 6.96706 48.6648 6.92897 48.5758 6.87379C48.4868 6.81861 48.4102 6.74741 48.3504 6.6643C48.2906 6.5812 48.2487 6.48778 48.2271 6.3894C48.2055 6.29102 48.2047 6.18959 48.2247 6.09091C48.2447 5.99223 48.2851 5.89823 48.3436 5.81427C48.4021 5.73032 48.4775 5.65807 48.5656 5.60162C48.6537 5.54517 48.7527 5.50565 48.857 5.4853C48.9613 5.46496 49.0688 5.46419 49.1734 5.48305L60.5963 7.54185C60.7288 7.56504 60.853 7.61919 60.9576 7.69934C61.0622 7.77949 61.1438 7.88307 61.195 8.00064C61.2462 8.11822 61.2654 8.24604 61.2507 8.3724C61.2361 8.49876 61.1881 8.61963 61.1111 8.72399L56.7401 14.6836L58.0352 21.6542C58.0556 21.7641 58.0501 21.8769 58.0193 21.9847C57.9885 22.0924 57.933 22.1924 57.8567 22.2778C57.7805 22.3631 57.6854 22.4316 57.578 22.4785C57.4707 22.5254 57.3538 22.5495 57.2355 22.5492H57.2485Z" fill="#686868"/>
<path d="M23.9176 11.9008H2.94963C2.1676 11.9016 1.41784 12.195 0.864863 12.7167C0.311884 13.2384 0.000857019 13.9458 0 14.6835V26.0834C0.000858103 26.8209 0.311989 27.5279 0.865061 28.0491C1.41813 28.5703 2.1679 28.8631 2.94963 28.8631H15.9591L13.8448 27.4213C13.7942 27.3858 13.7387 27.357 13.6797 27.3358H2.94963C2.59726 27.3358 2.25928 27.2039 2.00981 26.9691C1.76034 26.7343 1.61976 26.4158 1.6189 26.0834V14.6835C1.6189 14.5187 1.65332 14.3554 1.7202 14.2031C1.78708 14.0508 1.8851 13.9124 2.00867 13.7958C2.13224 13.6792 2.27893 13.5868 2.44039 13.5237C2.60184 13.4606 2.77488 13.4281 2.94963 13.4281H23.9176C24.2706 13.4281 24.609 13.5604 24.8586 13.7958C25.1082 14.0313 25.2484 14.3506 25.2484 14.6835V26.0834C25.2475 26.4158 25.1069 26.7343 24.8575 26.9691C24.608 27.2039 24.27 27.3358 23.9176 27.3358H19.8736C19.7192 27.394 19.5879 27.4962 19.498 27.6282C19.408 27.7601 19.3639 27.9152 19.3718 28.0719L19.4074 28.8631H23.9176C24.6991 28.8623 25.4484 28.5692 26.0013 28.0482C26.5541 27.5272 26.8656 26.8206 26.8673 26.0834V14.6835C26.8664 13.9458 26.5554 13.2384 26.0024 12.7167C25.4494 12.195 24.6997 11.9016 23.9176 11.9008Z" fill="#686868"/>
<path d="M21.1973 32.7883C21.2022 32.9317 21.1649 33.0735 21.0894 33.1981C21.014 33.3226 20.9034 33.425 20.77 33.4939C20.6355 33.5603 20.4842 33.5903 20.3327 33.5806C20.1813 33.5709 20.0357 33.5219 19.912 33.4389L13.1903 28.857L12.8956 28.6554C12.7216 28.5361 12.6047 28.3566 12.5708 28.1562C12.5368 27.9558 12.5884 27.7508 12.7143 27.5862C12.799 27.4715 12.9171 27.3824 13.0543 27.3297H13.6759C13.7349 27.3509 13.7905 27.3797 13.8411 27.4152L15.9553 28.857L19.5169 31.2762L19.4133 28.857L19.3777 28.0658C19.3699 27.9091 19.414 27.754 19.5039 27.6221C19.5939 27.4901 19.7252 27.3879 19.8796 27.3297H20.4753C20.6189 27.3848 20.7426 27.4777 20.8316 27.5975C20.9206 27.7172 20.9712 27.8586 20.9772 28.0047L21.016 28.857L21.1973 32.7883Z" fill="#686868"/>
<path d="M13.2463 5.18369C11.2978 5.18611 9.42984 5.91742 8.05204 7.21727C6.67424 8.51712 5.89905 10.2794 5.89648 12.1177C5.89648 18.4224 12.4854 23.1143 12.7639 23.3067C12.9031 23.4052 13.0723 23.4588 13.2463 23.4594C13.419 23.4599 13.5872 23.4074 13.7255 23.3098C14.004 23.1173 20.5961 18.5049 20.5961 12.1177C20.5935 10.2794 19.8184 8.51712 18.4406 7.21727C17.0628 5.91742 15.1948 5.18611 13.2463 5.18369ZM13.2463 21.7153C11.7893 20.5484 7.51216 16.7301 7.51216 12.1177C7.51216 10.6837 8.11595 9.30852 9.19071 8.29457C10.2655 7.28062 11.7231 6.71099 13.2431 6.71099C14.763 6.71099 16.2207 7.28062 17.2954 8.29457C18.3702 9.30852 18.974 10.6837 18.974 12.1177C18.9772 16.7882 14.7098 20.5606 13.2495 21.7153H13.2463Z" fill="#686868"/>
<path d="M13.2465 6.711C11.7271 6.71262 10.2704 7.28277 9.19606 8.29636C8.12168 9.30996 7.51734 10.6842 7.51563 12.1177C7.51562 16.7301 11.7928 20.5484 13.2498 21.7153C14.71 20.5606 18.9774 16.7882 18.9774 12.1177C18.9757 10.6842 18.3714 9.30996 17.297 8.29636C16.2226 7.28277 14.7659 6.71262 13.2465 6.711ZM13.4343 15.9146C12.6499 15.9146 11.883 15.6951 11.2308 15.2839C10.5785 14.8728 10.0702 14.2884 9.76995 13.6046C9.46975 12.9209 9.39119 12.1685 9.54423 11.4426C9.69727 10.7168 10.075 10.05 10.6297 9.52673C11.1844 9.00342 11.8912 8.64702 12.6606 8.50264C13.4299 8.35826 14.2274 8.43236 14.9522 8.71557C15.6769 8.99879 16.2964 9.47841 16.7322 10.0938C17.168 10.7091 17.4006 11.4326 17.4006 12.1727C17.3998 13.1648 16.9816 14.1161 16.238 14.8177C15.4943 15.5193 14.486 15.9138 13.4343 15.9146Z" fill="white"/>
<path d="M13.4331 8.42464C12.6485 8.42464 11.8815 8.64417 11.2292 9.05547C10.5769 9.46677 10.0685 10.0514 9.7684 10.7353C9.46829 11.4192 9.38995 12.1717 9.54325 12.8977C9.69655 13.6236 10.0746 14.2904 10.6296 14.8135C11.1847 15.3367 11.8917 15.6929 12.6613 15.8369C13.4309 15.9809 14.2285 15.9064 14.9532 15.6227C15.6779 15.339 16.2971 14.859 16.7325 14.2432C17.168 13.6275 17.4 12.9037 17.3994 12.1635C17.3977 11.1718 16.9791 10.2213 16.2356 9.52043C15.4921 8.81952 14.4842 8.42544 13.4331 8.42464ZM13.4331 14.3781C12.9688 14.3781 12.515 14.2482 12.1289 14.0049C11.7429 13.7615 11.442 13.4156 11.2644 13.011C11.0867 12.6063 11.0402 12.161 11.1308 11.7315C11.2214 11.3019 11.4449 10.9072 11.7732 10.5975C12.1015 10.2878 12.5198 10.0769 12.9751 9.99145C13.4305 9.906 13.9025 9.94985 14.3314 10.1175C14.7603 10.2851 15.127 10.5689 15.3849 10.9331C15.6428 11.2973 15.7805 11.7255 15.7805 12.1635C15.7814 12.455 15.7213 12.7437 15.6037 13.0133C15.4862 13.2829 15.3135 13.5279 15.0955 13.7345C14.8774 13.941 14.6184 14.105 14.3332 14.217C14.0479 14.329 13.7421 14.3869 13.4331 14.3873V14.3781Z" fill="#686868"/>
<path d="M15.7807 12.1727C15.7814 12.6108 15.6443 13.0393 15.3867 13.4038C15.1292 13.7684 14.7628 14.0528 14.3339 14.2209C13.905 14.3889 13.4329 14.4332 12.9774 14.3481C12.5218 14.263 12.1032 14.0523 11.7746 13.7427C11.446 13.4331 11.2221 13.0385 11.1313 12.6089C11.0404 12.1792 11.0867 11.7338 11.2643 11.3289C11.4419 10.9241 11.7428 10.578 12.1288 10.3346C12.5149 10.0911 12.9689 9.96112 13.4333 9.96112C14.0551 9.96193 14.6512 10.1951 15.0911 10.6096C15.5311 11.024 15.779 11.5861 15.7807 12.1727Z" fill="white"/>
</g>
<defs>
<clipPath id="clip0_522_2380">
<rect width="61.2624" height="42.7097" fill="white"/>
</clipPath>
</defs>
</svg>
