<svg width="92" height="67" viewBox="0 0 92 67" fill="none" xmlns="http://www.w3.org/2000/svg">
<path d="M22 13H25.2679V21.2558C25.2679 22.2174 24.5348 23 23.634 23C22.7331 23 22 22.2174 22 21.2558V13Z" fill="#F55E31"/>
<path d="M25.2679 65L22 65L22 56.7442C22 55.7826 22.7332 55 23.634 55C24.5348 55 25.2679 55.7826 25.2679 56.7442L25.2679 65Z" fill="#F55E31"/>
<path d="M22 49.9153C22 50.8177 22.7316 51.5493 23.634 51.5493C24.5364 51.5493 25.2679 50.8177 25.2679 49.9153V45.6339C25.2679 44.7315 24.5364 44 23.634 44C22.7316 44 22 44.7315 22 45.6339V49.9153Z" fill="#F55E31"/>
<path d="M22 31.9153C22 32.8177 22.7316 33.5493 23.634 33.5493C24.5364 33.5493 25.2679 32.8177 25.2679 31.9153V27.634C25.2679 26.7316 24.5364 26 23.634 26C22.7316 26 22 26.7316 22 27.634V31.9153Z" fill="#F55E31"/>
<path d="M23.634 40.2679C24.5364 40.2679 25.2679 39.5364 25.2679 38.634C25.2679 37.7315 24.5364 37 23.634 37C22.7315 37 22 37.7315 22 38.634C22 39.5364 22.7315 40.2679 23.634 40.2679Z" fill="#F55E31"/>
<path d="M80.4228 38.8096C80.4228 33.4285 84.7856 29.0657 90.1667 29.0657V14.2044C90.1667 13.2053 89.3569 12.3931 88.3554 12.3931H3.81125C2.81219 12.3931 2 13.2029 2 14.2044V29.0657C7.38104 29.0657 11.7439 33.4285 11.7439 38.8096C11.7439 44.1906 7.38104 48.5534 2 48.5534V63.0506C2 64.0497 2.80979 64.8619 3.81125 64.8619H88.3554C89.3545 64.8619 90.1667 64.0521 90.1667 63.0506V48.5534C84.7856 48.5534 80.4228 44.1906 80.4228 38.8096Z" stroke="#24B0FF" stroke-width="3" stroke-miterlimit="10"/>
<path d="M69.3756 25.4336H37.8369C37.2864 25.4336 36.8402 25.8798 36.8402 26.4303C36.8402 26.9807 37.2864 27.4269 37.8369 27.4269H69.3756C69.9261 27.4269 70.3723 26.9807 70.3723 26.4303C70.3723 25.8798 69.9261 25.4336 69.3756 25.4336Z" fill="#24B0FF" stroke="#24B0FF" stroke-miterlimit="10"/>
<path d="M69.3756 37.511H37.8369C37.2864 37.511 36.8402 37.9573 36.8402 38.5077C36.8402 39.0582 37.2864 39.5044 37.8369 39.5044H69.3756C69.9261 39.5044 70.3723 39.0582 70.3723 38.5077C70.3723 37.9573 69.9261 37.511 69.3756 37.511Z" fill="#24B0FF" stroke="#24B0FF" stroke-miterlimit="10"/>
<path d="M69.3756 49.586H37.8369C37.2864 49.586 36.8402 50.0322 36.8402 50.5827C36.8402 51.1331 37.2864 51.5793 37.8369 51.5793H69.3756C69.9261 51.5793 70.3723 51.1331 70.3723 50.5827C70.3723 50.0322 69.9261 49.586 69.3756 49.586Z" fill="#24B0FF" stroke="#24B0FF" stroke-miterlimit="10"/>
<path d="M76.7557 23.6502C83.0104 23.6502 88.0808 18.5798 88.0808 12.3251C88.0808 6.07042 83.0104 1 76.7557 1C70.501 1 65.4306 6.07042 65.4306 12.3251C65.4306 18.5798 70.501 23.6502 76.7557 23.6502Z" fill="white" stroke="#24B0FF" stroke-width="2" stroke-miterlimit="10"/>
<path d="M77.3229 21.5077C81.7412 21.5077 85.3229 17.926 85.3229 13.5077C85.3229 9.08941 81.7412 5.50769 77.3229 5.50769C72.9047 5.50769 69.3229 9.08941 69.3229 13.5077C69.3229 17.926 72.9047 21.5077 77.3229 21.5077Z" fill="#DFE3E8"/>
<path d="M81.9394 7.2157C82.4952 7.77154 82.4952 8.66997 81.9394 9.22341L78.7146 12.4482L81.9394 15.673C82.4952 16.2288 82.4952 17.1273 81.9394 17.6807C81.3835 18.2365 80.4851 18.2365 79.9317 17.6807L76.7069 14.4559L73.4821 17.6807C72.9262 18.2365 72.0278 18.2365 71.4744 17.6807C70.9185 17.1249 70.9185 16.2264 71.4744 15.673L74.6992 12.4482L71.4744 9.22341C70.9185 8.66758 70.9185 7.76914 71.4744 7.2157C72.0302 6.65987 72.9286 6.65987 73.4821 7.2157L76.7069 10.4405L79.9317 7.2157C80.4875 6.65987 81.3859 6.65987 81.9394 7.2157Z" fill="#F55E31" stroke="#F55E31" stroke-width="0.1" stroke-miterlimit="10"/>
</svg>
