<svg width="20" height="20" viewBox="0 0 20 20" fill="none" xmlns="http://www.w3.org/2000/svg">
<path d="M0 6.70833C0 4.33546 0 3.14902 0.469111 2.24594C0.864425 1.48493 1.48493 0.864425 2.24594 0.469111C3.14902 0 4.33546 0 6.70833 0H13.2917C15.6645 0 16.851 0 17.7541 0.469111C18.5151 0.864425 19.1356 1.48493 19.5309 2.24594C20 3.14902 20 4.33546 20 6.70833V13.2917C20 15.6645 20 16.851 19.5309 17.7541C19.1356 18.5151 18.5151 19.1356 17.7541 19.5309C16.851 20 15.6645 20 13.2917 20H6.70833C4.33546 20 3.14902 20 2.24594 19.5309C1.48493 19.1356 0.864425 18.5151 0.469111 17.7541C0 16.851 0 15.6645 0 13.2917V6.70833Z" fill="url(#paint0_linear_378_294)"/>
<path d="M13.8895 12.7777L14.334 9.99997H11.6673V8.05552C11.6673 7.27774 11.9451 6.66663 13.1673 6.66663H14.4451V4.11108C13.7229 3.99997 12.9451 3.88885 12.2229 3.88885C9.9451 3.88885 8.33398 5.27774 8.33398 7.77774V9.99997H5.83398V12.7777H8.33398V20C9.4451 20 10.5562 20 11.6673 20V12.7777H13.8895Z" fill="white"/>
<defs>
<linearGradient id="paint0_linear_378_294" x1="10" y1="19.4156" x2="10" y2="0" gradientUnits="userSpaceOnUse">
<stop stop-color="#0062E0"/>
<stop offset="1" stop-color="#19AFFF"/>
</linearGradient>
</defs>
</svg>
