<svg width="111" height="108" viewBox="0 0 111 108" fill="none" xmlns="http://www.w3.org/2000/svg">
<path d="M90.0111 101C87.3279 101 84.6695 99.8606 82.7736 97.7884L45.7611 56.388C45.7611 56.388 40.6246 50.6399 39.9906 49.9301C34.249 52.5934 27.9584 52.5239 22.7162 49.7317C16.8482 46.606 13.1435 41.1873 11.0714 37.1902C7.40812 30.133 6.23328 24.1435 7.48064 18.8843C8.15404 16.0389 9.79093 13.9402 12.0888 12.9747C14.3991 12.005 17.3103 11.7616 20.9881 12.2321C26.2075 12.901 31.4373 14.8893 36.1118 17.9822C39.6901 20.351 44.3832 24.4033 46.4117 30.2577C47.8021 34.2671 47.6342 38.8083 45.9435 43.0569L94.8368 86.0611C97.1451 88.166 98.3012 91.1976 97.9324 94.1698C97.518 97.5041 95.7672 99.6663 92.7296 100.597C91.8407 100.869 90.9249 101 90.0132 101H90.0111ZM40.0071 49.6498C40.0838 49.6498 40.2081 49.791 41.0307 50.7115L82.9663 97.6187C85.4402 100.321 89.2424 101.395 92.6529 100.354C95.5848 99.4556 97.2756 97.365 97.6755 94.1391C98.036 91.2487 96.9088 88.299 94.6628 86.2493L61.1769 56.7991L45.6368 43.1285L45.67 43.0447C47.369 38.8308 47.5451 34.3182 46.1672 30.3396C44.1615 24.5506 39.5119 20.5392 35.9667 18.1929C31.3254 15.1225 26.135 13.1485 20.9529 12.4837C17.3206 12.0194 14.453 12.2546 12.1862 13.2078C9.96913 14.1406 8.38611 16.178 7.73135 18.9416C6.50057 24.1415 7.66712 30.0716 11.2994 37.0736C13.3569 41.0379 17.0285 46.4137 22.8384 49.5087C28.035 52.2764 34.278 52.3316 39.9678 49.6601C39.9823 49.6539 39.9947 49.6498 40.0071 49.6498Z" fill="black" stroke="#3B89FF" stroke-width="3"/>
<path d="M94.5553 11.4563L75.682 30.109C75.6284 30.1619 75.6284 30.2478 75.682 30.3007C75.7356 30.3537 75.8225 30.3537 75.876 30.3007L94.7493 11.6481C94.8029 11.5952 94.8029 11.5093 94.7493 11.4563C94.6957 11.4034 94.6089 11.4034 94.5553 11.4563Z" stroke="#F55E31" stroke-width="3"/>
<path d="M100.176 17.0158L81.3031 35.6684C81.2495 35.7214 81.2495 35.8072 81.3031 35.8602C81.3567 35.9132 81.4435 35.9132 81.4971 35.8602L100.37 17.2076C100.424 17.1546 100.424 17.0688 100.37 17.0158C100.317 16.9628 100.23 16.9628 100.176 17.0158Z" stroke="#F55E31" stroke-width="3"/>
<path d="M54.1846 49C54.1859 48.9988 54.1859 48.9968 54.1847 48.9955L54.0956 48.8998C54.0431 48.8434 54.0472 48.7548 54.1047 48.7035L61.9156 41.7304C62.5707 41.1456 62.7531 40.2061 62.4771 39.3725C62.0271 38.0133 61.7921 36.5785 61.7921 35.1496C61.7921 31.5239 63.2313 28.1121 65.8472 25.5428L87.7082 4.09422C87.7615 4.0419 87.847 4.0419 87.9003 4.09423C87.955 4.14798 87.955 4.23621 87.9003 4.28995L66.0429 25.7371C63.4804 28.2539 62.0701 31.5981 62.0701 35.1518C62.0701 37.0684 62.4994 38.9959 63.3113 40.7269C63.3364 40.78 63.3236 40.8432 63.2798 40.8823L54.1846 49Z" fill="#3B89FF" stroke="#3B89FF" stroke-width="3"/>
<path d="M18.5612 100C18.1658 100 17.7704 99.976 17.375 99.9281C13.7742 99.4924 11.4415 97.6537 10.4364 94.46C9.27885 90.7761 10.4695 86.6674 13.4694 83.9922L36.0926 64.2992C36.1487 64.2504 36.2336 64.2557 36.2831 64.3111V64.3111C36.3336 64.3676 36.3282 64.4544 36.271 64.5042L13.6527 84.1926C10.7324 86.796 9.57265 90.7936 10.6993 94.3772C11.6668 97.4598 13.9245 99.2353 17.4081 99.6558C20.5361 100.033 23.7215 98.8497 25.9284 96.4882L70.3067 47.3694C70.3367 47.3362 70.3805 47.3191 70.425 47.3232V47.3232C70.531 47.3341 81.0504 48.4016 85.0024 44.5021L106.71 23.0945C106.763 23.0421 106.848 23.0421 106.901 23.0945V23.0945C106.956 23.148 106.956 23.2354 106.901 23.2889L85.1968 44.6938C81.8675 47.9771 74.2923 47.8515 71.4681 47.6779C70.8345 47.639 70.2136 47.8779 69.7881 48.3489L26.1294 96.6734C24.139 98.8018 21.3777 99.9978 18.559 100H18.5612Z" stroke="#3B89FF" stroke-width="3"/>
<path d="M18.5612 100C18.1658 100 17.7704 99.976 17.375 99.9281C13.7742 99.4924 11.4415 97.6537 10.4364 94.46C9.27885 90.7761 10.4695 86.6674 13.4694 83.9922L36.0926 64.2992C36.1487 64.2504 36.2336 64.2557 36.2831 64.3111V64.3111C36.3336 64.3676 36.3282 64.4544 36.271 64.5042L13.6527 84.1926C10.7324 86.796 9.57265 90.7936 10.6993 94.3772C11.6668 97.4598 13.9245 99.2353 17.4081 99.6558C20.5361 100.033 23.7215 98.8497 25.9284 96.4882L70.3067 47.3694C70.3367 47.3362 70.3805 47.3191 70.425 47.3232V47.3232C70.531 47.3341 81.0504 48.4016 85.0024 44.5021L106.71 23.0945C106.763 23.0421 106.848 23.0421 106.901 23.0945V23.0945C106.956 23.148 106.956 23.2354 106.901 23.2889L85.1968 44.6938C81.8675 47.9771 74.2923 47.8515 71.4681 47.6779C70.8345 47.639 70.2136 47.8779 69.7881 48.3489L26.1294 96.6734C24.139 98.8018 21.3777 99.9978 18.559 100H18.5612Z" stroke="#3B89FF" stroke-width="3"/>
</svg>
