<svg width="152" height="60" viewBox="0 0 152 60" fill="none" xmlns="http://www.w3.org/2000/svg">
<g clip-path="url(#clip0_513_1369)">
<path fill-rule="evenodd" clip-rule="evenodd" d="M89.7732 19.8982C91.8099 17.6307 95.2105 16.3762 92.9215 14.4951C90.8222 12.7687 89.7995 10.4825 91.6518 8.59473C91.7166 9.04691 92.2631 9.69446 92.6054 9.99079C93.4778 10.7503 94.7957 11.8983 96.0774 13.0408C98.2183 14.9505 98.8493 17.2751 96.0214 19.3714C93.6292 21.1439 91.3248 23.0086 90.0124 24.8349L89.7743 19.8993L89.7732 19.8982Z" fill="#686868"/>
<path fill-rule="evenodd" clip-rule="evenodd" d="M89.9323 5.30127C89.7732 6.56014 92.1983 7.43158 89.895 9.82311C88.9205 10.8339 86.9387 12.095 85.8743 13.0762C82.7557 15.9506 85.8107 16.9154 89.0006 19.9621V24.4357C87.5445 21.9838 83.7466 19.7152 81.429 17.6826C79.4549 16.0384 79.659 13.6305 81.8701 11.8854C84.382 9.89226 87.4216 7.29439 89.9323 5.30127Z" fill="#686868"/>
<path fill-rule="evenodd" clip-rule="evenodd" d="M89.1959 12.2661L92.1094 15.1175L89.2234 17.7066L86.3099 14.8552L89.197 12.2661H89.1959Z" fill="#686868"/>
<path fill-rule="evenodd" clip-rule="evenodd" d="M98.7593 0.000120972C90.5336 1.95263 89.8522 4.69208 93.0158 8.57296C94.3546 10.2138 96.3396 11.3837 97.7991 12.9905C104.063 19.8841 90.1507 21.8169 89.8654 28.1661C91.1064 24.7034 99.0512 22.2921 101.593 18.7219C103.09 16.6168 102.842 13.9322 100.334 11.5308C95.3191 6.70606 89.1685 3.39589 98.7593 -0.000976562V0.000120972Z" fill="#686868"/>
<path fill-rule="evenodd" clip-rule="evenodd" d="M0.0439453 38.3709C0.0439453 34.7095 1.2982 31.8856 3.80123 29.9056C6.06394 28.1178 8.87093 27.2266 12.2112 27.2266C13.7431 27.2266 15.3123 27.4406 16.9177 27.8675V32.4794C15.7545 31.2413 14.1327 30.6168 12.051 30.6168C10.2953 30.6168 8.89178 31.1557 7.84053 32.2291C6.67735 33.4243 6.09466 35.2397 6.09466 37.674C6.09466 40.7328 6.89023 43.0278 8.48027 44.5709C9.40862 45.4786 10.6947 45.9264 12.344 45.9264C12.558 45.9264 12.9201 45.911 13.4271 45.8671V41.2498C13.4271 40.3904 13.3634 39.7659 13.235 39.3653C13.0639 38.8692 12.7017 38.3621 12.1465 37.8595H18.9028V48.1719C16.6664 48.8546 14.4355 49.197 12.2101 49.197C8.58672 49.197 5.66231 48.2367 3.43691 46.3094C1.1753 44.3602 0.0439453 41.7129 0.0439453 38.3709ZM27.0319 38.0504C28.4299 37.832 29.4328 37.1373 30.0309 35.9629C30.3294 35.3812 30.4841 34.7831 30.4951 34.1751C30.506 33.2092 30.2339 32.3981 29.6896 31.7407C29.1508 31.0998 28.3498 30.7804 27.2875 30.7804H27.0319V38.0504ZM27.0319 39.7472V45.6772C27.0319 47.1611 27.4905 48.1642 28.4035 48.6877V48.8107H19.8015V48.6877C20.6717 48.1917 21.104 47.2094 21.104 45.7365V31.2293C21.104 29.5259 20.6717 28.3845 19.8015 27.8028V27.738H30.235C32.727 27.738 34.5091 28.593 35.5823 30.2953C36.1266 31.1546 36.4042 32.1852 36.4097 33.3749C36.4316 35.5206 35.1829 37.2075 32.6689 38.4357L36.8047 45.3853C37.6102 46.7462 38.5067 47.8251 39.4943 48.6142L35.8709 48.8754C35.6942 48.8809 35.3903 48.8908 34.9535 48.9073C34.5585 48.9226 34.2809 48.9336 34.1053 48.9336C33.2834 48.9336 32.6327 48.8008 32.163 48.522C31.7197 48.2608 31.2829 47.7263 30.8506 46.9152L27.0352 39.7461L27.0319 39.7472ZM41.8514 44.0123L46.1738 31.5487C46.4459 30.7475 46.5853 30.123 46.5853 29.6642C46.5853 28.9541 46.1958 28.3351 45.4057 27.8017V27.7369H53.2187L59.4307 44.4864C59.8839 45.6981 60.2472 46.5146 60.5193 46.9306C60.877 47.4969 61.3895 48.0786 62.0567 48.6866V48.8096H52.3551V48.6866C53.2308 48.2004 53.6675 47.5869 53.6675 46.856C53.6675 46.4663 53.5819 46.0076 53.4118 45.4786L52.4188 42.4362H46.0465L45.1182 45.1262C44.8943 45.7771 44.7451 46.3752 44.6694 46.9141C44.7231 47.5496 45.1182 48.1368 45.8545 48.6856V48.8085H39.2957V48.6856C39.9892 48.0984 40.4863 47.4848 40.7848 46.8439C40.9878 46.406 41.3455 45.461 41.8525 44.0101L41.8514 44.0123ZM46.9804 39.4268H51.362L49.1213 33.0534L46.9815 39.4268H46.9804ZM64.4906 44.9298V32.9195C64.4906 31.2282 64.2667 30.0264 63.8124 29.3174C63.5721 28.9486 63.1782 28.4635 62.6328 27.8653V27.7369H69.3199V27.8017L79.1236 40.6812V31.9273C79.1236 31.0734 79.0489 30.326 78.8887 29.6796C78.7132 28.9486 78.3335 28.3241 77.7519 27.8006L77.6773 27.7358H83.8948V27.8006C82.9346 28.7027 82.454 29.9298 82.454 31.4828V49.4813H82.3212C81.1097 49.4813 79.5625 48.8886 77.6893 47.7033C76.7336 47.1051 75.9446 46.3851 75.3092 45.5411L67.9494 35.6831H67.821V44.9276C67.821 46.5662 68.3016 47.8152 69.2618 48.6856V48.8085H63.0552V48.6856C64.011 47.8854 64.4906 46.6354 64.4906 44.9276V44.9298ZM86.3879 44.8069V32.0019C86.3879 30.3578 86.2431 29.2746 85.9501 28.7565C85.7679 28.436 85.4804 28.1211 85.0854 27.8017V27.7369H93.6293V27.8017C92.9994 28.2769 92.6 28.8586 92.4397 29.5522C92.3542 29.9089 92.3168 30.641 92.3168 31.7407V44.9298C92.3168 46.4301 92.4771 47.4223 92.8074 47.914C92.9884 48.1917 93.2606 48.4748 93.6293 48.747V48.8118H85.0854V48.747C85.7043 48.3091 86.0993 47.7274 86.265 46.9964C86.3506 46.6222 86.3879 45.8912 86.3879 44.808V44.8069ZM99.004 31.3566C99.004 31.271 98.497 31.2282 97.4721 31.2282C96.3945 31.2282 95.092 31.6661 93.5656 32.5408L94.8462 27.6041L95.4552 27.7369H110.34L109.225 32.5408C108.803 31.6233 107.842 31.1634 106.338 31.1634C105.868 31.1634 105.409 31.2282 104.966 31.3555V44.7421C104.966 46.5783 105.445 47.8909 106.412 48.6866V48.8096H97.6916V48.6866C98.5673 48.1851 99.0051 47.1073 99.0051 45.4467V31.3555L99.004 31.3566Z" fill="#686868"/>
<path fill-rule="evenodd" clip-rule="evenodd" d="M124.142 45.4608H116.966L115.979 48.9828H109.544L117.203 27.6478H124.069L131.733 48.9828H125.141L124.141 45.4608H124.142ZM122.823 40.8457L120.569 33.1761L118.329 40.8457H122.824H122.823ZM132.651 41.9235L138.644 41.5305C138.773 42.5491 139.038 43.3239 139.437 43.8606C140.082 44.7255 141.012 45.1524 142.217 45.1524C143.114 45.1524 143.806 44.934 144.296 44.4917C144.779 44.0494 145.022 43.5379 145.022 42.9573C145.022 42.4064 144.794 41.9092 144.328 41.4724C143.863 41.0356 142.791 40.6229 141.101 40.2355C138.339 39.5846 136.369 38.7252 135.193 37.6475C134.007 36.5697 133.413 35.1978 133.413 33.5295C133.413 32.432 133.717 31.3937 134.324 30.4202C134.931 29.4467 135.843 28.6817 137.062 28.1198C138.282 27.5633 139.952 27.2856 142.073 27.2856C144.678 27.2856 146.667 27.7927 148.034 28.8057C149.401 29.8188 150.212 31.4332 150.474 33.6437L144.537 34.0058C144.38 33.0477 144.049 32.3464 143.541 31.9096C143.038 31.4771 142.34 31.2587 141.452 31.2587C140.717 31.2587 140.166 31.4179 139.796 31.7449C139.426 32.0676 139.241 32.4649 139.241 32.9325C139.241 33.2705 139.394 33.5734 139.697 33.8467C139.995 34.1299 140.697 34.3878 141.812 34.6314C144.565 35.2526 146.534 35.8826 147.726 36.5192C148.916 37.1547 149.786 37.9405 150.326 38.8844C150.867 39.8228 151.143 40.8764 151.143 42.0431C151.143 43.4095 150.777 44.6717 150.057 45.8241C149.336 46.9809 148.324 47.8556 147.025 48.4516C145.729 49.0476 144.091 49.345 142.117 49.345C138.653 49.345 136.252 48.6491 134.919 47.2487C133.581 45.8526 132.826 44.079 132.651 41.9235Z" fill="#686868"/>
<path fill-rule="evenodd" clip-rule="evenodd" d="M33.189 54.7087H38.0633V55.9906H36.4272V59.899H34.824V55.9906H33.189V54.7087ZM38.8106 59.899V54.7087H41.4837C41.9786 54.7087 42.3583 54.7504 42.6195 54.8371C42.8817 54.9217 43.0935 55.0786 43.2537 55.3091C43.414 55.5385 43.4941 55.8194 43.4941 56.1487C43.4941 56.4373 43.4326 56.6854 43.3097 56.8939C43.1868 57.1036 43.0178 57.2726 42.8038 57.4032C42.6656 57.4855 42.479 57.5546 42.2409 57.6073C42.4318 57.671 42.5701 57.7357 42.659 57.7994C42.7171 57.8422 42.8027 57.9322 42.9158 58.0716C43.0277 58.2121 43.1034 58.3185 43.1407 58.3942L43.9165 59.899H42.1048L41.2478 58.3119C41.1392 58.1078 41.0426 57.9739 40.957 57.9113C40.8418 57.8312 40.7101 57.7917 40.5642 57.7917H40.4226V59.8979H38.8117L38.8106 59.899ZM40.4215 56.8116H41.0986C41.171 56.8116 41.3126 56.7886 41.5221 56.7414C41.6286 56.7194 41.7153 56.6656 41.7833 56.5778C41.8491 56.4911 41.8832 56.3902 41.8832 56.2771C41.8832 56.1092 41.8305 55.9808 41.7241 55.8919C41.6176 55.8008 41.4179 55.7569 41.126 55.7569H40.4215V56.8116ZM47.6211 59.0429H45.7941L45.5428 59.899H43.9045L45.8544 54.7087H47.6025L49.5536 59.899H47.8757L47.6211 59.0429ZM47.2854 57.9201L46.7115 56.0543L46.1408 57.9201H47.2854ZM50.077 54.7087H51.576L53.5292 57.5799V54.7087H55.0413V59.899H53.5292L51.5858 57.0498V59.899H50.077V54.7087ZM55.8259 58.1824L57.3523 58.0869C57.3853 58.3339 57.4522 58.5227 57.5542 58.6533C57.7188 58.8629 57.9559 58.9672 58.2631 58.9672C58.4914 58.9672 58.668 58.9145 58.792 58.8069C58.9149 58.6994 58.9764 58.5753 58.9764 58.4338C58.9764 58.2999 58.9182 58.1791 58.8008 58.0727C58.6823 57.9662 58.4091 57.8663 57.9789 57.7719C57.2755 57.6139 56.774 57.4054 56.4745 57.1431C56.1727 56.8808 56.0213 56.5471 56.0213 56.141C56.0213 55.8743 56.0992 55.6208 56.2539 55.3848C56.4086 55.1477 56.6402 54.9623 56.9507 54.8251C57.2613 54.6901 57.687 54.622 58.2269 54.622C58.8908 54.622 59.3967 54.7449 59.7445 54.9919C60.0924 55.2388 60.2987 55.6307 60.3656 56.1695L58.8546 56.2574C58.8151 56.0247 58.7306 55.8546 58.6011 55.747C58.4727 55.6416 58.2949 55.589 58.07 55.589C57.8823 55.589 57.743 55.6274 57.6486 55.7075C57.5542 55.7854 57.5071 55.8831 57.5071 55.9961C57.5071 56.0785 57.5455 56.152 57.6223 56.2189C57.6991 56.2881 57.8769 56.3506 58.1611 56.4099C58.8612 56.5614 59.3638 56.715 59.6666 56.8687C59.9695 57.0234 60.1911 57.2144 60.3294 57.4449C60.4677 57.6732 60.5368 57.9289 60.5368 58.2132C60.5368 58.5457 60.4435 58.853 60.2603 59.1329C60.077 59.4139 59.8191 59.6268 59.4888 59.7717C59.1586 59.9165 58.7416 59.989 58.239 59.989C57.3567 59.989 56.7455 59.8199 56.4064 59.4797C56.0652 59.1395 55.8731 58.7081 55.8292 58.1846L55.8259 58.1824ZM61.3346 54.7087H64C64.5805 54.7087 65.015 54.847 65.3036 55.1236C65.5922 55.3991 65.7371 55.7931 65.7371 56.3012C65.7371 56.8094 65.5802 57.2364 65.2652 57.5305C64.9492 57.8257 64.4697 57.9728 63.8222 57.9728H62.9444V59.899H61.3335V54.7087H61.3346ZM62.9455 56.9214H63.3383C63.6478 56.9214 63.8639 56.8687 63.9901 56.7611C64.1141 56.6536 64.1778 56.5164 64.1778 56.3495C64.1778 56.1827 64.1229 56.0477 64.0143 55.9347C63.9067 55.8216 63.7026 55.7646 63.403 55.7646H62.9466V56.9225L62.9455 56.9214ZM66.3746 57.3077C66.3746 56.4604 66.6117 55.8008 67.0824 55.3288C67.5554 54.8558 68.2127 54.6209 69.0543 54.6209C69.896 54.6209 70.584 54.8525 71.0515 55.3168C71.5179 55.7799 71.7527 56.4297 71.7527 57.2649C71.7527 57.8718 71.6506 58.369 71.4454 58.7575C71.2413 59.1461 70.9462 59.4479 70.561 59.6641C70.1736 59.8803 69.6941 59.9879 69.118 59.9879C68.5419 59.9879 68.0481 59.8946 67.664 59.7091C67.281 59.5214 66.9705 59.2273 66.7313 58.8234C66.4932 58.4195 66.3735 57.9146 66.3735 57.3077H66.3746ZM67.9789 57.3143C67.9789 57.8389 68.0755 58.2143 68.2708 58.4447C68.4651 58.673 68.7317 58.7872 69.0664 58.7872C69.4011 58.7872 69.6776 58.6752 69.8664 58.4513C70.0551 58.2263 70.1506 57.8246 70.1506 57.244C70.1506 56.7545 70.0518 56.3978 69.8543 56.1728C69.6568 55.9478 69.3901 55.8348 69.0521 55.8348C68.7142 55.8348 68.4695 55.9489 68.2741 56.1783C68.0788 56.4066 67.98 56.7864 67.98 57.3143H67.9789ZM72.6371 59.899V54.7087H75.3103C75.8052 54.7087 76.1848 54.7504 76.446 54.8371C76.7083 54.9217 76.9201 55.0786 77.0803 55.3091C77.2416 55.5385 77.3206 55.8194 77.3206 56.1487C77.3206 56.4373 77.2591 56.6854 77.1373 56.8939C77.0144 57.1036 76.8443 57.2726 76.6315 57.4032C76.4943 57.4855 76.3055 57.5546 76.0685 57.6073C76.2595 57.671 76.3977 57.7357 76.4866 57.7994C76.5437 57.8422 76.6304 57.9322 76.7423 58.0716C76.8542 58.2121 76.9299 58.3185 76.9672 58.3942L77.7431 59.899H75.9303L75.0732 58.3119C74.9646 58.1078 74.868 57.9739 74.7824 57.9113C74.6672 57.8312 74.5355 57.7917 74.3896 57.7917H74.248V59.8979H72.6371V59.899ZM74.248 56.8116H74.9251C74.9975 56.8116 75.138 56.7886 75.3487 56.7414C75.4551 56.7194 75.5418 56.6656 75.6087 56.5778C75.6757 56.4911 75.7086 56.3902 75.7086 56.2771C75.7086 56.1092 75.6559 55.9808 75.5495 55.8919C75.443 55.8008 75.2433 55.7569 74.9514 55.7569H74.2469V56.8116H74.248ZM77.8265 54.7087H82.7008V55.9906H81.0647V59.899H79.4615V55.9906H77.8265V54.7087ZM90.8354 56.8862L92.1796 57.187C92.1094 57.435 92.0414 57.6337 91.9766 57.7829C91.9119 57.9333 91.8208 58.1089 91.7023 58.3108L92.3486 58.7553C92.4276 58.8058 92.5286 58.8662 92.6526 58.9364L91.7264 60.001C91.5574 59.9121 91.3819 59.8079 91.2008 59.6893C91.0186 59.5697 90.8562 59.4687 90.7125 59.3853C90.414 59.5818 90.1144 59.7256 89.8171 59.8145C89.4034 59.9385 88.9326 60.001 88.407 60.001C87.5807 60.001 86.9662 59.8298 86.5634 59.4863C86.1607 59.1428 85.9588 58.7257 85.9588 58.2351C85.9588 57.8828 86.0773 57.5502 86.3133 57.2353C86.5503 56.9203 86.9376 56.6547 87.4753 56.4395C87.2504 56.1652 87.0946 55.9281 87.0112 55.7272C86.9267 55.5253 86.8839 55.3201 86.8839 55.1126C86.8839 54.6725 87.0507 54.3103 87.3854 54.0261C87.7222 53.7407 88.2292 53.5991 88.9118 53.5991C89.5943 53.5991 90.1188 53.7341 90.4469 54.0041C90.7728 54.2752 90.9352 54.5979 90.9352 54.9765C90.9352 55.1873 90.8859 55.3903 90.7849 55.5846C90.6851 55.7799 90.5654 55.9369 90.425 56.0576C90.2834 56.1783 90.031 56.3594 89.6689 56.5987C89.9685 56.9005 90.2834 57.1804 90.6104 57.4394C90.6971 57.2649 90.7717 57.0805 90.8343 56.8851L90.8354 56.8862ZM88.858 55.7997C89.0797 55.679 89.2519 55.5472 89.3726 55.4046C89.4933 55.263 89.5548 55.128 89.5548 55.0007C89.5548 54.8734 89.5043 54.757 89.4034 54.6659C89.3024 54.5737 89.1619 54.5276 88.9853 54.5276C88.8086 54.5276 88.6671 54.5792 88.5584 54.6802C88.4487 54.7812 88.3938 54.9008 88.3938 55.0391C88.3938 55.2136 88.5474 55.4671 88.858 55.7997ZM88.2446 57.3044C88.0086 57.4701 87.8517 57.6128 87.7749 57.7313C87.697 57.8499 87.6575 57.975 87.6575 58.1078C87.6575 58.313 87.7475 58.4963 87.9242 58.6577C88.1019 58.8179 88.3324 58.8991 88.6166 58.8991C88.9238 58.8991 89.2684 58.7795 89.6514 58.5402C89.2849 58.2582 88.8163 57.8466 88.2435 57.3055L88.2446 57.3044ZM95.5912 54.7087H100.466V55.9906H98.8295V59.899H97.2263V55.9906H95.5912V54.7087ZM100.741 57.3077C100.741 56.4604 100.978 55.8008 101.45 55.3288C101.922 54.8558 102.579 54.6209 103.422 54.6209C104.265 54.6209 104.952 54.8525 105.419 55.3168C105.885 55.7799 106.12 56.4297 106.12 57.2649C106.12 57.8718 106.018 58.369 105.814 58.7575C105.609 59.1461 105.315 59.4479 104.93 59.6641C104.543 59.8803 104.064 59.9879 103.487 59.9879C102.909 59.9879 102.418 59.8946 102.033 59.7091C101.65 59.5214 101.339 59.2273 101.1 58.8234C100.862 58.4195 100.742 57.9146 100.742 57.3077H100.741ZM102.345 57.3143C102.345 57.8389 102.442 58.2143 102.636 58.4447C102.83 58.673 103.097 58.7872 103.432 58.7872C103.766 58.7872 104.043 58.6752 104.232 58.4513C104.42 58.2263 104.516 57.8246 104.516 57.244C104.516 56.7545 104.417 56.3978 104.221 56.1728C104.024 55.9478 103.757 55.8348 103.419 55.8348C103.081 55.8348 102.836 55.9489 102.641 56.1783C102.445 56.4066 102.348 56.7864 102.348 57.3143H102.345ZM110.358 54.7087H111.959V57.8038C111.959 58.1111 111.911 58.3997 111.815 58.673C111.72 58.9452 111.571 59.1845 111.367 59.3886C111.162 59.5928 110.948 59.7354 110.724 59.8189C110.412 59.9341 110.039 59.9923 109.601 59.9923C109.349 59.9923 109.073 59.9758 108.775 59.9396C108.476 59.9045 108.227 59.8342 108.026 59.7299C107.825 59.6246 107.642 59.4753 107.475 59.2811C107.309 59.0879 107.196 58.8881 107.133 58.6829C107.034 58.3536 106.985 58.0606 106.985 57.806V54.7109H108.586V57.8795C108.586 58.1638 108.664 58.3844 108.821 58.5424C108.978 58.7027 109.195 58.7817 109.475 58.7817C109.755 58.7817 109.967 58.7027 110.124 58.5457C110.281 58.3899 110.359 58.166 110.359 57.8784V54.7098L110.358 54.7087ZM113.042 59.899V54.7087H115.715C116.21 54.7087 116.59 54.7504 116.851 54.8371C117.113 54.9217 117.325 55.0786 117.485 55.3091C117.646 55.5385 117.726 55.8194 117.726 56.1487C117.726 56.4373 117.664 56.6854 117.541 56.8939C117.418 57.1036 117.249 57.2726 117.035 57.4032C116.897 57.4855 116.711 57.5546 116.472 57.6073C116.663 57.671 116.802 57.7357 116.891 57.7994C116.949 57.8422 117.034 57.9322 117.147 58.0716C117.259 58.2121 117.335 58.3185 117.372 58.3942L118.148 59.899H116.336L115.479 58.3119C115.371 58.1078 115.273 57.9739 115.189 57.9113C115.073 57.8312 114.942 57.7917 114.796 57.7917H114.654V59.8979H113.043L113.042 59.899ZM114.653 56.8116H115.33C115.403 56.8116 115.544 56.7886 115.754 56.7414C115.86 56.7194 115.947 56.6656 116.015 56.5778C116.081 56.4911 116.115 56.3902 116.115 56.2771C116.115 56.1092 116.062 55.9808 115.956 55.8919C115.849 55.8008 115.649 55.7569 115.358 55.7569H114.653V56.8116ZM118.724 54.7087H120.332V59.899H118.724V54.7087ZM121.203 58.1824L122.728 58.0869C122.761 58.3339 122.828 58.5227 122.93 58.6533C123.095 58.8629 123.332 58.9672 123.638 58.9672C123.866 58.9672 124.043 58.9145 124.167 58.8069C124.29 58.6994 124.351 58.5753 124.351 58.4338C124.351 58.2999 124.293 58.1791 124.175 58.0727C124.056 57.9662 123.783 57.8663 123.353 57.7719C122.649 57.6139 122.148 57.4054 121.849 57.1431C121.547 56.8808 121.396 56.5471 121.396 56.141C121.396 55.8743 121.473 55.6208 121.628 55.3848C121.783 55.1477 122.014 54.9623 122.326 54.8251C122.636 54.6901 123.062 54.622 123.602 54.622C124.265 54.622 124.772 54.7449 125.119 54.9919C125.467 55.2388 125.674 55.6307 125.741 56.1695L124.23 56.2574C124.19 56.0247 124.104 55.8546 123.976 55.747C123.848 55.6416 123.67 55.589 123.445 55.589C123.257 55.589 123.117 55.6274 123.022 55.7075C122.928 55.7854 122.881 55.8831 122.881 55.9961C122.881 56.0785 122.919 56.152 122.996 56.2189C123.072 56.2881 123.251 56.3506 123.535 56.4099C124.235 56.5614 124.737 56.715 125.04 56.8687C125.343 57.0234 125.565 57.2144 125.702 57.4449C125.839 57.6732 125.91 57.9289 125.91 58.2132C125.91 58.5457 125.817 58.853 125.633 59.1329C125.45 59.4139 125.192 59.6268 124.861 59.7717C124.53 59.9165 124.113 59.989 123.611 59.989C122.728 59.989 122.117 59.8199 121.778 59.4797C121.437 59.1395 121.245 58.7081 121.201 58.1846L121.203 58.1824ZM126.701 54.7087H128.811L129.625 57.8663L130.436 54.7087H132.539V59.899H131.229V55.9413L130.212 59.899H129.027L128.014 55.9413V59.899H126.701V54.7087Z" fill="#686868"/>
</g>
<defs>
<clipPath id="clip0_513_1369">
<rect width="151.143" height="60" fill="white"/>
</clipPath>
</defs>
</svg>
