<svg width="189" height="75" viewBox="0 0 189 75" fill="none" xmlns="http://www.w3.org/2000/svg">
<g clip-path="url(#clip0_513_1503)">
<path fill-rule="evenodd" clip-rule="evenodd" d="M112.237 24.8729C114.783 22.0385 119.034 20.4704 116.173 18.1189C113.548 15.9609 112.269 13.1032 114.585 10.7435C114.666 11.3087 115.349 12.1182 115.777 12.4886C116.868 13.4379 118.516 14.873 120.118 16.3011C122.795 18.6883 123.584 21.594 120.048 24.2144C117.057 26.43 114.176 28.7609 112.536 31.0438L112.238 24.8743L112.237 24.8729Z" fill="#24B0FF"/>
<path fill-rule="evenodd" clip-rule="evenodd" d="M112.436 6.62637C112.237 8.19996 115.269 9.28927 112.389 12.2787C111.171 13.5422 108.693 15.1185 107.362 16.345C103.463 19.9381 107.283 21.144 111.271 24.9525V30.5444C109.45 27.4795 104.702 24.6438 101.805 22.103C99.3364 20.0478 99.5916 17.0379 102.356 14.8565C105.496 12.3651 109.297 9.11778 112.436 6.62637Z" fill="#24B0FF"/>
<path fill-rule="evenodd" clip-rule="evenodd" d="M111.515 15.3326L115.157 18.8968L111.549 22.1331L107.907 18.5689L111.516 15.3326H111.515Z" fill="#24B0FF"/>
<path fill-rule="evenodd" clip-rule="evenodd" d="M123.471 -1.37312e-06C113.187 2.44064 112.335 5.86495 116.291 10.716C117.964 12.7671 120.446 14.2295 122.271 16.238C130.102 24.855 112.709 27.271 112.352 35.2075C113.903 30.8791 123.836 27.865 127.013 23.4022C128.886 20.7708 128.576 17.4151 125.44 14.4134C119.17 8.38242 111.481 4.24471 123.471 -0.00137329V-1.37312e-06Z" fill="#24B0FF"/>
<path fill-rule="evenodd" clip-rule="evenodd" d="M0.0549316 47.9636C0.0549316 43.3869 1.62303 39.857 4.75238 37.382C7.58127 35.1472 11.0906 34.0332 15.2668 34.0332C17.182 34.0332 19.1438 34.3007 21.1509 34.8344V40.5992C19.6967 39.0516 17.669 38.271 15.0665 38.271C12.8714 38.271 11.1167 38.9446 9.80241 40.2864C8.34817 41.7804 7.61969 44.0495 7.61969 47.0925C7.61969 50.916 8.61433 53.7847 10.6022 55.7136C11.7629 56.8482 13.3708 57.4079 15.4328 57.4079C15.7003 57.4079 16.153 57.3887 16.7868 57.3338V51.5622C16.7868 50.488 16.7073 49.7073 16.5468 49.2066C16.3327 48.5865 15.88 47.9527 15.1858 47.3243H23.6327V60.2148C20.8367 61.0682 18.0476 61.4962 15.2654 61.4962C10.7353 61.4962 7.07915 60.2958 4.2969 57.8867C1.46938 55.4502 0.0549316 52.1411 0.0549316 47.9636ZM33.7959 47.563C35.5437 47.29 36.7976 46.4216 37.5453 44.9536C37.9185 44.2265 38.1119 43.4788 38.1256 42.7188C38.1394 41.5115 37.7991 40.4976 37.1187 39.6759C36.445 38.8747 35.4436 38.4754 34.1155 38.4754H33.7959V47.563ZM33.7959 49.684V57.0965C33.7959 58.9513 34.3693 60.2052 35.5108 60.8596V61.0133H24.7563V60.8596C25.8442 60.2395 26.3848 59.0117 26.3848 57.1706V39.0366C26.3848 36.9073 25.8442 35.4805 24.7563 34.7534V34.6725H37.8005C40.9161 34.6725 43.1441 35.7412 44.4859 37.8691C45.1663 38.9433 45.5134 40.2315 45.5203 41.7187C45.5477 44.4008 43.9865 46.5094 40.8434 48.0446L46.0142 56.7315C47.0212 58.4327 48.142 59.7813 49.3767 60.7677L44.8467 61.0942C44.6258 61.1011 44.2458 61.1135 43.6997 61.134C43.2059 61.1532 42.8588 61.167 42.6393 61.167C41.6117 61.167 40.7981 61.001 40.211 60.6525C39.6567 60.326 39.1107 59.6579 38.5702 58.644L33.8 49.6826L33.7959 49.684ZM52.3236 55.0153L57.7276 39.4358C58.0678 38.4343 58.2421 37.6537 58.2421 37.0802C58.2421 36.1926 57.755 35.4188 56.7673 34.7521V34.6711H66.5353L74.3018 55.6079C74.8684 57.1225 75.3225 58.1433 75.6627 58.6632C76.1099 59.3711 76.7506 60.0982 77.5847 60.8583V61.0119H65.4556V60.8583C66.5504 60.2505 67.0964 59.4836 67.0964 58.5699C67.0964 58.0829 66.9894 57.5094 66.7768 56.8482L65.5352 53.0452H57.5685L56.4078 56.4078C56.128 57.2213 55.9414 57.969 55.8467 58.6426C55.9139 59.437 56.4078 60.1709 57.3284 60.8569V61.0106H49.1284V60.8569C49.9955 60.1229 50.617 59.356 50.9901 58.5548C51.2439 58.0074 51.6912 56.8262 52.325 55.0125L52.3236 55.0153ZM58.736 49.2834H64.214L61.4126 41.3167L58.7373 49.2834H58.736ZM80.6277 56.1622V41.1493C80.6277 39.0352 80.3478 37.5329 79.7798 36.6467C79.4794 36.1857 78.9868 35.5793 78.305 34.8316V34.6711H86.6655V34.7521L98.9222 50.8515V39.9091C98.9222 38.8417 98.8289 37.9075 98.6286 37.0994C98.4091 36.1857 97.9344 35.4051 97.2073 34.7507L97.114 34.6697H104.887V34.7507C103.687 35.8784 103.086 37.4122 103.086 39.3535V61.8515H102.92C101.405 61.8515 99.4709 61.1107 97.1291 59.629C95.9341 58.8813 94.9477 57.9814 94.1534 56.9264L84.9519 44.6038H84.7914V56.1595C84.7914 58.2077 85.3923 59.769 86.5928 60.8569V61.0106H78.8332V60.8569C80.0281 59.8568 80.6277 58.2942 80.6277 56.1595V56.1622ZM108.004 56.0086V40.0024C108.004 37.9473 107.823 36.5932 107.457 35.9456C107.229 35.545 106.87 35.1513 106.376 34.7521V34.6711H117.058V34.7521C116.27 35.3461 115.771 36.0732 115.57 36.9403C115.463 37.3861 115.417 38.3012 115.417 39.6759V56.1622C115.417 58.0376 115.617 59.2778 116.03 59.8924C116.256 60.2395 116.597 60.5935 117.058 60.9337V61.0147H106.376V60.9337C107.15 60.3863 107.643 59.6592 107.851 58.7455C107.958 58.2777 108.004 57.364 108.004 56.0099V56.0086ZM123.777 39.1957C123.777 39.0887 123.143 39.0352 121.862 39.0352C120.515 39.0352 118.886 39.5826 116.978 40.676L118.579 34.5051L119.34 34.6711H137.949L136.555 40.676C136.028 39.5291 134.827 38.9542 132.946 38.9542C132.359 38.9542 131.785 39.0352 131.231 39.1943V55.9276C131.231 58.2228 131.83 59.8636 133.039 60.8583V61.0119H122.136V60.8583C123.231 60.2313 123.779 58.8841 123.779 56.8084V39.1943L123.777 39.1957Z" fill="#61B125"/>
<path fill-rule="evenodd" clip-rule="evenodd" d="M155.205 56.8262H146.234L144.999 61.2287H136.954L146.53 34.56H155.115L164.696 61.2287H156.455L155.204 56.8262H155.205ZM153.556 51.0573L150.738 41.4703L147.938 51.0573H153.557H153.556ZM165.843 52.4045L173.336 51.9134C173.497 53.1865 173.829 54.1551 174.327 54.8259C175.134 55.907 176.297 56.4407 177.803 56.4407C178.924 56.4407 179.79 56.1677 180.402 55.6148C181.007 55.0619 181.31 54.4226 181.31 53.6969C181.31 53.0081 181.025 52.3867 180.443 51.8406C179.861 51.2946 178.521 50.7788 176.408 50.2945C172.955 49.4809 170.492 48.4067 169.022 47.0595C167.539 45.7123 166.796 43.9974 166.796 41.9121C166.796 40.5402 167.176 39.2423 167.935 38.0254C168.694 36.8085 169.834 35.8523 171.358 35.1499C172.884 34.4543 174.972 34.1072 177.624 34.1072C180.881 34.1072 183.366 34.7411 185.076 36.0073C186.785 37.2736 187.799 39.2917 188.126 42.0548L180.704 42.5075C180.507 41.3098 180.093 40.4331 179.458 39.8871C178.83 39.3466 177.957 39.0736 176.847 39.0736C175.928 39.0736 175.239 39.2725 174.777 39.6813C174.313 40.0847 174.083 40.5813 174.083 41.1658C174.083 41.5883 174.273 41.967 174.652 42.3086C175.025 42.6625 175.903 42.9849 177.297 43.2895C180.739 44.066 183.2 44.8535 184.69 45.6492C186.179 46.4435 187.265 47.4258 187.942 48.6057C188.618 49.7787 188.962 51.0957 188.962 52.554C188.962 54.2621 188.506 55.8398 187.604 57.2803C186.703 58.7263 185.438 59.8197 183.814 60.5647C182.193 61.3096 180.147 61.6814 177.678 61.6814C173.347 61.6814 170.346 60.8116 168.679 59.0611C167.006 57.316 166.062 55.099 165.843 52.4045Z" fill="#24B0FF"/>
<path fill-rule="evenodd" clip-rule="evenodd" d="M41.9902 68.386H48.0843V69.9884H46.0388V74.8738H44.0344V69.9884H41.9902V68.386ZM49.0186 74.8738V68.386H52.3606C52.9793 68.386 53.454 68.4381 53.7805 68.5465C54.1084 68.6521 54.3732 68.8483 54.5735 69.1364C54.7738 69.4231 54.8739 69.7744 54.8739 70.1859C54.8739 70.5467 54.7971 70.8568 54.6434 71.1175C54.4898 71.3795 54.2785 71.5908 54.011 71.754C53.8381 71.8569 53.6049 71.9434 53.3072 72.0092C53.5459 72.0888 53.7188 72.1697 53.8299 72.2493C53.9026 72.3028 54.0096 72.4153 54.1509 72.5895C54.2908 72.7651 54.3855 72.8982 54.4322 72.9929L55.4021 74.8738H53.1371L52.0656 72.89C51.9298 72.6348 51.809 72.4674 51.702 72.3892C51.558 72.2891 51.3934 72.2397 51.2109 72.2397H51.0339V74.8724H49.0199L49.0186 74.8738ZM51.0325 71.0146H51.879C51.9696 71.0146 52.1465 70.9858 52.4086 70.9268C52.5417 70.8993 52.65 70.8321 52.7351 70.7223C52.8174 70.614 52.8599 70.4878 52.8599 70.3464C52.8599 70.1365 52.7941 69.976 52.661 69.8649C52.5279 69.751 52.2782 69.6962 51.9133 69.6962H51.0325V71.0146ZM60.0337 73.8037H57.7495L57.4353 74.8738H55.387L57.8249 68.386H60.0104L62.4496 74.8738H60.352L60.0337 73.8037ZM59.6139 72.4002L58.8964 70.0679L58.183 72.4002H59.6139ZM63.104 68.386H64.9781L67.4201 71.9749V68.386H69.3106V74.8738H67.4201L64.9904 71.3123V74.8738H63.104V68.386ZM70.2915 72.7281L72.1999 72.6087C72.241 72.9174 72.3247 73.1534 72.4523 73.3166C72.6581 73.5787 72.9544 73.709 73.3386 73.709C73.6239 73.709 73.8448 73.6432 73.9998 73.5087C74.1535 73.3743 74.2303 73.2192 74.2303 73.0423C74.2303 72.8749 74.1576 72.724 74.0108 72.5909C73.8626 72.4578 73.521 72.333 72.9832 72.215C72.1038 72.0174 71.4769 71.7568 71.1023 71.4289C70.7251 71.101 70.5357 70.6839 70.5357 70.1763C70.5357 69.8429 70.6331 69.526 70.8266 69.2311C71.02 68.9347 71.3095 68.7029 71.6977 68.5314C72.086 68.3627 72.6183 68.2776 73.2933 68.2776C74.1233 68.2776 74.7557 68.4312 75.1906 68.7399C75.6255 69.0486 75.8835 69.5384 75.9671 70.212L74.078 70.3218C74.0286 70.0309 73.923 69.8183 73.7611 69.6838C73.6006 69.5521 73.3783 69.4862 73.0971 69.4862C72.8625 69.4862 72.6883 69.5343 72.5703 69.6344C72.4523 69.7318 72.3933 69.8539 72.3933 69.9952C72.3933 70.0981 72.4413 70.19 72.5374 70.2737C72.6334 70.3602 72.8556 70.4384 73.211 70.5124C74.0863 70.7018 74.7146 70.8938 75.0932 71.0859C75.4719 71.2794 75.749 71.5181 75.9219 71.8062C76.0947 72.0915 76.1812 72.4112 76.1812 72.7665C76.1812 73.1822 76.0646 73.5663 75.8354 73.9162C75.6063 74.2674 75.2839 74.5335 74.871 74.7146C74.458 74.8957 73.9367 74.9863 73.3084 74.9863C72.2053 74.9863 71.4412 74.775 71.0173 74.3497C70.5906 73.9244 70.3505 73.3852 70.2956 72.7308L70.2915 72.7281ZM77.1786 68.386H80.5109C81.2367 68.386 81.78 68.5588 82.1408 68.9046C82.5016 69.2489 82.6827 69.7414 82.6827 70.3766C82.6827 71.0118 82.4865 71.5455 82.0928 71.9132C81.6976 72.2822 81.0981 72.4661 80.2887 72.4661H79.1912V74.8738H77.1772V68.386H77.1786ZM79.1925 71.1518H79.6837C80.0706 71.1518 80.3408 71.0859 80.4986 70.9515C80.6536 70.817 80.7332 70.6455 80.7332 70.437C80.7332 70.2285 80.6646 70.0597 80.5288 69.9184C80.3943 69.7771 80.1391 69.7058 79.7646 69.7058H79.1939V71.1531L79.1925 71.1518ZM83.4798 71.6347C83.4798 70.5756 83.7761 69.751 84.3647 69.1611C84.956 68.5698 85.7777 68.2762 86.83 68.2762C87.8822 68.2762 88.7424 68.5657 89.3269 69.146C89.9099 69.725 90.2035 70.5371 90.2035 71.5812C90.2035 72.3398 90.076 72.9613 89.8194 73.447C89.5642 73.9326 89.1952 74.3099 88.7136 74.5802C88.2294 74.8504 87.6298 74.9849 86.9096 74.9849C86.1893 74.9849 85.5719 74.8683 85.0918 74.6364C84.613 74.4018 84.2247 74.0342 83.9256 73.5293C83.6279 73.0244 83.4784 72.3933 83.4784 71.6347H83.4798ZM85.4855 71.6429C85.4855 72.2987 85.6062 72.7679 85.8504 73.056C86.0933 73.3413 86.4267 73.484 86.8451 73.484C87.2635 73.484 87.6092 73.3441 87.8452 73.0642C88.0812 72.783 88.2005 72.2808 88.2005 71.5551C88.2005 70.9432 88.0771 70.4974 87.8301 70.2161C87.5832 69.9349 87.2498 69.7936 86.8273 69.7936C86.4047 69.7936 86.0988 69.9362 85.8546 70.223C85.6104 70.5083 85.4869 70.983 85.4869 71.6429H85.4855ZM91.3093 74.8738V68.386H94.6513C95.27 68.386 95.7447 68.4381 96.0712 68.5465C96.3991 68.6521 96.6639 68.8483 96.8642 69.1364C97.0659 69.4231 97.1646 69.7744 97.1646 70.1859C97.1646 70.5467 97.0878 70.8568 96.9355 71.1175C96.7819 71.3795 96.5692 71.5908 96.3031 71.754C96.1316 71.8569 95.8956 71.9434 95.5993 72.0092C95.838 72.0888 96.0109 72.1697 96.122 72.2493C96.1933 72.3028 96.3017 72.4153 96.4416 72.5895C96.5816 72.7651 96.6762 72.8982 96.7229 72.9929L97.6928 74.8738H95.4264L94.355 72.89C94.2191 72.6348 94.0984 72.4674 93.9914 72.3892C93.8474 72.2891 93.6827 72.2397 93.5003 72.2397H93.3233V74.8724H91.3093V74.8738ZM93.3233 71.0146H94.1698C94.2603 71.0146 94.4359 70.9858 94.6993 70.9268C94.8324 70.8993 94.9408 70.8321 95.0245 70.7223C95.1081 70.614 95.1493 70.4878 95.1493 70.3464C95.1493 70.1365 95.0834 69.976 94.9504 69.8649C94.8173 69.751 94.5676 69.6962 94.2027 69.6962H93.3219V71.0146H93.3233ZM97.7971 68.386H103.891V69.9884H101.846V74.8738H99.8413V69.9884H97.7971V68.386ZM114.061 71.1079L115.742 71.4838C115.654 71.7938 115.569 72.0421 115.488 72.2287C115.407 72.4167 115.293 72.6362 115.145 72.8886L115.953 73.4442C116.052 73.5073 116.178 73.5828 116.333 73.6706L115.175 75.0014C114.964 74.8902 114.744 74.7599 114.518 74.6117C114.29 74.4622 114.087 74.336 113.908 74.2317C113.534 74.4773 113.16 74.657 112.788 74.7681C112.271 74.9232 111.682 75.0014 111.025 75.0014C109.992 75.0014 109.224 74.7873 108.72 74.3579C108.217 73.9285 107.964 73.4072 107.964 72.7939C107.964 72.3536 108.113 71.9379 108.408 71.5441C108.704 71.1504 109.188 70.8184 109.86 70.5495C109.579 70.2065 109.384 69.9102 109.28 69.6591C109.174 69.4067 109.121 69.1501 109.121 68.8908C109.121 68.3407 109.329 67.888 109.748 67.5326C110.169 67.1759 110.803 66.999 111.656 66.999C112.51 66.999 113.165 67.1677 113.576 67.5052C113.983 67.8441 114.186 68.2474 114.186 68.7207C114.186 68.9841 114.124 69.2379 113.998 69.4808C113.873 69.725 113.724 69.9212 113.548 70.0721C113.371 70.223 113.056 70.4493 112.603 70.7484C112.977 71.1257 113.371 71.4755 113.78 71.7993C113.888 71.5812 113.982 71.3507 114.06 71.1065L114.061 71.1079ZM111.589 69.7497C111.866 69.5987 112.082 69.4341 112.232 69.2558C112.383 69.0788 112.46 68.91 112.46 68.7509C112.46 68.5918 112.397 68.4463 112.271 68.3325C112.145 68.2172 111.969 68.1596 111.748 68.1596C111.527 68.1596 111.35 68.2241 111.214 68.3503C111.077 68.4765 111.009 68.6261 111.009 68.7989C111.009 69.0171 111.201 69.334 111.589 69.7497ZM110.822 71.6306C110.527 71.8377 110.331 72.0161 110.235 72.1642C110.138 72.3124 110.088 72.4688 110.088 72.6348C110.088 72.8914 110.201 73.1205 110.421 73.3221C110.644 73.5224 110.932 73.624 111.287 73.624C111.671 73.624 112.102 73.4744 112.581 73.1753C112.123 72.8228 111.537 72.3083 110.821 71.6319L110.822 71.6306ZM120.007 68.386H126.101V69.9884H124.056V74.8738H122.051V69.9884H120.007V68.386ZM126.445 71.6347C126.445 70.5756 126.742 69.751 127.332 69.1611C127.922 68.5698 128.743 68.2762 129.797 68.2762C130.851 68.2762 131.71 68.5657 132.294 69.146C132.877 69.725 133.171 70.5371 133.171 71.5812C133.171 72.3398 133.043 72.9613 132.788 73.447C132.531 73.9326 132.164 74.3099 131.682 74.5802C131.199 74.8504 130.6 74.9849 129.878 74.9849C129.156 74.9849 128.542 74.8683 128.06 74.6364C127.581 74.4018 127.193 74.0342 126.894 73.5293C126.596 73.0244 126.447 72.3933 126.447 71.6347H126.445ZM128.451 71.6429C128.451 72.2987 128.572 72.7679 128.815 73.056C129.058 73.3413 129.391 73.484 129.809 73.484C130.228 73.484 130.574 73.3441 130.81 73.0642C131.046 72.783 131.165 72.2808 131.165 71.5551C131.165 70.9432 131.041 70.4974 130.796 70.2161C130.55 69.9349 130.216 69.7936 129.793 69.7936C129.37 69.7936 129.064 69.9362 128.82 70.223C128.576 70.5083 128.454 70.983 128.454 71.6429H128.451ZM138.469 68.386H140.471V72.2548C140.471 72.6389 140.41 72.9997 140.291 73.3413C140.172 73.6816 139.985 73.9807 139.73 74.2358C139.475 74.491 139.207 74.6694 138.926 74.7736C138.536 74.9177 138.07 74.9904 137.522 74.9904C137.207 74.9904 136.862 74.9698 136.489 74.9245C136.116 74.8806 135.805 74.7928 135.554 74.6625C135.303 74.5308 135.073 74.3442 134.865 74.1014C134.656 73.8599 134.515 73.6102 134.437 73.3537C134.313 72.9421 134.252 72.5758 134.252 72.2575V68.3887H136.253V72.3494C136.253 72.7048 136.351 72.9805 136.547 73.1781C136.743 73.3784 137.015 73.4772 137.365 73.4772C137.714 73.4772 137.981 73.3784 138.177 73.1822C138.373 72.9874 138.47 72.7075 138.47 72.3481V68.3873L138.469 68.386ZM141.825 74.8738V68.386H145.167C145.785 68.386 146.26 68.4381 146.587 68.5465C146.914 68.6521 147.179 68.8483 147.38 69.1364C147.58 69.4231 147.68 69.7744 147.68 70.1859C147.68 70.5467 147.603 70.8568 147.45 71.1175C147.296 71.3795 147.085 71.5908 146.817 71.754C146.644 71.8569 146.411 71.9434 146.113 72.0092C146.352 72.0888 146.525 72.1697 146.636 72.2493C146.709 72.3028 146.816 72.4153 146.957 72.5895C147.097 72.7651 147.192 72.8982 147.238 72.9929L148.208 74.8738H145.943L144.872 72.89C144.736 72.6348 144.614 72.4674 144.508 72.3892C144.364 72.2891 144.199 72.2397 144.017 72.2397H143.84V74.8724H141.826L141.825 74.8738ZM143.839 71.0146H144.685C144.776 71.0146 144.953 70.9858 145.215 70.9268C145.348 70.8993 145.456 70.8321 145.541 70.7223C145.624 70.614 145.666 70.4878 145.666 70.3464C145.666 70.1365 145.6 69.976 145.467 69.8649C145.334 69.751 145.084 69.6962 144.719 69.6962H143.839V71.0146ZM148.928 68.386H150.938V74.8738H148.928V68.386ZM152.028 72.7281L153.935 72.6087C153.976 72.9174 154.059 73.1534 154.187 73.3166C154.393 73.5787 154.689 73.709 155.072 73.709C155.357 73.709 155.578 73.6432 155.733 73.5087C155.887 73.3743 155.964 73.2192 155.964 73.0423C155.964 72.8749 155.891 72.724 155.743 72.5909C155.595 72.4578 155.253 72.333 154.715 72.215C153.836 72.0174 153.209 71.7568 152.836 71.4289C152.457 71.101 152.269 70.6839 152.269 70.1763C152.269 69.8429 152.365 69.526 152.559 69.2311C152.752 68.9347 153.041 68.7029 153.431 68.5314C153.819 68.3627 154.352 68.2776 155.027 68.2776C155.855 68.2776 156.489 68.4312 156.924 68.7399C157.359 69.0486 157.617 69.5384 157.701 70.212L155.811 70.3218C155.762 70.0309 155.655 69.8183 155.494 69.6838C155.334 69.5521 155.112 69.4862 154.83 69.4862C154.596 69.4862 154.42 69.5343 154.302 69.6344C154.184 69.7318 154.125 69.8539 154.125 69.9952C154.125 70.0981 154.173 70.19 154.269 70.2737C154.364 70.3602 154.588 70.4384 154.943 70.5124C155.818 70.7018 156.445 70.8938 156.825 71.0859C157.204 71.2794 157.481 71.5181 157.653 71.8062C157.824 72.0915 157.912 72.4112 157.912 72.7665C157.912 73.1822 157.797 73.5663 157.566 73.9162C157.337 74.2674 157.015 74.5335 156.6 74.7146C156.187 74.8957 155.666 74.9863 155.038 74.9863C153.935 74.9863 153.17 74.775 152.747 74.3497C152.32 73.9244 152.08 73.3852 152.025 72.7308L152.028 72.7281ZM158.901 68.386H161.539L162.557 72.333L163.571 68.386H166.2V74.8738H164.563V69.9266L163.291 74.8738H161.809L160.543 69.9266V74.8738H158.901V68.386Z" fill="#24B0FF"/>
</g>
<defs>
<clipPath id="clip0_513_1503">
<rect width="188.962" height="75" fill="white"/>
</clipPath>
</defs>
</svg>
