<svg width="115" height="106" viewBox="0 0 115 106" fill="none" xmlns="http://www.w3.org/2000/svg">
<rect x="8.85059" y="66.9468" width="2.21281" height="6.32879" rx="1.10641" fill="#F55E31"/>
<rect x="8.85059" y="54.4871" width="2.21281" height="6.32879" rx="1.10641" fill="#F55E31"/>
<rect x="20.0205" y="62.7938" width="2.07664" height="6.74381" rx="1.03832" transform="rotate(90 20.0205 62.7938)" fill="#F55E31"/>
<rect x="6.74365" y="62.7938" width="2.07664" height="6.74381" rx="1.03832" transform="rotate(90 6.74365 62.7938)" fill="#F55E31"/>
<rect x="103.831" y="66.9467" width="2.21275" height="6.32879" rx="1.10638" fill="#F55E31"/>
<rect x="103.831" y="54.4869" width="2.21275" height="6.32879" rx="1.10638" fill="#F55E31"/>
<rect x="115" y="62.7935" width="2.07664" height="6.74363" rx="1.03832" transform="rotate(90 115 62.7935)" fill="#F55E31"/>
<rect x="101.723" y="62.7935" width="2.07664" height="6.74363" rx="1.03832" transform="rotate(90 101.723 62.7935)" fill="#F55E31"/>
<rect x="55.9004" y="12.4597" width="2.21281" height="6.32893" rx="1.10641" fill="#F55E31"/>
<rect x="55.9004" width="2.21281" height="6.32893" rx="1.10641" fill="#F55E31"/>
<rect x="67.0693" y="8.30695" width="2.07668" height="6.74381" rx="1.03834" transform="rotate(90 67.0693 8.30695)" fill="#F55E31"/>
<rect x="53.792" y="8.30695" width="2.07668" height="6.74381" rx="1.03834" transform="rotate(90 53.792 8.30695)" fill="#F55E31"/>
<path d="M77.7408 105.25H77.4908H38.1349H37.8849V105V68.4261C37.8847 68.1017 37.8018 67.783 37.6444 67.5005L20.4235 36.8285L20.4234 36.8282C19.501 35.1802 19.2532 33.2338 19.7327 31.4042C20.2121 29.5745 21.3812 28.0059 22.991 27.0336L22.9917 27.0332C23.7879 26.5555 24.6713 26.2442 25.5894 26.118C26.5072 25.9918 27.4408 26.0531 28.3347 26.2984C29.2383 26.5421 30.0842 26.9662 30.8225 27.5454C31.5608 28.1246 32.1765 28.8473 32.6333 29.6705C32.6334 29.6707 32.6335 29.6708 32.6336 29.671L46.8533 55.0107L46.8577 55.0185L46.8615 55.0266C47.0871 55.5065 47.1246 56.0546 46.9667 56.5612C46.8087 57.0678 46.4666 57.496 46.0083 57.7593C45.5499 58.0228 45.0096 58.1016 44.4958 57.9797C43.982 57.8578 43.5335 57.5445 43.2398 57.1033L43.2346 57.0954L43.2299 57.0871L29.0096 31.7464L29.0087 31.7448L29.0087 31.7448C28.8234 31.4086 28.5733 31.1136 28.2732 30.8771C27.9732 30.6407 27.6293 30.4675 27.262 30.3678L27.2619 30.3677C26.9062 30.271 26.5349 30.2472 26.1699 30.2979C25.8052 30.3485 25.4542 30.4723 25.1375 30.6622C24.4689 31.07 23.9839 31.7258 23.7867 32.4903C23.5893 33.2552 23.6959 34.0675 24.0833 34.7539L24.0837 34.7545L41.2804 65.4272L41.2805 65.4273C41.7929 66.3422 42.0623 67.3751 42.0626 68.4258V68.4259V101.037H73.5632V84.8057V68.3246V68.3244H73.8132C73.8123 67.3162 74.0709 66.3251 74.5634 65.448L77.7408 105.25ZM77.7408 105.25V105V68.3244V68.3241C77.7404 68.0008 77.8232 67.6831 77.9809 67.4022L77.981 67.4022L95.1434 36.8285L95.1435 36.8283C96.0662 35.1806 96.3143 33.2344 95.8353 31.4048C95.3563 29.5752 94.1878 28.0063 92.5784 27.0336L92.5775 27.0331C91.7829 26.5572 90.9017 26.247 89.986 26.1208C89.0705 25.9946 88.1392 26.055 87.2472 26.2983M77.7408 105.25L74.3454 65.3256M74.3454 65.3256L91.5078 34.7544L91.5082 34.7537C91.896 34.0679 92.0033 33.256 91.8068 32.4912C91.6105 31.7268 91.1265 31.0708 90.4588 30.6622C90.1417 30.4721 89.7903 30.3482 89.4252 30.2976C89.0599 30.2469 88.6882 30.2708 88.332 30.3677L88.3319 30.3678C87.9646 30.4675 87.6207 30.6407 87.3207 30.8771C87.0206 31.1136 86.7705 31.4086 86.5852 31.7448L86.5842 31.7465L71.3145 58.9394C71.3141 58.9401 71.3137 58.9409 71.3133 58.9417C71.1815 59.187 71.0026 59.4036 70.7869 59.5788C70.5706 59.7545 70.3215 59.885 70.0543 59.9626C69.7872 60.0401 69.5073 60.0631 69.2312 60.0301C68.955 59.9972 68.6883 59.9089 68.4465 59.7707C68.2048 59.6325 67.9929 59.4471 67.8232 59.2254C67.6536 59.0038 67.5295 58.7503 67.4581 58.48C67.3868 58.2096 67.3696 57.9276 67.4075 57.6504C67.4452 57.3741 67.5371 57.1081 67.6777 56.8677C67.6781 56.867 67.6785 56.8663 67.6789 56.8655L82.9457 29.6709C82.9458 29.6706 82.946 29.6703 82.9462 29.67C83.4034 28.8469 84.0195 28.1244 84.7581 27.5453C85.4968 26.966 86.3432 26.542 87.2472 26.2983M74.3454 65.3256C74.3454 65.3256 74.3454 65.3256 74.3454 65.3256L74.3454 65.3256ZM87.2472 26.2983C87.2473 26.2983 87.2475 26.2983 87.2476 26.2982L87.3126 26.5396M87.2472 26.2983C87.2471 26.2984 87.2469 26.2984 87.2468 26.2985L87.3126 26.5396M87.3126 26.5396C88.1722 26.3051 89.0696 26.2468 89.9519 26.3684C90.8341 26.49 91.6832 26.789 92.4491 27.2476M87.3126 26.5396C86.441 26.7745 85.6248 27.1834 84.9123 27.742C84.1998 28.3007 83.6054 28.9978 83.1642 29.7923L92.4491 27.2476M92.4491 27.2476C94.0024 28.1864 95.1308 29.701 95.5935 31.4681C96.0561 33.2353 95.8164 35.115 94.9254 36.7061L92.4491 27.2476ZM91.7258 34.8768C92.1455 34.1346 92.2615 33.2562 92.049 32.429C91.8364 31.6017 91.3123 30.891 90.5882 30.4483C90.2421 30.2407 89.8584 30.1052 89.4596 30.0499C89.0608 29.9947 88.655 30.0207 88.2664 30.1265C87.8665 30.2351 87.4923 30.4235 87.1659 30.6808C86.8395 30.938 86.5676 31.2588 86.3662 31.6241L91.7258 34.8768Z" fill="#3B89FF" stroke="#3B89FF" stroke-width="0.5"/>
<path d="M41.5039 49.8469C41.4993 54.0157 43.042 58.0353 45.8283 61.113L45.9202 61.2179L45.9201 61.2179L72.3055 56.7782C73.305 54.6072 73.8205 52.2412 73.8158 49.8471H74.0658C74.0658 49.8469 74.0658 49.8467 74.0658 49.8466C74.0655 40.7077 66.7646 33.2594 57.7836 33.2594C48.8025 33.2594 41.504 40.7004 41.5039 49.8469ZM41.5039 49.8469C41.5039 49.847 41.5039 49.847 41.5039 49.8471H41.7539L41.5039 49.8468C41.5039 49.8468 41.5039 49.8469 41.5039 49.8469ZM71.1611 59.3078C71.6859 58.5404 72.1447 57.7291 72.5326 56.8827L57.7836 66.1946L57.7842 66.4446C57.7843 66.4446 57.7843 66.4446 57.7844 66.4446C60.0325 66.4392 62.255 65.9631 64.3115 65.0465C66.3681 64.1299 68.2139 62.7928 69.7323 61.1197L69.5472 60.9517L69.7324 61.1197C70.2496 60.5498 70.7269 59.9444 71.1611 59.3078ZM68.7391 55.1065L68.7388 55.1072C67.91 56.9176 66.654 58.4948 65.0813 59.7007C63.5086 60.9066 61.6671 61.7044 59.7183 62.0244C57.7695 62.3444 55.7726 62.1768 53.9028 61.5364C52.0335 60.8961 50.348 59.8026 48.9941 58.3516C48.9937 58.3512 48.9933 58.3508 48.9929 58.3503L48.9144 58.2639C46.8295 55.9636 45.6755 52.9565 45.6816 49.8376V49.8372C45.6816 43.0141 51.1158 37.4626 57.7836 37.4626C64.4515 37.4626 69.8881 43.0068 69.8881 49.8372V49.8378C69.8925 51.6579 69.5003 53.4567 68.7391 55.1065Z" fill="#3B89FF" stroke="#3B89FF" stroke-width="0.5"/>
<path d="M54.3578 51.6835H64.974C65.4292 51.6835 65.8657 51.8661 66.1876 52.191C66.5094 52.516 66.6902 52.9567 66.6902 53.4163V53.9114C66.6863 55.789 65.9443 57.5883 64.6272 58.914C63.3101 60.2396 61.5256 60.9831 59.6659 60.9811C57.8049 60.9811 56.0201 60.2347 54.7041 58.9061C53.3882 57.5775 52.6489 55.7755 52.6489 53.8965V53.4014C52.6489 52.9419 52.8297 52.5011 53.1516 52.1762C53.4735 51.8512 53.91 51.6686 54.3652 51.6686L54.3578 51.6835Z" fill="#DFE3E8"/>
<path d="M57.7834 60.9035C55.5981 60.9008 53.5029 60.0232 51.9577 58.463C50.4124 56.9029 49.5431 54.7876 49.5405 52.5812V52.0861C49.5405 51.2983 49.8505 50.5427 50.4023 49.9856C50.954 49.4286 51.7024 49.1156 52.4827 49.1156H63.0988C63.8791 49.1156 64.6275 49.4286 65.1792 49.9856C65.731 50.5427 66.041 51.2983 66.041 52.0861V52.5812C66.0384 54.7901 65.1671 56.9077 63.6186 58.4683C62.0702 60.0289 59.9713 60.9048 57.7834 60.9035ZM52.4753 51.5984C52.3453 51.5984 52.2205 51.6506 52.1286 51.7434C52.0366 51.8363 51.9849 51.9622 51.9849 52.0935V52.5886C51.9849 54.1393 52.5951 55.6265 53.6811 56.723C54.7672 57.8195 56.2402 58.4355 57.776 58.4355C59.3119 58.4355 60.7849 57.8195 61.871 56.723C62.957 55.6265 63.5671 54.1393 63.5671 52.5886V52.0935C63.5671 51.9622 63.5155 51.8363 63.4235 51.7434C63.3316 51.6506 63.2068 51.5984 63.0768 51.5984H52.4753Z" fill="#3B89FF"/>
</svg>
