<svg width="8" height="16" viewBox="0 0 8 16" fill="none" xmlns="http://www.w3.org/2000/svg">
<path d="M3.80347 3.32777C3.52601 3.32777 3.24856 3.28287 2.9711 3.19307C2.69364 3.10327 2.44316 2.9846 2.21965 2.83707C2.00385 2.68954 1.82659 2.51314 1.68786 2.30788C1.55684 2.10262 1.49133 1.88133 1.49133 1.644C1.49133 1.40025 1.55299 1.17896 1.6763 0.98011C1.80732 0.781264 1.97688 0.617698 2.18497 0.489411C2.40077 0.354709 2.6474 0.252079 2.92486 0.181521C3.20231 0.110962 3.49518 0.0756836 3.80347 0.0756836C4.158 0.0756836 4.4817 0.107755 4.77457 0.1719C5.06744 0.236043 5.31792 0.332258 5.52601 0.460546C5.74181 0.582419 5.90751 0.736364 6.02312 0.922381C6.13873 1.10198 6.19653 1.31045 6.19653 1.54778C6.19653 1.79794 6.13102 2.03207 6 2.25015C5.86898 2.46824 5.69171 2.65747 5.46821 2.81783C5.25241 2.97177 4.99807 3.09685 4.7052 3.19307C4.42004 3.28287 4.11946 3.32777 3.80347 3.32777ZM0 14.2675L1.72254 13.7575C1.86898 13.7126 1.98459 13.6581 2.06936 13.594C2.15414 13.5234 2.19653 13.4208 2.19653 13.2861V7.02244C2.19653 6.88774 2.15029 6.78191 2.0578 6.70493C1.96532 6.62796 1.842 6.56382 1.68786 6.5125L0.0346821 5.9737V5.16549L5.83815 4.84797V13.2861C5.83815 13.4208 5.88439 13.5266 5.97688 13.6036C6.06936 13.6741 6.17726 13.7255 6.30058 13.7575L8 14.2675V15.0757H0V14.2675Z" fill="white"/>
</svg>
