<svg width="20" height="20" viewBox="0 0 20 20" fill="none" xmlns="http://www.w3.org/2000/svg">
<g clip-path="url(#clip0_378_295)">
<path d="M0.0117188 6.70833C0.0117188 4.33546 0.0117188 3.14902 0.480829 2.24594C0.876144 1.48493 1.49665 0.864425 2.25766 0.469111C3.16074 0 4.34717 0 6.72005 0H13.3034C15.6763 0 16.8627 0 17.7658 0.469111C18.5268 0.864425 19.1473 1.48493 19.5426 2.24594C20.0117 3.14902 20.0117 4.33546 20.0117 6.70833V13.2917C20.0117 15.6645 20.0117 16.851 19.5426 17.7541C19.1473 18.5151 18.5268 19.1356 17.7658 19.5309C16.8627 20 15.6763 20 13.3034 20H6.72005C4.34717 20 3.16074 20 2.25766 19.5309C1.49665 19.1356 0.876144 18.5151 0.480829 17.7541C0.0117188 16.851 0.0117188 15.6645 0.0117188 13.2917V6.70833Z" fill="url(#paint0_radial_378_295)"/>
<path d="M0.0117188 6.70833C0.0117188 4.33546 0.0117188 3.14902 0.480829 2.24594C0.876144 1.48493 1.49665 0.864425 2.25766 0.469111C3.16074 0 4.34717 0 6.72005 0H13.3034C15.6763 0 16.8627 0 17.7658 0.469111C18.5268 0.864425 19.1473 1.48493 19.5426 2.24594C20.0117 3.14902 20.0117 4.33546 20.0117 6.70833V13.2917C20.0117 15.6645 20.0117 16.851 19.5426 17.7541C19.1473 18.5151 18.5268 19.1356 17.7658 19.5309C16.8627 20 15.6763 20 13.3034 20H6.72005C4.34717 20 3.16074 20 2.25766 19.5309C1.49665 19.1356 0.876144 18.5151 0.480829 17.7541C0.0117188 16.851 0.0117188 15.6645 0.0117188 13.2917V6.70833Z" fill="url(#paint1_radial_378_295)"/>
<path d="M9.99968 2.72729C8.02458 2.72729 7.77671 2.73593 7.00098 2.77123C6.22676 2.80669 5.69829 2.92926 5.23588 3.10911C4.75756 3.29487 4.35182 3.54336 3.94759 3.94775C3.54305 4.35199 3.29458 4.75775 3.10822 5.23593C2.92792 5.69851 2.8052 6.22714 2.77035 7.00108C2.73565 7.77684 2.72656 8.02487 2.72656 10C2.72656 11.9752 2.73535 12.2223 2.7705 12.9981C2.80611 13.7723 2.92868 14.3008 3.10837 14.7632C3.29427 15.2415 3.54275 15.6473 3.94713 16.0515C4.35121 16.4561 4.75696 16.7052 5.23497 16.8909C5.69768 17.0708 6.22631 17.1934 7.00037 17.2288C7.77611 17.2641 8.02383 17.2727 9.99877 17.2727C11.974 17.2727 12.2211 17.2641 12.9969 17.2288C13.7711 17.1934 14.3002 17.0708 14.7629 16.8909C15.241 16.7052 15.6462 16.4561 16.0503 16.0515C16.4548 15.6473 16.7033 15.2415 16.8896 14.7634C17.0684 14.3008 17.1911 13.7721 17.2275 12.9982C17.2623 12.2224 17.2714 11.9752 17.2714 10C17.2714 8.02487 17.2623 7.77699 17.2275 7.00123C17.1911 6.22699 17.0684 5.69851 16.8896 5.23608C16.7033 4.75775 16.4548 4.35199 16.0503 3.94775C15.6457 3.5432 15.2412 3.29472 14.7624 3.10911C14.2988 2.92926 13.77 2.80669 12.9958 2.77123C12.2201 2.73593 11.9731 2.72729 9.9974 2.72729H9.99968ZM9.34727 4.0379C9.5409 4.0376 9.75696 4.0379 9.99968 4.0379C11.9414 4.0379 12.1716 4.04487 12.9384 4.07972C13.6474 4.11214 14.0323 4.23063 14.2886 4.33017C14.628 4.46199 14.87 4.61957 15.1244 4.87411C15.3789 5.12866 15.5365 5.37108 15.6686 5.71048C15.7681 5.96654 15.8868 6.35139 15.919 7.06048C15.9539 7.82714 15.9615 8.05745 15.9615 9.99835C15.9615 11.9393 15.9539 12.1696 15.919 12.9362C15.8866 13.6453 15.7681 14.0302 15.6686 14.2862C15.5368 14.6256 15.3789 14.8673 15.1244 15.1217C14.8698 15.3762 14.6282 15.5338 14.2886 15.6656C14.0326 15.7656 13.6474 15.8838 12.9384 15.9162C12.1717 15.9511 11.9414 15.9587 9.99968 15.9587C8.05776 15.9587 7.82762 15.9511 7.06098 15.9162C6.35191 15.8835 5.96707 15.765 5.71056 15.6655C5.37118 15.5337 5.12876 15.3761 4.87422 15.1215C4.61969 14.867 4.46212 14.6252 4.33 14.2856C4.23046 14.0296 4.11182 13.6447 4.07955 12.9356C4.0447 12.169 4.03773 11.9387 4.03773 9.99654C4.03773 8.05442 4.0447 7.82533 4.07955 7.05866C4.11198 6.34957 4.23046 5.96472 4.33 5.70836C4.46181 5.36896 4.61969 5.12654 4.87422 4.87199C5.12876 4.61745 5.37118 4.45987 5.71056 4.32775C5.96692 4.22775 6.35191 4.10957 7.06098 4.07699C7.73187 4.04669 7.99186 4.0376 9.34727 4.03608V4.0379ZM13.8817 5.24548C13.3999 5.24548 13.009 5.63593 13.009 6.1179C13.009 6.59972 13.3999 6.99063 13.8817 6.99063C14.3635 6.99063 14.7544 6.59972 14.7544 6.1179C14.7544 5.63608 14.3635 5.24517 13.8817 5.24517V5.24548ZM9.99968 6.26517C7.93716 6.26517 6.26494 7.93745 6.26494 10C6.26494 12.0626 7.93716 13.7341 9.99968 13.7341C12.0622 13.7341 13.7338 12.0626 13.7338 10C13.7338 7.93745 12.062 6.26517 9.99952 6.26517H9.99968ZM9.99968 7.57578C11.3384 7.57578 12.4238 8.66108 12.4238 10C12.4238 11.3388 11.3384 12.4243 9.99968 12.4243C8.66078 12.4243 7.57551 11.3388 7.57551 10C7.57551 8.66108 8.66078 7.57578 9.99968 7.57578Z" fill="white"/>
</g>
<defs>
<radialGradient id="paint0_radial_378_295" cx="0" cy="0" r="1" gradientUnits="userSpaceOnUse" gradientTransform="translate(5.32424 21.5404) rotate(-90) scale(19.8215 18.4355)">
<stop stop-color="#FFDD55"/>
<stop offset="0.1" stop-color="#FFDD55"/>
<stop offset="0.5" stop-color="#FF543E"/>
<stop offset="1" stop-color="#C837AB"/>
</radialGradient>
<radialGradient id="paint1_radial_378_295" cx="0" cy="0" r="1" gradientUnits="userSpaceOnUse" gradientTransform="translate(-3.33839 1.44077) rotate(78.6806) scale(8.86028 36.5225)">
<stop stop-color="#3771C8"/>
<stop offset="0.128" stop-color="#3771C8"/>
<stop offset="1" stop-color="#6600FF" stop-opacity="0"/>
</radialGradient>
<clipPath id="clip0_378_295">
<rect width="20" height="20" fill="white"/>
</clipPath>
</defs>
</svg>
