<svg width="20" height="20" viewBox="0 0 20 20" fill="none" xmlns="http://www.w3.org/2000/svg">
<g clip-path="url(#clip0_513_1455)">
<path fill-rule="evenodd" clip-rule="evenodd" d="M8.10701 1.482C9.35391 1.20587 10.6461 1.20587 11.893 1.482C12.268 2.089 12.604 2.857 12.885 3.75H7.11501C7.39501 2.857 7.73201 2.09 8.10701 1.482ZM6.41401 2.045C5.48788 2.46365 4.64187 3.04063 3.91401 3.75H5.81001C5.97457 3.1693 6.17632 2.59979 6.41401 2.045ZM2.00601 3.991C0.70093 5.72217 -0.00340661 7.83202 1.23888e-05 10C1.23888e-05 15.522 4.47701 19.999 10 19.999C11.6269 20.0014 13.2296 19.6052 14.668 18.845L19.207 19.98C19.321 20.0085 19.4407 20.0049 19.5528 19.9697C19.6649 19.9345 19.7651 19.8691 19.8424 19.7805C19.9196 19.692 19.9709 19.5838 19.9906 19.468C20.0103 19.3521 19.9977 19.2331 19.954 19.124L18.447 15.354C19.5559 13.6092 20.0941 11.5625 19.987 9.498C20.0096 9.38917 20.0027 9.27627 19.967 9.171C19.544 4.037 15.243 4.05547e-06 10 4.05547e-06C8.44921 -0.00139353 6.91941 0.358451 5.53185 1.05102C4.14428 1.74358 2.93711 2.74983 2.00601 3.99V3.991ZM18.635 8.75C18.4412 7.4006 17.9321 6.11586 17.149 5H14.501C14.747 6.156 14.908 7.422 14.971 8.75H18.635ZM16.085 3.75C15.3572 3.04063 14.5111 2.46365 13.585 2.045C13.811 2.565 14.014 3.137 14.19 3.75H16.086H16.085ZM18.725 10H15C15 11.308 14.905 12.572 14.727 13.75H17.879C18.4372 12.5788 18.7259 11.2974 18.724 10H18.725ZM17.159 15H14.5C14.267 16.097 13.958 17.095 13.585 17.955C13.818 17.85 14.045 17.735 14.267 17.61C14.4092 17.5299 14.5767 17.5074 14.735 17.547L18.305 18.44L17.136 15.52C17.1026 15.4368 17.0871 15.3475 17.0906 15.2579C17.094 15.1683 17.1163 15.0804 17.156 15H17.159ZM11.894 18.518C12.434 17.644 12.894 16.438 13.222 15H6.78001C7.10801 16.437 7.56801 17.644 8.10801 18.517C9.35491 18.7931 10.6471 18.7931 11.894 18.517V18.518ZM6.41501 17.955C6.01366 17.0025 5.70718 16.0127 5.50001 15H2.85101C3.75217 16.2867 4.98282 17.3074 6.41401 17.955H6.41501ZM2.12201 13.75H5.27301C5.08899 12.5085 4.99774 11.255 5.00001 10H1.27701C1.27521 11.2974 1.56394 12.5788 2.12201 13.75ZM1.36601 8.75C1.55922 7.40078 2.06762 6.11607 2.85001 5H5.49801C5.24069 6.23532 5.08351 7.48939 5.02801 8.75H1.36601ZM13.462 13.75H6.53801C6.34344 12.5095 6.24714 11.2556 6.25001 10H13.75C13.75 11.333 13.647 12.597 13.462 13.75ZM6.78001 5C6.50589 6.23325 6.33926 7.48796 6.28201 8.75H13.72C13.6624 7.48793 13.4955 6.23322 13.221 5H6.78001Z" fill="#333333"/>
</g>
<defs>
<clipPath id="clip0_513_1455">
<rect width="20" height="20" fill="white"/>
</clipPath>
</defs>
</svg>
