<svg width="127" height="102" viewBox="0 0 127 102" fill="none" xmlns="http://www.w3.org/2000/svg">
<g clip-path="url(#clip0_73_48)">
<path d="M43.6989 102C42.2874 102.001 40.9073 101.58 39.7331 100.791C38.559 100.001 37.6436 98.8777 37.1029 97.5631C36.5621 96.2486 36.4203 94.8019 36.6953 93.4061C36.9704 92.0103 37.6499 90.7281 38.648 89.7218C39.646 88.7155 40.9177 88.0304 42.3021 87.753C43.6865 87.4757 45.1214 87.6187 46.4251 88.164C47.7289 88.7092 48.8429 89.6321 49.6263 90.816C50.4096 91.9998 50.827 93.3913 50.8257 94.8144C50.8221 96.719 50.0701 98.5446 48.7343 99.8914C47.3986 101.238 45.5879 101.996 43.6989 102ZM43.6989 91.0242C42.9551 91.0229 42.2276 91.2441 41.6086 91.6597C40.9895 92.0754 40.5067 92.6668 40.2211 93.3592C39.9356 94.0517 39.8601 94.8139 40.0044 95.5496C40.1487 96.2853 40.5062 96.9613 41.0316 97.492C41.5571 98.0227 42.2269 98.3844 42.9563 98.5312C43.6857 98.678 44.4418 98.6033 45.1291 98.3167C45.8164 98.03 46.4039 97.5442 46.8172 96.9208C47.2306 96.2973 47.4512 95.5643 47.4512 94.8144C47.4495 93.8109 47.0538 92.8489 46.3506 92.1387C45.6475 91.4285 44.6941 91.0278 43.6989 91.0242Z" fill="#F55E31"/>
<path d="M55.9331 75.8439L45.1787 89.0398L47.7859 91.1997L58.5402 78.0038L55.9331 75.8439Z" fill="#F55E31"/>
<path d="M105.559 56.6818C104.147 56.6831 102.767 56.2623 101.593 55.4725C100.419 54.6827 99.5036 53.5594 98.9629 52.2449C98.4221 50.9304 98.2803 49.4837 98.5553 48.0879C98.8304 46.6921 99.5099 45.4099 100.508 44.4036C101.506 43.3973 102.778 42.7122 104.162 42.4349C105.546 42.1576 106.981 42.3006 108.285 42.8458C109.589 43.391 110.703 44.3139 111.486 45.4977C112.27 46.6816 112.687 48.0731 112.686 49.4962C112.682 51.4008 111.93 53.2264 110.594 54.5732C109.259 55.92 107.448 56.6782 105.559 56.6818ZM105.559 45.7061C104.815 45.7047 104.088 45.9259 103.469 46.3415C102.85 46.7571 102.367 47.3486 102.081 48.0411C101.796 48.7335 101.72 49.4958 101.864 50.2314C102.009 50.9671 102.366 51.6431 102.892 52.1738C103.417 52.7046 104.087 53.0662 104.816 53.213C105.546 53.3598 106.302 53.2851 106.989 52.9985C107.676 52.7118 108.264 52.226 108.677 51.6026C109.091 50.9792 109.311 50.2461 109.311 49.4962C109.309 48.4927 108.914 47.5308 108.211 46.8206C107.508 46.1104 106.554 45.7097 105.559 45.7061Z" fill="#F55E31"/>
<path d="M100.042 49.8898L85.6921 54.2553L86.6669 57.5126L101.017 53.147L100.042 49.8898Z" fill="#F55E31"/>
<path d="M38.2525 39.7045C36.8416 39.7045 35.4624 39.2826 34.2893 38.4923C33.1162 37.702 32.2018 36.5787 31.6619 35.2645C31.122 33.9502 30.9807 32.5041 31.256 31.1089C31.5312 29.7137 32.2106 28.4321 33.2083 27.4263C34.2059 26.4204 35.477 25.7354 36.8608 25.4579C38.2445 25.1804 39.6788 25.3228 40.9823 25.8672C42.2858 26.4115 43.4 27.3334 44.1838 28.5162C44.9676 29.699 45.386 31.0895 45.386 32.5121C45.3842 34.419 44.6321 36.2474 43.2947 37.5959C41.9573 38.9443 40.1439 39.7027 38.2525 39.7045ZM38.2525 28.7287C37.5087 28.7287 36.7816 28.9512 36.1633 29.368C35.545 29.7848 35.0632 30.3771 34.7789 31.07C34.4945 31.763 34.4205 32.5254 34.5661 33.2608C34.7116 33.9962 35.0704 34.6715 35.5968 35.2013C36.1232 35.7311 36.7936 36.0915 37.5233 36.237C38.2529 36.3825 39.0089 36.3064 39.6957 36.0185C40.3825 35.7306 40.9691 35.2438 41.3813 34.6196C41.7936 33.9954 42.0129 33.262 42.0116 32.5121C42.008 31.5086 41.6106 30.5473 40.9062 29.8384C40.2018 29.1295 39.2477 28.7305 38.2525 28.7287Z" fill="#F55E31"/>
<path d="M42.8864 31.309L40.8617 34.0309L53.6467 43.6987L55.6714 40.9769L42.8864 31.309Z" fill="#F55E31"/>
<path d="M70.242 45.359C65.9235 45.3644 61.7834 47.097 58.7303 50.1765C55.6773 53.2561 53.9606 57.431 53.957 61.7852C53.957 76.4081 68.6291 87.2886 69.2567 87.7445L70.2286 88.425L71.2139 87.7445C71.8348 87.3022 86.5338 76.7552 86.5338 61.7716C86.5249 57.4191 84.8051 53.2477 81.7514 50.1713C78.6976 47.0949 74.5589 45.3644 70.242 45.359ZM70.242 84.213C67.0836 81.5932 57.318 72.6453 57.318 61.758C57.2787 60.0231 57.5836 58.2977 58.2149 56.6833C58.8462 55.0689 59.7911 53.5979 60.9942 52.3569C62.1973 51.1158 63.6342 50.1298 65.2205 49.4565C66.8069 48.7833 68.5108 48.4364 70.2319 48.4364C71.9531 48.4364 73.6569 48.7833 75.2433 49.4565C76.8297 50.1298 78.2666 51.1158 79.4696 52.3569C80.6727 53.5979 81.6176 55.0689 82.2489 56.6833C82.8802 58.2977 83.1852 60.0231 83.1458 61.758C83.1593 72.8902 73.4275 81.6545 70.2555 84.213H70.242Z" fill="#DFE3E8"/>
<path d="M83.1594 61.7852C83.1594 72.8902 73.4275 81.6544 70.2556 84.2402C67.0971 81.6204 57.3315 72.6725 57.3315 61.7852C57.2922 60.0503 57.5971 58.3249 58.2284 56.7105C58.8597 55.0961 59.8047 53.6251 61.0077 52.3841C62.2108 51.1431 63.6477 50.157 65.2341 49.4837C66.8205 48.8105 68.5243 48.4637 70.2454 48.4637C71.9666 48.4637 73.6704 48.8105 75.2568 49.4837C76.8432 50.157 78.2801 51.1431 79.4832 52.3841C80.6862 53.6251 81.6312 55.0961 82.2625 56.7105C82.8938 58.3249 83.1987 60.0503 83.1594 61.7852Z" fill="#DFE3E8"/>
<path d="M68.3188 90.4187L67.3469 89.7383C66.5843 89.1871 48.6729 75.9114 48.6729 58.1175C48.6729 52.8605 50.7441 47.8188 54.431 44.1015C58.1178 40.3843 63.1183 38.2959 68.3323 38.2959C73.5463 38.2959 78.5467 40.3843 82.2336 44.1015C85.9204 47.8188 87.9917 52.8605 87.9917 58.1175C87.9917 76.3469 70.0667 89.2143 69.3041 89.7586L68.3188 90.4187ZM68.3188 41.6642C64.0014 41.6696 59.8623 43.4012 56.8095 46.4793C53.7566 49.5573 52.0391 53.7305 52.0338 58.0835C52.0338 71.9104 64.6811 83.2059 68.3323 86.1863C71.9902 83.2739 84.6038 72.2166 84.6038 58.0835C84.6002 53.7323 82.8852 49.5602 79.8348 46.4821C76.7845 43.404 72.6479 41.6714 68.3323 41.6642H68.3188Z" fill="#24B0FF"/>
<path d="M68.3323 45.8898C66.4482 45.8938 64.6076 46.4605 63.0426 47.5182C61.4777 48.576 60.2585 50.0774 59.5391 51.833C58.8196 53.5887 58.6321 55.5198 59.0001 57.3828C59.3682 59.2458 60.2754 60.9572 61.6071 62.3009C62.9389 63.6446 64.6356 64.5604 66.4831 64.9328C68.3306 65.3052 70.2461 65.1175 71.9879 64.3934C73.7296 63.6692 75.2196 62.4411 76.2698 60.864C77.32 59.2869 77.8833 57.4314 77.8887 55.5318C77.8904 54.2657 77.6445 53.0116 77.165 51.8414C76.6854 50.6713 75.9817 49.6079 75.094 48.7123C74.2064 47.8167 73.1522 47.1064 71.992 46.622C70.8317 46.1377 69.5881 45.8889 68.3323 45.8898ZM68.3323 61.7172C67.1133 61.7131 65.923 61.3446 64.9118 60.6583C63.9006 59.972 63.114 58.9987 62.6515 57.8616C62.1891 56.7244 62.0715 55.4746 62.3138 54.2701C62.556 53.0656 63.1471 51.9606 64.0123 51.0949C64.8776 50.2292 65.978 49.6417 67.1745 49.4067C68.371 49.1717 69.6097 49.2998 70.7339 49.7748C71.8581 50.2498 72.8174 51.0503 73.4903 52.0751C74.1632 53.0998 74.5196 54.3028 74.5142 55.5318C74.5035 57.1772 73.8473 58.7514 72.6889 59.9104C71.5305 61.0694 69.9642 61.719 68.3323 61.7172Z" fill="#24B0FF"/>
<path d="M68.3321 61.7171C71.7351 61.7171 74.4938 58.9357 74.4938 55.5046C74.4938 52.0735 71.7351 49.2921 68.3321 49.2921C64.9291 49.2921 62.1704 52.0735 62.1704 55.5046C62.1704 58.9357 64.9291 61.7171 68.3321 61.7171Z" fill="white"/>
<path d="M116.924 99.4891C114.929 99.4905 112.979 98.8954 111.32 97.7792C109.661 96.6629 108.368 95.0757 107.604 93.2182C106.84 91.3607 106.639 89.3165 107.027 87.344C107.416 85.3716 108.375 83.5595 109.785 82.1371C111.195 80.7147 112.992 79.7458 114.948 79.353C116.904 78.9602 118.931 79.1611 120.774 79.9303C122.617 80.6996 124.192 82.0026 125.3 83.6745C126.408 85.3465 127 87.3122 127 89.3231C126.989 92.0148 125.924 94.5933 124.037 96.4973C122.15 98.4013 119.594 99.4766 116.924 99.4891ZM116.924 82.5594C115.597 82.5581 114.299 82.9536 113.195 83.696C112.091 84.4384 111.23 85.4943 110.721 86.7301C110.213 87.9658 110.079 89.326 110.337 90.6385C110.595 91.951 111.233 93.1568 112.171 94.1034C113.109 95.05 114.304 95.6949 115.606 95.9564C116.907 96.2179 118.257 96.0844 119.483 95.5726C120.709 95.0609 121.757 94.194 122.494 93.0816C123.232 91.9691 123.626 90.6612 123.626 89.3231C123.615 87.5338 122.906 85.8206 121.651 84.5547C120.397 83.2887 118.699 82.5719 116.924 82.5594Z" fill="#24B0FF"/>
<path d="M10.0761 88.0711C8.08191 88.0711 6.1325 87.4749 4.47439 86.3579C2.81629 85.2408 1.52393 83.6531 0.760791 81.7955C-0.00235172 79.9379 -0.202016 77.8939 0.187031 75.9219C0.576078 73.9499 1.53636 72.1384 2.94647 70.7167C4.35657 69.295 6.15316 68.3268 8.10903 67.9345C10.0649 67.5423 12.0922 67.7436 13.9346 68.513C15.777 69.2824 17.3517 70.5855 18.4596 72.2572C19.5675 73.929 20.1589 75.8945 20.1589 77.9052C20.1482 80.598 19.0825 83.1775 17.1939 85.0817C15.3053 86.9859 12.7469 88.0604 10.0761 88.0711ZM10.0761 71.1415C8.74931 71.1415 7.4523 71.5381 6.34911 72.2813C5.24593 73.0245 4.38609 74.0809 3.87835 75.3168C3.37061 76.5527 3.23778 77.9127 3.49662 79.2247C3.75547 80.5367 4.39436 81.7419 5.33254 82.6878C6.27072 83.6337 7.46606 84.2779 8.76736 84.5389C10.0687 84.7999 11.4175 84.6659 12.6433 84.154C13.869 83.6421 14.9168 82.7751 15.6539 81.6629C16.391 80.5506 16.7845 79.2429 16.7845 77.9052C16.7738 76.1146 16.0637 74.4005 14.8079 73.1343C13.5521 71.8682 11.852 71.1522 10.0761 71.1415Z" fill="#24B0FF"/>
<path d="M108.528 20.3253C106.534 20.3253 104.584 19.7289 102.926 18.6115C101.268 17.4942 99.9754 15.9061 99.2124 14.0481C98.4495 12.1901 98.2502 10.1457 98.6398 8.17353C99.0294 6.20134 99.9903 4.38993 101.401 2.96846C102.812 1.54699 104.609 0.579323 106.565 0.187836C108.522 -0.203652 110.549 -0.00132885 112.392 0.769153C114.234 1.53964 115.808 2.84366 116.915 4.51634C118.022 6.18902 118.612 8.1552 118.611 10.1661C118.599 12.8578 117.532 15.4356 115.644 17.3383C113.755 19.241 111.198 20.3146 108.528 20.3253ZM108.528 3.40242C107.202 3.40242 105.905 3.79909 104.801 4.5423C103.698 5.2855 102.838 6.34185 102.331 7.57776C101.823 8.81367 101.69 10.1736 101.949 11.4857C102.208 12.7977 102.847 14.0029 103.785 14.9488C104.723 15.8947 105.918 16.5389 107.22 16.7999C108.521 17.0608 109.87 16.9269 111.096 16.415C112.321 15.903 113.369 15.0361 114.106 13.9238C114.843 12.8115 115.237 11.5039 115.237 10.1661C115.226 8.37559 114.516 6.6614 113.26 5.39527C112.004 4.12915 110.304 3.41313 108.528 3.40242Z" fill="#24B0FF"/>
<path d="M83.1676 70.9612L81.5652 73.9555L84.2379 75.4095L85.8403 72.4153L83.1676 70.9612Z" fill="#24B0FF"/>
<path d="M101.172 84.6349L96.9338 82.3281L98.5401 79.3341L102.772 81.6408L101.172 84.6349ZM92.7361 80.0282L88.5045 77.7214L90.104 74.7274L94.3355 77.0342L92.7361 80.0282Z" fill="#24B0FF"/>
<path d="M107.004 83.9234L105.401 86.9173L108.073 88.3718L109.676 85.3779L107.004 83.9234Z" fill="#24B0FF"/>
<path d="M18.8091 77.9188L17.8237 74.6594L23.6345 72.8766L24.6198 76.1292L18.8091 77.9188ZM30.4306 74.3464L29.4452 71.0938L35.256 69.311L36.2414 72.5636L30.4306 74.3464ZM42.0521 70.7808L41.0668 67.5214L46.8776 65.7386L47.8629 68.998L42.0521 70.7808Z" fill="#24B0FF"/>
<path d="M79.9133 44.4336L77.4297 42.1337L81.533 37.6223L84.0233 39.9222L79.9133 44.4336ZM88.1266 35.4108L85.643 33.1109L89.7464 28.5927L92.2367 30.8926L88.1266 35.4108ZM96.34 26.3812L93.8564 24.0813L97.9597 19.5699L100.443 21.8698L96.34 26.3812Z" fill="#24B0FF"/>
</g>
<defs>
<clipPath id="clip0_73_48">
<rect width="127" height="102" fill="white"/>
</clipPath>
</defs>
</svg>
