<svg width="114" height="89" viewBox="0 0 114 89" fill="none" xmlns="http://www.w3.org/2000/svg">
<path d="M31.2838 10.2621C25.0202 10.2699 19.0154 12.7872 14.5873 17.2615C10.1591 21.7358 7.66924 27.8017 7.66406 34.128C7.66406 55.374 28.9444 71.1825 29.8547 71.8449L31.2643 72.8336L32.6934 71.8449C33.5939 71.2023 54.9134 55.8782 54.9134 34.1082C54.9004 27.7844 52.4061 21.7237 47.977 17.2539C43.5478 12.7842 37.545 10.2699 31.2838 10.2621ZM31.2838 66.7138C26.7028 62.9075 12.5388 49.9068 12.5388 34.0885C12.4817 31.5678 12.924 29.061 13.8397 26.7153C14.7553 24.3697 16.1258 22.2325 17.8708 20.4294C19.6157 18.6263 21.6998 17.1936 24.0007 16.2154C26.3015 15.2372 28.7728 14.7333 31.2692 14.7333C33.7656 14.7333 36.2368 15.2372 38.5376 16.2154C40.8385 17.1936 42.9226 18.6263 44.6676 20.4294C46.4125 22.2325 47.783 24.3697 48.6986 26.7153C49.6143 29.061 50.0566 31.5678 49.9995 34.0885C50.0191 50.2628 35.904 62.9965 31.3034 66.7138H31.2838Z" fill="#DFE3E8"/>
<path d="M50.0194 34.1279C50.0194 50.2626 35.9043 62.9964 31.3037 66.7532C26.7227 62.9469 12.5586 49.9462 12.5586 34.1279C12.5015 31.6072 12.9438 29.1004 13.8595 26.7547C14.7751 24.4091 16.1457 22.272 17.8906 20.4688C19.6356 18.6657 21.7197 17.2329 24.0205 16.2548C26.3214 15.2766 28.7926 14.7727 31.289 14.7727C33.7854 14.7727 36.2566 15.2766 38.5575 16.2548C40.8583 17.2329 42.9424 18.6657 44.6874 20.4688C46.4323 22.272 47.8029 24.4091 48.7185 26.7547C49.6342 29.1004 50.0764 31.6072 50.0194 34.1279Z" fill="#DFE3E8"/>
<path d="M28.4944 75.7304L27.0849 74.7417C25.9788 73.9409 0 54.6524 0 28.7993C0 21.1612 3.00415 13.836 8.35157 8.43512C13.699 3.0342 20.9516 0 28.514 0C36.0764 0 43.3291 3.0342 48.6765 8.43512C54.0239 13.836 57.028 21.1612 57.028 28.7993C57.028 55.2851 31.0297 73.9804 29.9236 74.7714L28.4944 75.7304ZM28.4944 4.89381C22.2325 4.90166 16.2292 7.41759 11.8013 11.8898C7.37346 16.3619 4.88245 22.4253 4.87468 28.7499C4.87468 48.8392 23.2184 65.2507 28.514 69.581C33.8194 65.3495 52.1142 49.284 52.1142 28.7499C52.109 22.4279 49.6215 16.366 45.1973 11.8939C40.7731 7.42169 34.7734 4.90428 28.514 4.89381H28.4944Z" fill="#3B89FF"/>
<path d="M28.5142 11.0332C25.7816 11.0391 23.1119 11.8623 20.8421 13.3992C18.5723 14.936 16.8041 17.1174 15.7606 19.6682C14.7171 22.2191 14.4451 25.0249 14.9789 27.7317C15.5127 30.4385 16.8285 32.925 18.7601 34.8772C20.6916 36.8295 23.1525 38.1602 25.8321 38.7013C28.5117 39.2423 31.29 38.9696 33.8163 37.9175C36.3426 36.8653 38.5036 35.081 40.0268 32.7895C41.55 30.4981 42.3671 27.8023 42.3748 25.0423C42.3774 23.2027 42.0207 21.3807 41.3251 19.6805C40.6296 17.9803 39.6089 16.4353 38.3215 15.1341C37.034 13.8328 35.5051 12.8008 33.8222 12.0971C32.1394 11.3934 30.3356 11.0319 28.5142 11.0332ZM28.5142 34.0291C26.7463 34.0233 25.0198 33.4879 23.5531 32.4907C22.0865 31.4936 20.9456 30.0794 20.2749 28.4273C19.6041 26.7751 19.4336 24.9592 19.785 23.2091C20.1363 21.4591 20.9937 19.8536 22.2486 18.5958C23.5035 17.338 25.0997 16.4844 26.835 16.143C28.5704 15.8016 30.3669 15.9877 31.9975 16.6778C33.6281 17.3679 35.0195 18.531 35.9955 20.0199C36.9714 21.5088 37.4883 23.2567 37.4805 25.0423C37.465 27.4329 36.5132 29.7201 34.8331 31.4041C33.153 33.088 30.8812 34.0318 28.5142 34.0291Z" fill="#3B89FF"/>
<path d="M28.5141 34.029C33.4498 34.029 37.451 29.9878 37.451 25.0027C37.451 20.0175 33.4498 15.9763 28.5141 15.9763C23.5784 15.9763 19.5771 20.0175 19.5771 25.0027C19.5771 29.9878 23.5784 34.029 28.5141 34.029Z" fill="white"/>
<path d="M50.0315 47.4594L47.707 51.8104L51.5838 53.9231L53.9082 49.5721L50.0315 47.4594Z" fill="#3B89FF"/>
<path d="M76.1451 67.3267L69.9979 63.9752L72.3275 59.6251L78.465 62.9766L76.1451 67.3267ZM63.9094 60.6335L57.772 57.282L60.0919 52.932L66.2293 56.2835L63.9094 60.6335Z" fill="#3B89FF"/>
<path d="M84.604 66.2923L82.2788 70.6429L86.1552 72.7563L88.4804 68.4057L84.604 66.2923Z" fill="#3B89FF"/>
<path d="M98.9913 88.9088C96.0986 88.9107 93.2701 88.0462 90.8639 86.4244C88.4577 84.8026 86.5818 82.4964 85.4734 79.7977C84.3651 77.0989 84.0741 74.1287 84.6372 71.2629C85.2004 68.3971 86.5924 65.7644 88.6373 63.6977C90.6821 61.631 93.2879 60.2233 96.1249 59.6526C98.962 59.0819 101.903 59.3738 104.576 60.4914C107.248 61.6091 109.533 63.5022 111.14 65.9314C112.748 68.3606 113.606 71.2167 113.606 74.1384C113.59 78.0492 112.046 81.7956 109.309 84.5619C106.572 87.3282 102.863 88.8906 98.9913 88.9088ZM98.9913 64.3112C97.0665 64.3093 95.1844 64.884 93.583 65.9626C91.9817 67.0413 90.7331 68.5754 89.9952 70.3709C89.2573 72.1664 89.0631 74.1426 89.4375 76.0496C89.8118 77.9565 90.7377 79.7084 92.0981 81.0838C93.4584 82.4591 95.1921 83.396 97.0798 83.776C98.9674 84.156 100.924 83.962 102.703 83.2185C104.481 82.4749 106.001 81.2154 107.071 79.5991C108.14 77.9828 108.711 76.0824 108.711 74.1384C108.696 71.5386 107.667 69.0495 105.848 67.2102C104.029 65.3709 101.565 64.3294 98.9913 64.3112Z" fill="#F55E31"/>
</svg>
