<svg width="128" height="94" viewBox="0 0 128 94" fill="none" xmlns="http://www.w3.org/2000/svg">
<g clip-path="url(#clip0_606_5953)">
<path d="M45.0209 34.26H15.6339C13.0409 34.26 10.939 36.349 10.939 38.9258V53.6759C10.939 56.2527 13.0409 58.3416 15.6339 58.3416H45.0209C47.6138 58.3416 49.7158 56.2527 49.7158 53.6759V38.9258C49.7158 36.349 47.6138 34.26 45.0209 34.26Z" fill="#DFE3E8"/>
<path d="M55.4389 94C55.3287 94.0099 55.2177 94.0099 55.1074 94C54.8874 93.9597 54.6776 93.8764 54.4902 93.7549C54.3028 93.6335 54.1415 93.4763 54.0157 93.2924C53.8898 93.1086 53.8019 92.9018 53.7571 92.6839C53.7123 92.4661 53.7113 92.2416 53.7544 92.0234L72.0198 1.38489C72.1021 0.948824 72.3545 0.562765 72.722 0.310883C73.0895 0.0590021 73.5423 -0.0382682 73.9817 0.0403085L103.403 5.41865C103.626 5.45947 103.84 5.54459 104.03 5.66891C104.22 5.79323 104.383 5.95423 104.509 6.14236C104.635 6.33049 104.722 6.54191 104.764 6.76406C104.807 6.98621 104.804 7.21455 104.756 7.43553L98.4168 36.8282C98.3239 37.2584 98.0651 37.6352 97.6957 37.8778C97.3264 38.1204 96.876 38.2094 96.4414 38.1257L69.165 32.8953L57.1302 92.6487C57.0525 93.0352 56.8405 93.3824 56.5314 93.6294C56.2222 93.8765 55.8355 94.0076 55.4389 94ZM69.801 29.601L95.4673 34.4953L101.096 8.40363L75.0303 3.6371L69.801 29.601Z" fill="#24B0FF"/>
<path d="M119.611 49.6287C119.503 49.6386 119.395 49.6386 119.287 49.6287L83.7436 42.6099C83.3067 42.5297 82.9194 42.2813 82.666 41.9186C82.4126 41.556 82.3136 41.1085 82.3906 40.6737L83.5677 33.9978C83.6457 33.5583 83.8963 33.1676 84.2642 32.9117C84.6321 32.6557 85.0873 32.5555 85.5295 32.6331C85.9718 32.7107 86.365 32.9596 86.6225 33.3253C86.88 33.6909 86.9809 34.1432 86.9028 34.5827L86.0099 39.6384L117.508 45.8571L115.113 32.2499C115.038 31.8161 115.135 31.3703 115.383 31.0061L123.427 19.4091L102.104 15.3753C101.885 15.3338 101.677 15.25 101.491 15.1285C101.305 15.0071 101.145 14.8504 101.02 14.6675C100.895 14.4846 100.808 14.279 100.762 14.0625C100.717 13.8459 100.716 13.6227 100.758 13.4055C100.799 13.1883 100.884 12.9814 101.006 12.7967C101.128 12.6119 101.286 12.4529 101.47 12.3286C101.654 12.2044 101.861 12.1174 102.079 12.0726C102.296 12.0278 102.521 12.0262 102.74 12.0677L126.606 16.5989C126.883 16.6499 127.143 16.7691 127.361 16.9455C127.58 17.1219 127.75 17.3499 127.857 17.6087C127.964 17.8674 128.004 18.1488 127.974 18.4269C127.943 18.705 127.843 18.971 127.682 19.2007L118.549 32.3171L121.255 47.6588C121.298 47.9008 121.287 48.1491 121.222 48.3862C121.158 48.6233 121.042 48.8435 120.882 49.0312C120.723 49.219 120.524 49.3698 120.3 49.473C120.076 49.5762 119.832 49.6294 119.584 49.6287H119.611Z" fill="#24B0FF"/>
<path d="M49.9728 26.1925H6.16288C4.52893 26.1943 2.9624 26.8402 1.80702 27.9884C0.651642 29.1366 0.00179063 30.6933 0 32.3171V57.4071C0.0017929 59.0303 0.651861 60.5864 1.80743 61.7335C2.963 62.8806 4.52955 63.5249 6.16288 63.5249H33.3445L28.927 60.3517C28.8213 60.2735 28.7052 60.2102 28.582 60.1635H6.16288C5.42664 60.1635 4.72048 59.8733 4.19924 59.3566C3.67801 58.8398 3.38428 58.1388 3.38248 57.4071V32.3171C3.38248 31.9543 3.45441 31.595 3.59414 31.2597C3.73387 30.9245 3.93867 30.6199 4.19685 30.3633C4.45503 30.1067 4.76154 29.9032 5.09887 29.7643C5.43621 29.6255 5.79775 29.554 6.16288 29.554H49.9728C50.7102 29.554 51.4174 29.8451 51.9389 30.3633C52.4603 30.8815 52.7532 31.5843 52.7532 32.3171V57.4071C52.7514 58.1388 52.4577 58.8398 51.9365 59.3566C51.4152 59.8733 50.7091 60.1635 49.9728 60.1635H41.5234C41.2008 60.2917 40.9264 60.5167 40.7385 60.807C40.5506 61.0974 40.4584 61.4388 40.4748 61.7837L40.5492 63.5249H49.9728C51.6056 63.5232 53.1711 62.8783 54.3263 61.7315C55.4815 60.5848 56.1321 59.0297 56.1357 57.4071V32.3171C56.1339 30.6933 55.4841 29.1366 54.3287 27.9884C53.1733 26.8402 51.6068 26.1943 49.9728 26.1925Z" fill="#24B0FF"/>
<path d="M44.2902 72.1639C44.3004 72.4795 44.2224 72.7917 44.0648 73.0659C43.9071 73.34 43.676 73.5654 43.3973 73.7169C43.1163 73.8631 42.8001 73.9292 42.4837 73.9079C42.1673 73.8865 41.863 73.7785 41.6046 73.5959L27.5605 63.5115L26.9449 63.0678C26.5812 62.8053 26.3371 62.4102 26.2661 61.9691C26.1951 61.528 26.303 61.0769 26.5661 60.7148C26.743 60.4623 26.9897 60.2662 27.2764 60.1501H28.5752C28.6984 60.1967 28.8145 60.2601 28.9203 60.3383L33.3378 63.5115L40.7792 68.8361L40.5627 63.5115L40.4883 61.7703C40.4719 61.4254 40.5641 61.084 40.7521 60.7936C40.94 60.5032 41.2143 60.2783 41.5369 60.1501H42.7817C43.0817 60.2713 43.3402 60.4759 43.5261 60.7395C43.7121 61.003 43.8177 61.3142 43.8302 61.6358L43.9114 63.5115L44.2902 72.1639Z" fill="#24B0FF"/>
<path d="M27.6755 11.4088C23.6043 11.4141 19.7015 13.0237 16.8227 15.8845C13.944 18.7454 12.3243 22.624 12.319 26.6699C12.319 40.546 26.0857 50.8724 26.6675 51.2959C26.9584 51.5127 27.3118 51.6306 27.6755 51.6321C28.0363 51.633 28.3877 51.5174 28.6767 51.3027C29.2585 50.8791 43.0319 40.7275 43.0319 26.6699C43.0266 22.624 41.407 18.7454 38.5282 15.8845C35.6495 13.0237 31.7466 11.4141 27.6755 11.4088ZM27.6755 47.7933C24.6312 45.2251 15.6947 36.8215 15.6947 26.6699C15.6947 23.5139 16.9563 20.4872 19.2018 18.2556C21.4474 16.024 24.493 14.7703 27.6687 14.7703C30.8444 14.7703 33.89 16.024 36.1356 18.2556C38.3812 20.4872 39.6427 23.5139 39.6427 26.6699C39.6495 36.9492 30.7332 45.252 27.6822 47.7933H27.6755Z" fill="#F55E31"/>
<path d="M27.6755 14.7703C24.5009 14.7738 21.4573 16.0287 19.2125 18.2595C16.9678 20.4904 15.7051 23.515 15.7015 26.6699C15.7015 36.8215 24.638 45.2251 27.6823 47.7933C30.7333 45.252 39.6495 36.9492 39.6495 26.6699C39.6459 23.515 38.3832 20.4904 36.1384 18.2595C33.8936 16.0287 30.8501 14.7738 27.6755 14.7703ZM28.0679 35.0265C26.4288 35.0265 24.8266 34.5434 23.4638 33.6385C22.101 32.7336 21.0388 31.4474 20.4116 29.9425C19.7844 28.4376 19.6202 26.7817 19.94 25.1842C20.2597 23.5866 21.049 22.1192 22.208 20.9674C23.367 19.8157 24.8436 19.0313 26.4511 18.7135C28.0587 18.3957 29.7249 18.5588 31.2392 19.1822C32.7535 19.8055 34.0477 20.8611 34.9583 22.2154C35.8689 23.5698 36.3549 25.162 36.3549 26.7909C36.3532 28.9745 35.4795 31.0683 33.9257 32.6123C32.372 34.1564 30.2652 35.0247 28.0679 35.0265Z" fill="white"/>
<path d="M28.0678 18.5418C26.4285 18.5418 24.826 19.025 23.4631 19.9302C22.1001 20.8355 21.0379 22.1221 20.4109 23.6274C19.7839 25.1326 19.6202 26.7889 19.9405 28.3866C20.2608 29.9843 21.0507 31.4517 22.2104 32.6032C23.37 33.7547 24.8473 34.5386 26.4553 34.8556C28.0632 35.1726 29.7297 35.0085 31.2439 34.3842C32.758 33.7598 34.0518 32.7032 34.9616 31.348C35.8714 29.9928 36.3563 28.3998 36.3549 26.7707C36.3513 24.5882 35.4769 22.4962 33.9233 20.9536C32.3698 19.411 30.264 18.5436 28.0678 18.5418ZM28.0678 31.6448C27.0978 31.6448 26.1495 31.3589 25.343 30.8234C24.5364 30.2878 23.9078 29.5266 23.5366 28.636C23.1654 27.7453 23.0682 26.7653 23.2575 25.8198C23.4467 24.8743 23.9138 24.0058 24.5998 23.3242C25.2857 22.6425 26.1596 22.1783 27.111 21.9903C28.0624 21.8022 29.0486 21.8987 29.9448 22.2676C30.841 22.6365 31.6069 23.2612 32.1459 24.0628C32.6848 24.8643 32.9724 25.8067 32.9724 26.7707C32.9742 27.4122 32.8487 28.0478 32.6031 28.6411C32.3575 29.2344 31.9966 29.7737 31.5411 30.2283C31.0856 30.6829 30.5444 31.0437 29.9484 31.2903C29.3524 31.5368 28.7134 31.6641 28.0678 31.665V31.6448Z" fill="#F55E31"/>
<path d="M32.9725 26.7909C32.9738 27.7552 32.6873 28.6982 32.1492 29.5006C31.6111 30.303 30.8455 30.9288 29.9494 31.2988C29.0534 31.6687 28.067 31.7662 27.1152 31.5789C26.1633 31.3916 25.2888 30.9279 24.6022 30.2465C23.9156 29.5651 23.4478 28.6966 23.258 27.7509C23.0682 26.8053 23.1649 25.8249 23.5359 24.9339C23.907 24.0429 24.5356 23.2813 25.3423 22.7454C26.149 22.2095 27.0975 21.9235 28.0679 21.9235C29.3669 21.9253 30.6124 22.4384 31.5316 23.3506C32.4508 24.2629 32.9689 25.4999 32.9725 26.7909Z" fill="white"/>
</g>
<defs>
<clipPath id="clip0_606_5953">
<rect width="128" height="94" fill="white"/>
</clipPath>
</defs>
</svg>
