<svg width="81" height="100" viewBox="0 0 81 100" fill="none" xmlns="http://www.w3.org/2000/svg">
<g clip-path="url(#clip0_426_1309)">
<path d="M70.7552 52.1044H40.5127V57.6939H70.7552V52.1044Z" fill="black"/>
<path d="M70.7552 63.7355H40.5127V69.325H70.7552V63.7355Z" fill="black"/>
<path d="M70.7552 63.7355H40.5127V69.325H70.7552V63.7355Z" fill="black"/>
<path d="M70.7552 52.1044H40.5127V57.6939H70.7552V52.1044Z" fill="black"/>
<path d="M40.5105 52.1044V57.6939H55.633H70.7555V52.1044H40.5105ZM40.5105 63.7355V69.325H70.7555V63.7355H40.5105ZM40.5105 69.325H70.7555V63.7355H40.5105V69.325ZM40.5105 52.1044V57.6939H55.633H70.7555V52.1044H40.5105ZM80.4425 48.8884V48.8484C80.2445 42.7025 75.3163 37.5967 68.9787 36.9687C67.9592 36.8681 66.4583 36.9408 64.5566 37.033C58.6929 37.3178 48.8797 37.7942 45.2284 33.1091L45.0972 32.9612C44.8555 32.7187 44.625 32.4718 44.4056 32.2205C43.7524 31.4643 43.1894 30.6375 42.7278 29.7561C42.5954 29.5052 42.4729 29.2518 42.3566 28.9948L38.9119 28.7463C39.1882 29.577 39.5325 30.3845 39.9413 31.161C40.0774 31.4213 40.221 31.6774 40.3719 31.9296C41.0485 33.0632 41.8642 34.1115 42.8008 35.051C47.4865 40.9351 58.2673 40.4126 64.7125 40.0999C66.4113 40.0174 67.88 39.9459 68.6657 40.0235C73.4454 40.4963 77.1636 44.3305 77.3108 48.9296V48.9575C77.3108 49.0472 77.3108 49.1357 77.3108 49.2254V49.2605V49.3078V90.786C77.3092 92.4149 76.648 93.9768 75.4724 95.1287C74.2968 96.2807 72.7028 96.9287 71.0401 96.9307H41.0141C39.3513 96.9287 37.7571 96.2807 36.5813 95.1288C35.4055 93.9769 34.7441 92.4151 34.7421 90.786C34.7421 90.2635 34.7198 42.1012 34.6765 31.5186C34.6765 30.7465 34.6703 30.1731 34.6666 29.8349C34.6666 29.7549 34.6592 29.2397 34.6666 28.4396L31.535 28.2141C31.5201 29.0736 31.5263 29.6688 31.5288 29.8797C31.5288 30.1767 31.535 30.6543 31.5375 31.292C31.5808 41.2781 31.6043 90.2623 31.6043 90.786C31.6075 93.2284 32.5993 95.5698 34.3621 97.2969C36.125 99.0239 38.5149 99.9956 41.0079 99.9988H71.0488C73.5418 99.9956 75.9317 99.0239 77.6945 97.2969C79.4573 95.5698 80.4491 93.2284 80.4524 90.786V49.3514C80.4524 49.2993 80.4524 49.2436 80.4524 49.1902C80.4499 49.0896 80.4474 48.989 80.445 48.8884H80.4425ZM79.955 19.3953C78.9707 14.6068 76.5347 10.2207 72.9654 6.81017C64.6964 -1.12131 51.6835 -2.25958 42.0324 4.10452C38.0816 6.70956 35.195 10.4335 33.4429 15.1865C33.3291 15.492 33.2214 15.8011 33.1175 16.1151C32.8746 16.8659 32.6718 17.6286 32.51 18.4001L35.8272 17.9795C35.9097 17.6611 36.0005 17.3536 36.0995 17.057C36.358 16.2681 36.6591 15.4932 37.0015 14.7356C38.5432 11.3184 40.8173 8.60545 43.782 6.65137C46.7198 4.71107 50.1015 3.51211 53.6264 3.16111C57.1513 2.81011 60.71 3.31794 63.9863 4.63946C67.2625 5.96097 70.1546 8.0552 72.4054 10.7359C74.6562 13.4166 76.1959 16.6007 76.8877 20.0051C77.1768 21.4048 77.3219 22.8294 77.3207 24.2575V25.4697C77.3207 26.5971 76.4348 27.5535 75.341 27.6044C75.0578 27.6196 74.7745 27.5777 74.5085 27.4814C74.2425 27.385 73.9994 27.2363 73.7944 27.0444C73.5947 26.8609 73.4356 26.6394 73.3266 26.3934C73.2177 26.1474 73.1613 25.8821 73.1609 25.614C73.1609 25.563 73.1609 25.5097 73.1609 25.4552C73.1992 24.9909 73.2166 24.5218 73.2104 24.0587C73.2104 23.8757 73.2017 23.695 73.1943 23.5193C73.1574 22.6455 73.0519 21.7758 72.8788 20.9179C72.2261 17.6642 70.6339 14.6624 68.2915 12.2689C65.949 9.87544 62.9546 8.19092 59.6638 7.41537C56.3731 6.63982 52.9243 6.80584 49.727 7.8937C46.5297 8.98157 43.7183 10.9456 41.6266 13.5525C41.4546 13.7683 41.2863 13.9889 41.1316 14.2119C40.9869 14.4107 40.847 14.6132 40.7147 14.818C40.1498 15.6803 39.6696 16.5932 39.2806 17.5443L42.9851 17.0727C43.1023 16.8707 43.226 16.6707 43.3563 16.4727C43.584 16.1248 43.8339 15.7805 44.0987 15.4508C44.6315 14.7871 45.2241 14.1717 45.8693 13.6119C48.7136 11.1421 52.4276 9.85427 56.2244 10.0213C62.8206 10.3171 68.5358 15.149 69.8127 21.5131C69.9548 22.2191 70.0412 22.9348 70.0713 23.6538C70.0787 23.8041 70.0824 23.9544 70.0849 24.0999C70.0849 24.4636 70.0762 24.8381 70.0453 25.2067C70.0342 25.3436 70.0305 25.4806 70.0305 25.614C70.0337 26.3024 70.1795 26.983 70.4589 27.6147C70.7383 28.2464 71.1456 28.816 71.6561 29.2891C72.1666 29.7622 72.7698 30.1289 73.4291 30.3671C74.0884 30.6053 74.7902 30.71 75.492 30.6749C78.2735 30.5477 80.4536 28.2626 80.4536 25.4746V24.2623C80.4546 22.6278 80.2883 20.9974 79.9575 19.3953H79.955ZM40.5105 69.325H70.7555V63.7355H40.5105V69.325ZM70.7555 52.1044H40.5105V57.6939H55.633H70.7555V52.1044Z" fill="#3B89FF"/>
<path d="M57.0792 15.5369C56.015 14.6207 54.7637 13.9371 53.4087 13.5319C52.0537 13.1266 50.6261 13.0088 49.221 13.1864L45.8666 13.6119L41.1339 14.218L37.005 14.7417L33.4464 15.1926L5.53004 18.725C4.17943 18.8949 2.94134 19.5501 2.05589 20.5636C1.17044 21.5771 0.700743 22.8766 0.737886 24.2102C0.775029 25.5438 1.31637 26.8163 2.25691 27.781C3.19746 28.7457 4.47018 29.3338 5.82823 29.4312L31.5422 31.292L34.6763 31.5187L40.368 31.9308L44.4029 32.2229L49.7605 32.6109C50.0079 32.629 50.2554 32.6375 50.5029 32.6375C52.5286 32.6367 54.5061 32.0312 56.1718 30.9017C57.8374 29.7722 59.1123 28.1722 59.8265 26.315C60.5408 24.4578 60.6604 22.4315 60.1696 20.5059C59.6788 18.5804 58.6008 16.8471 57.0792 15.5369ZM50.5078 29.5682C50.3408 29.5682 50.17 29.5621 49.9968 29.5488L42.3576 28.996L38.9129 28.7475L34.6714 28.4396L31.5397 28.2142L6.05838 26.3704C5.47144 26.3317 4.92037 26.0798 4.51299 25.664C4.10562 25.2483 3.87126 24.6985 3.85579 24.1224C3.84031 23.5463 4.04483 22.9852 4.42932 22.549C4.81381 22.1128 5.3506 21.8329 5.93464 21.764L32.5172 18.3953L35.8345 17.9746L39.2866 17.537L42.9849 17.0728L49.6231 16.2315C49.914 16.1942 50.2071 16.1756 50.5004 16.1757C52.3131 16.1746 54.0521 16.879 55.3347 18.134C56.6173 19.389 57.3385 21.0918 57.3397 22.8677C57.3408 24.6437 56.6218 26.3473 55.3408 27.6039C54.0598 28.8605 52.3218 29.5671 50.5091 29.5682H50.5078Z" fill="#F55E31"/>
<path d="M65.1007 88.3858C63.8122 88.3861 62.5527 88.012 61.4812 87.3109C60.4098 86.6098 59.5746 85.6132 59.0813 84.447C58.588 83.2809 58.4588 81.9977 58.7099 80.7596C58.961 79.5215 59.5812 78.3842 60.4921 77.4914C61.403 76.5987 62.5637 75.9906 63.8273 75.7441C65.091 75.4976 66.4008 75.6238 67.5913 76.1066C68.7817 76.5894 69.7993 77.4073 70.5154 78.4567C71.2314 79.5061 71.6137 80.74 71.6139 82.0023C71.6123 83.6944 70.9256 85.3168 69.7046 86.5135C68.4835 87.7102 66.8278 88.3836 65.1007 88.3858ZM65.1007 78.6881C64.4322 78.6881 63.7788 78.8823 63.2229 79.2461C62.6671 79.6099 62.2338 80.127 61.9779 80.732C61.722 81.337 61.6549 82.0027 61.7851 82.6451C61.9153 83.2874 62.237 83.8776 62.7095 84.3408C63.182 84.8041 63.7841 85.1197 64.4397 85.2477C65.0953 85.3758 65.7749 85.3105 66.3926 85.0603C67.0103 84.81 67.5384 84.3859 67.9101 83.8416C68.2819 83.2973 68.4806 82.6572 68.481 82.0023C68.4797 81.1245 68.1231 80.283 67.4894 79.6624C66.8557 79.0418 65.9967 78.6927 65.1007 78.6918V78.6881Z" fill="#F55E31"/>
</g>
<defs>
<clipPath id="clip0_426_1309">
<rect width="79.7143" height="100" fill="white" transform="translate(0.739258)"/>
</clipPath>
</defs>
</svg>
