<svg width="192" height="45" viewBox="0 0 192 45" fill="none" xmlns="http://www.w3.org/2000/svg">
<path d="M0.180022 21.6165C4.97203 21.29 9.72545 21.363 14.4575 22.1749C9.70831 23.0641 4.91631 22.9911 0 22.6904C1.14014 23.6699 2.38743 24.2283 3.7033 24.6364C5.60639 25.2292 7.55234 25.0445 9.49828 24.9242C12.0614 24.761 14.6075 24.4302 17.1449 24.0221C18.2722 23.8417 19.3823 23.5668 20.4967 23.3004C20.9725 23.1887 21.1611 23.2575 21.0068 23.7815C20.5696 25.298 20.3124 26.853 20.0896 28.4038C19.5581 32.1154 18.958 35.8398 19.408 39.603C19.6138 41.3256 20.4325 42.8549 21.5726 44.2295C21.0154 39.3925 21.3797 34.5984 22.1041 29.8043C22.7642 34.5941 23.2014 39.3925 22.5713 44.2553C23.4371 43.3962 23.9 42.3265 24.3415 41.2354C25.173 39.1605 24.9887 36.9997 24.8558 34.8561C24.6715 31.8834 24.2172 28.9408 23.72 26.0111C23.6 25.298 23.3728 24.6063 23.2056 23.9018C23.0428 23.2231 23.1113 23.1672 23.81 23.3262C28.3448 24.3572 32.9311 24.95 37.5817 25.0402C40.0291 25.0875 42.1765 24.2154 44.2553 22.6603C41.6836 22.8494 39.279 22.9224 36.8659 22.8665C34.4784 22.8107 32.1081 22.6475 29.7679 22.162C34.5213 21.3458 39.2962 21.2943 44.2253 21.6981C42.7551 20.4996 41.1864 19.8423 39.4633 19.4857C37.2902 19.0347 35.1385 19.4814 32.9782 19.5974C29.8364 19.7693 26.7589 20.4007 23.69 21.0494C23.1414 21.1654 23.0428 20.985 23.1756 20.5468C23.6943 18.8199 23.9686 17.0414 24.2172 15.263C24.6715 12.0153 25.1602 8.75484 24.903 5.46855C24.7487 3.48389 23.9429 1.67107 22.6013 0.103099C23.2056 4.93587 22.777 9.7171 22.1127 14.4897C21.3711 9.7128 21.0454 4.93158 21.6583 0C21.1568 0.472538 20.8868 0.962259 20.6039 1.44768C19.2666 3.75453 19.1723 6.25898 19.3266 8.84935C19.5366 12.4535 20.081 16.0019 20.7453 19.5416C20.8439 20.0614 21.3497 20.6886 20.9468 21.0623C20.7111 21.2814 19.9653 20.9807 19.4595 20.8604C17.3249 20.3449 15.1647 19.9411 12.983 19.7693C10.2612 19.5588 7.54376 18.9745 4.78772 19.49C3.07323 19.8079 1.53447 20.4824 0.19288 21.6165" fill="#686868"/>
<path d="M26.1332 5.45106C26.0116 8.29987 25.8552 10.9388 25.5251 13.5648C25.2862 15.4454 25.0169 17.3175 24.5608 19.1596C24.4435 19.6223 24.5043 19.8236 25.0429 19.7165C26.6979 19.3866 28.3703 19.1296 30.0383 18.8726C32.2189 18.5384 34.4082 18.4099 36.6062 18.32C37.3403 18.29 38.07 18.2514 38.8085 18.1315C37.1578 17.1719 35.3986 16.6407 33.5134 16.5593C31.6586 16.4779 29.8298 16.6621 28.0141 17.0476C27.2018 17.2233 27.1844 17.1976 27.2974 16.4222C27.6536 13.9504 28.0315 11.4785 27.5059 8.98101C27.2583 7.80293 26.8456 6.69768 26.1332 5.44678" fill="#686868"/>
<path d="M18.2318 5.45112C17.4119 6.57922 17.0883 7.87655 16.769 9.19557C16.1908 11.5906 16.7518 13.9163 17.0538 16.2593C17.1703 17.1748 17.1746 17.1791 16.234 16.9925C13.2265 16.3981 10.219 16.1421 7.26334 17.2615C6.71104 17.4698 6.17599 17.7301 5.44678 18.0469C6.29681 18.3593 7.00013 18.2595 7.66462 18.2855C11.4315 18.4113 15.1639 18.8235 18.8445 19.6609C19.7161 19.8562 19.8455 19.7477 19.6859 18.9277C18.8402 14.4847 18.2102 10.0156 18.2318 5.44678" fill="#686868"/>
<path d="M6.12769 26.2514C8.08886 27.442 10.1919 27.8043 12.4118 27.7482C13.8055 27.7137 15.1741 27.5282 16.5261 27.222C17.2396 27.0623 17.2396 27.347 17.1604 27.8949C16.9183 29.6074 16.5178 31.307 16.6179 33.0541C16.7347 35.0902 17.1687 37.0486 18.3579 38.8086C18.3579 38.1745 18.3663 37.5447 18.3579 36.9106C18.3162 34.7149 18.6667 32.5537 18.8837 30.3796C19.0631 28.5765 19.4595 26.8208 19.7266 25.0349C19.8017 24.5172 19.6431 24.4525 19.2551 24.5474C17.2229 25.0565 15.1533 25.3325 13.0836 25.6043C11.1308 25.8631 9.16543 25.9235 7.20007 26.0098C6.84957 26.027 6.47402 25.9192 6.13186 26.2427" fill="#686868"/>
<path d="M38.8085 26.1803C37.785 25.8842 36.8776 25.9915 36.0003 25.9528C32.3406 25.7984 28.7239 25.3349 25.1459 24.5583C24.6642 24.4553 24.3976 24.4682 24.5567 25.1333C25.1072 27.4418 25.4297 29.789 25.6705 32.1533C25.8942 34.3074 26.0361 36.4657 26.1264 38.8086C27.4939 36.47 27.8681 34.0971 27.7047 31.6255C27.6186 30.3296 27.438 29.0423 27.2402 27.7593C27.1499 27.1929 27.3047 27.1157 27.8122 27.2187C29.8807 27.6521 31.9707 27.828 34.0823 27.6735C35.7207 27.5534 37.2173 26.9784 38.8085 26.1803Z" fill="#686868"/>
<path d="M11.5745 29.0743C12.1876 29.6232 12.83 29.6435 13.4348 29.7614C13.9771 29.8671 14.4025 29.981 14.4484 30.7047C14.4901 31.339 14.8238 31.953 15.0657 32.6808C15.3786 31.4 15.4703 30.1884 15.6497 28.9889C15.729 28.4562 15.3118 28.6026 15.0824 28.6514C13.9687 28.8832 12.8467 29.0296 11.5745 29.0702" fill="#686868"/>
<path d="M29.2721 32.6765C29.4608 31.995 29.7207 31.3221 29.8255 30.6276C29.9136 30.0324 30.2784 29.9246 30.7144 29.8254C31.3433 29.6787 32.01 29.6313 32.6808 29.1007C31.3307 28.9929 30.1232 28.8247 28.9241 28.6047C28.7229 28.5659 28.5635 28.6521 28.6013 28.8807C28.8193 30.1316 28.7899 31.4213 29.0792 32.6592L29.2805 32.6808L29.2721 32.6765Z" fill="#686868"/>
<path d="M29.0366 11.5747C28.9375 12.2784 28.8385 12.9776 28.748 13.6813C28.7179 13.9336 28.7308 14.1947 28.6963 14.4514C28.4939 15.7702 28.4896 15.7614 29.7301 15.5622C30.6907 15.4073 31.6556 15.2834 32.6808 15.1329C32.0562 14.5886 31.2938 14.5665 30.596 14.4027C30.1867 14.3053 29.9498 14.146 29.8551 13.6946C29.7043 12.9821 29.476 12.2828 29.2821 11.5791C29.2046 11.5791 29.1271 11.5791 29.0452 11.5791" fill="#686868"/>
<path d="M11.5745 15.1554C12.8179 15.3229 13.8914 15.4569 14.9607 15.6203C15.4705 15.6999 15.7441 15.7292 15.6363 15.0005C15.4747 13.899 15.3545 12.7892 15.1265 11.5747C14.7991 12.3411 14.5089 13.0112 14.4509 13.7441C14.4136 14.2047 14.1981 14.389 13.7919 14.456C13.0624 14.5733 12.3578 14.7492 11.5745 15.1596" fill="#686868"/>
<path d="M50.3829 24.3145C50.8164 24.159 51.2204 23.9531 51.5992 23.6927C52.1926 23.2809 52.4199 22.6717 52.5251 21.9953C52.6514 21.1677 52.6429 20.3316 52.6429 19.4998C52.6429 16.7269 52.6303 13.9541 52.6556 11.177C52.6598 10.6519 52.4956 10.236 52.1926 9.83683C51.7591 9.26966 51.2415 8.80751 50.6228 8.4504C50.5471 8.40839 50.425 8.38739 50.4461 8.26135C50.4713 8.1185 50.5976 8.18572 50.6775 8.18572C52.2558 8.18152 53.8298 8.18572 55.408 8.17732C55.6184 8.17732 55.7026 8.27815 55.7994 8.4252C58.4424 12.45 61.0138 16.5211 63.5179 20.6341C63.5684 20.7182 63.5937 20.8232 63.6989 20.8694C63.7536 20.819 63.7283 20.7602 63.7283 20.7098C63.7283 18.0293 63.7283 15.3489 63.7241 12.6685C63.7241 11.9669 63.6947 11.2653 63.5937 10.5679C63.4632 9.65197 62.9666 9.02598 62.1375 8.64366C61.986 8.57224 61.8303 8.50082 61.6788 8.4294C61.6072 8.39579 61.4978 8.37478 61.5188 8.26555C61.5399 8.13951 61.6535 8.18993 61.7293 8.18993C62.8193 8.18993 63.9051 8.18993 64.9951 8.18993C65.5001 8.18993 66.0094 8.18993 66.5144 8.18993C66.586 8.18993 66.6996 8.13531 66.7206 8.26555C66.7417 8.37898 66.6365 8.39579 66.5649 8.4336C66.2324 8.58905 65.9042 8.74449 65.5969 8.95036C64.9783 9.36628 64.7384 9.98807 64.6374 10.6897C64.5238 11.4879 64.5238 12.2946 64.5238 13.1012C64.5238 16.7942 64.5237 20.4829 64.528 24.1758C64.528 24.4279 64.469 24.5035 64.2081 24.4993C63.4211 24.4825 62.6299 24.4867 61.8429 24.4993C61.6325 24.4993 61.5146 24.4447 61.401 24.2556C58.9179 20.13 56.3381 16.0673 53.6951 12.0425C53.6362 11.9501 53.5688 11.8618 53.5099 11.7736C53.4215 11.8072 53.4468 11.8745 53.4468 11.9249C53.4636 14.996 53.4047 18.0713 53.4847 21.1425C53.4973 21.5542 53.552 21.9617 53.6362 22.3693C53.7793 23.0541 54.158 23.5624 54.7683 23.8943C54.9913 24.0162 55.2228 24.117 55.4459 24.2346C55.53 24.2808 55.6815 24.285 55.6563 24.4195C55.631 24.5665 55.4837 24.4909 55.3953 24.4909C53.7245 24.4951 52.0537 24.4909 50.3829 24.4909V24.3229V24.3145Z" fill="#686868"/>
<path d="M176.377 15.3186C176.806 14.7696 177.222 14.2378 177.761 13.8217C178.784 13.0282 179.931 12.758 181.187 13.0797C182.38 13.3842 183.14 14.1606 183.441 15.4087C183.641 15.1428 183.811 14.894 184.002 14.6624C184.901 13.5687 186.014 12.9124 187.465 12.951C189.185 12.9982 190.395 14.1048 190.594 15.8248C190.624 16.0821 190.636 16.3395 190.636 16.5968C190.641 18.4326 190.641 20.2684 190.645 22.1084C190.645 22.2156 190.649 22.3186 190.653 22.4258C190.662 23.2622 191.014 23.8713 191.787 24.2144C191.846 24.2401 191.914 24.2702 191.952 24.3173C192.016 24.3945 192.033 24.476 191.893 24.4889C191.838 24.4889 191.778 24.4889 191.723 24.4889C189.821 24.4889 187.915 24.4889 186.014 24.4889C185.929 24.4889 185.806 24.5532 185.767 24.4289C185.725 24.2873 185.869 24.2573 185.954 24.2187C186.769 23.8455 187.113 23.1979 187.139 22.3014C187.194 20.4442 187.177 18.5913 187.173 16.7341C187.173 16.3094 187.058 15.902 186.824 15.5374C186.349 14.7997 185.407 14.568 184.651 15.0098C184.184 15.28 183.87 15.6918 183.586 16.1422C183.535 16.2237 183.543 16.3052 183.543 16.3909C183.543 18.3125 183.543 20.2383 183.552 22.1599C183.552 22.4087 183.581 22.6574 183.615 22.9019C183.696 23.5238 184.095 23.8927 184.613 24.1715C184.719 24.2273 184.927 24.2487 184.889 24.4074C184.846 24.579 184.647 24.4846 184.524 24.4846C182.669 24.4932 180.814 24.4889 178.958 24.4846C178.861 24.4846 178.708 24.5661 178.67 24.4074C178.64 24.2744 178.793 24.2487 178.878 24.2101C179.667 23.8713 180.003 23.2536 180.037 22.4044C180.109 20.4828 180.096 18.5613 180.071 16.6354C180.058 15.6661 179.493 14.9755 178.678 14.8125C178.08 14.6924 177.579 14.9069 177.146 15.3101C176.687 15.7347 176.407 16.2108 176.433 16.9056C176.488 18.4712 176.445 20.041 176.454 21.6109C176.454 21.9926 176.475 22.3743 176.509 22.7561C176.556 23.2922 176.781 23.7254 177.252 24.0042C177.367 24.0729 177.481 24.1372 177.592 24.2101C177.672 24.2659 177.821 24.283 177.783 24.4203C177.749 24.5404 177.617 24.4803 177.536 24.4803C175.635 24.4803 173.729 24.4803 171.827 24.4803C171.742 24.4803 171.615 24.5404 171.581 24.416C171.542 24.2787 171.691 24.2487 171.776 24.2101C172.604 23.8498 172.922 23.1807 172.922 22.31C172.922 20.3112 172.922 18.3125 172.922 16.3137C172.922 16.0735 172.892 15.8376 172.858 15.6017C172.782 15.0356 172.532 14.568 172.043 14.2549C171.924 14.1777 171.806 14.0962 171.691 14.0147C171.636 13.9761 171.572 13.9418 171.585 13.8603C171.602 13.7531 171.695 13.766 171.763 13.7617C172.285 13.7359 172.799 13.6716 173.313 13.5944C174.268 13.4529 175.21 13.247 176.136 12.9639C176.352 12.8996 176.403 12.9382 176.399 13.1698C176.386 13.8861 176.394 14.5981 176.394 15.3144" fill="#686868"/>
<path d="M130.772 12.9489V15.4554C130.976 15.1987 131.129 14.9891 131.299 14.7924C132.208 13.7316 133.305 13.0173 134.741 12.9916C136.802 12.9531 138.116 14.185 138.205 16.2509C138.243 17.1192 138.218 17.9875 138.218 18.8558C138.218 19.9508 138.218 21.05 138.226 22.145C138.226 22.4016 138.252 22.6583 138.29 22.9149C138.358 23.3726 138.575 23.7362 138.974 23.98C139.127 24.0741 139.284 24.1639 139.437 24.258C139.501 24.2965 139.586 24.3179 139.573 24.4162C139.556 24.536 139.454 24.489 139.39 24.489C137.427 24.489 135.468 24.489 133.505 24.489C133.445 24.489 133.364 24.5275 133.335 24.4334C133.305 24.3393 133.373 24.2965 133.445 24.2623C133.454 24.2623 133.462 24.2537 133.471 24.2494C134.418 23.8602 134.733 23.1031 134.729 22.1236C134.72 20.2373 134.796 18.3468 134.69 16.4605C134.635 15.5024 134.074 14.895 133.237 14.7795C132.795 14.7197 132.391 14.848 132.017 15.0747C131.873 15.1645 131.737 15.2672 131.605 15.3784C131.082 15.8104 130.768 16.2894 130.81 17.0551C130.887 18.5478 130.832 20.0491 130.836 21.5462C130.836 21.8884 130.857 22.2306 130.87 22.577C130.895 23.3213 131.231 23.8388 131.885 24.1724C131.996 24.228 132.2 24.258 132.162 24.4077C132.119 24.5788 131.919 24.4847 131.796 24.4847C129.939 24.489 128.082 24.489 126.225 24.4847C126.136 24.4847 125.991 24.5617 125.961 24.412C125.932 24.2751 126.08 24.2494 126.165 24.2152C126.986 23.8602 127.304 23.1972 127.304 22.3418C127.304 20.34 127.304 18.334 127.304 16.3322C127.304 16.1055 127.274 15.8745 127.245 15.6478C127.168 15.0832 126.93 14.6127 126.437 14.2962C126.327 14.2235 126.216 14.1465 126.11 14.0695C126.042 14.0225 125.94 13.9925 125.966 13.8813C125.995 13.7701 126.102 13.7958 126.182 13.7915C127.321 13.7231 128.439 13.5306 129.548 13.2611C129.952 13.1627 130.351 13.0515 130.781 12.936" fill="#686868"/>
<path d="M163.429 12.9372C164.433 12.9414 165.342 13.072 166.197 13.4176C168.153 14.214 169.175 15.6847 169.456 17.6653C169.619 18.82 169.531 19.9578 169.083 21.0492C168.25 23.093 166.618 24.155 164.398 24.4415C163.28 24.5848 162.174 24.5089 161.091 24.176C158.911 23.5102 157.704 22.0437 157.367 19.903C157.195 18.82 157.261 17.7412 157.625 16.7003C158.354 14.627 159.889 13.4513 162.095 13.051C162.556 12.9667 163.025 12.9288 163.42 12.9372M165.807 20.5225C165.763 19.5827 165.692 18.8537 165.574 18.1289C165.482 17.5811 165.372 17.0374 165.214 16.5065C164.964 15.6637 164.684 14.8293 164.074 14.1508C163.293 13.2827 162.183 13.3712 161.556 14.3447C161.262 14.7998 161.13 15.3097 161.056 15.8364C160.933 16.7382 161.007 17.6401 161.117 18.5334C161.266 19.7471 161.508 20.9439 161.994 22.0817C162.245 22.6674 162.543 23.2279 163.091 23.6198C163.701 24.0538 164.451 23.9864 164.977 23.4639C165.232 23.2068 165.399 22.9034 165.517 22.5705C165.776 21.8372 165.811 21.0787 165.802 20.5225" fill="#686868"/>
<path d="M122.263 22.1727C121.801 22.8427 121.263 23.4115 120.566 23.8245C119.468 24.4776 118.288 24.6756 117.053 24.3343C115.233 23.8329 114.507 21.8988 115.532 20.3314C116.053 19.5308 116.831 19.0209 117.66 18.5827C119.041 17.8622 120.523 17.4155 122.023 17.0194C122.228 16.9646 122.297 16.8804 122.297 16.6781C122.297 16.1219 122.318 15.5699 122.322 15.0137C122.322 14.8578 122.301 14.6935 122.267 14.5418C122.053 13.6569 121.28 13.2693 120.421 13.6106C119.951 13.8002 119.622 14.1499 119.357 14.5586C118.87 15.3045 118.63 16.143 118.447 17.0026C118.378 17.3144 118.353 17.327 118.092 17.1585C117.447 16.7413 116.806 16.3157 116.156 15.9112C115.977 15.8017 115.989 15.7174 116.088 15.5615C116.797 14.4617 117.797 13.7328 119.036 13.3198C120.211 12.928 121.421 12.8353 122.647 13.0459C124.63 13.3915 125.694 14.6261 125.694 16.6191C125.694 18.0476 125.643 19.476 125.613 20.9044C125.604 21.3763 125.587 21.8441 125.587 22.3118C125.587 22.6025 125.634 22.8975 125.946 23.0197C126.258 23.1419 126.519 22.9902 126.741 22.7753C126.886 22.6362 126.993 22.4719 127.083 22.2949C127.117 22.2275 127.147 22.1517 127.254 22.2022C127.357 22.2528 127.314 22.3286 127.288 22.396C126.741 23.8793 125.416 24.7683 123.797 24.4439C122.899 24.2627 122.314 23.4958 122.271 22.4761C122.267 22.375 122.271 22.2696 122.271 22.1685M122.207 19.4549H122.28C122.28 18.8524 122.28 18.254 122.28 17.6515C122.28 17.4871 122.25 17.4366 122.07 17.4956C121.365 17.7315 120.682 18.0138 120.07 18.4436C119.147 19.0925 118.686 19.9648 118.776 21.0982C118.87 22.2696 119.763 22.8301 120.87 22.4003C121.331 22.2191 121.707 21.9241 122.045 21.5744C122.156 21.4606 122.207 21.3342 122.207 21.1741C122.199 20.601 122.207 20.028 122.207 19.4549Z" fill="#686868"/>
<path d="M102.525 22.1598C101.785 23.2725 100.827 24.0354 99.5273 24.3558C98.7832 24.5412 98.0349 24.5454 97.295 24.3305C95.4947 23.812 94.7677 21.8984 95.7769 20.3389C96.3029 19.5296 97.0855 19.0112 97.9279 18.5728C99.3007 17.8563 100.776 17.4137 102.268 17.0217C102.491 16.9627 102.559 16.8742 102.555 16.6634C102.555 16.1197 102.576 15.5718 102.581 15.028C102.581 14.8678 102.564 14.7077 102.525 14.5517C102.315 13.6539 101.529 13.2619 100.661 13.616C100.199 13.8015 99.878 14.1471 99.6171 14.5475C99.121 15.302 98.8816 16.1492 98.6934 17.0175C98.6293 17.3083 98.5993 17.3252 98.3513 17.1692C97.697 16.7477 97.047 16.3178 96.3885 15.9047C96.2174 15.7994 96.2345 15.7151 96.3243 15.576C97.0171 14.4885 97.9964 13.7635 99.2151 13.342C100.417 12.929 101.653 12.832 102.91 13.047C104.873 13.3842 105.942 14.6276 105.946 16.6086C105.946 18.0459 105.895 19.4833 105.865 20.9206C105.856 21.3884 105.839 21.8605 105.839 22.3284C105.839 22.6108 105.891 22.8932 106.186 23.0196C106.498 23.1503 106.759 23.0028 106.985 22.7878C107.131 22.6487 107.242 22.4843 107.336 22.3073C107.37 22.2441 107.387 22.1556 107.498 22.1977C107.601 22.2356 107.58 22.3115 107.55 22.3832C106.972 23.9806 105.527 24.7899 103.983 24.4232C103.102 24.2125 102.564 23.4622 102.525 22.4632C102.525 22.3621 102.525 22.2609 102.525 22.1598ZM102.461 19.4327H102.534C102.534 18.8426 102.534 18.2483 102.534 17.6582C102.534 17.5064 102.525 17.4306 102.333 17.4938C101.627 17.7298 100.943 18.008 100.331 18.4379C99.4076 19.087 98.9414 19.9553 99.027 21.0934C99.1168 22.2651 100.011 22.83 101.114 22.4042C101.584 22.223 101.969 21.9195 102.311 21.5612C102.414 21.4517 102.461 21.3336 102.457 21.1819C102.448 20.6002 102.457 20.0186 102.457 19.4327" fill="#686868"/>
<path d="M73.9267 22.1602C73.2727 23.1459 72.4349 23.8661 71.315 24.2452C70.4559 24.5358 69.5754 24.5822 68.6992 24.3295C66.8954 23.8156 66.1731 21.9033 67.1818 20.3406C67.7075 19.5319 68.4897 19.0138 69.3318 18.5757C70.7038 17.8597 72.1785 17.4132 73.6702 17.0257C73.8882 16.9667 73.9608 16.8783 73.9608 16.6677C73.9608 16.1243 73.9822 15.5767 73.9865 15.0334C73.9865 14.8733 73.9694 14.7132 73.9309 14.5574C73.7215 13.656 72.9393 13.2643 72.0673 13.6181C71.6057 13.8034 71.2851 14.1488 71.0244 14.549C70.5286 15.3029 70.2892 16.1496 70.1011 17.0173C70.037 17.3079 70.0071 17.3247 69.7592 17.1689C69.1052 16.7477 68.4555 16.3181 67.7973 15.9053C67.6263 15.8 67.6434 15.7199 67.7332 15.5767C68.4171 14.4984 69.3916 13.774 70.597 13.3527C71.8622 12.9105 73.1701 12.822 74.4866 13.079C76.3245 13.437 77.3504 14.6922 77.3546 16.6087C77.3546 18.045 77.3034 19.4813 77.2734 20.9177C77.2649 21.3852 77.2478 21.857 77.2478 22.3245C77.2478 22.6067 77.2991 22.8889 77.5897 23.0153C77.9018 23.1459 78.1625 22.9984 78.389 22.7878C78.5344 22.6488 78.6455 22.4846 78.7395 22.3119C78.7737 22.2487 78.7908 22.1602 78.9019 22.1981C79.0045 22.236 78.9832 22.3076 78.9575 22.3835C78.3848 23.9756 76.94 24.7928 75.3927 24.4221C74.5122 24.2115 73.9737 23.4618 73.9352 22.4635C73.9352 22.3624 73.9352 22.2613 73.9352 22.1602M73.8711 19.435H73.9437C73.9437 18.8453 73.9437 18.2514 73.9437 17.6617C73.9437 17.5101 73.9352 17.4343 73.7429 17.4974C73.0376 17.7333 72.3537 18.0155 71.7425 18.4409C70.8192 19.0896 70.3533 19.9573 70.4431 21.0946C70.5329 22.2655 71.4262 22.8299 72.529 22.4045C72.9991 22.2234 73.3838 21.9201 73.7258 21.5621C73.8283 21.4526 73.8754 21.3347 73.8711 21.183C73.8625 20.6018 73.8711 20.0205 73.8711 19.435Z" fill="#686868"/>
<path d="M86.4638 8.42219C85.9351 9.01764 85.415 9.60891 84.8906 10.2002C84.7702 10.3334 84.6542 10.4667 84.5338 10.5999C84.2931 10.8706 84.2759 10.8706 84.1126 10.5583C83.7773 9.92121 83.4033 9.30495 82.9047 8.77196C82.7113 8.56377 82.4964 8.37639 82.2299 8.26396C81.7442 8.05577 81.3702 8.23898 81.267 8.74282C81.1596 9.25914 81.2928 9.75882 81.4132 10.2543C81.6797 11.3411 82.0837 12.3779 82.4964 13.4189C82.5566 13.5688 82.6554 13.573 82.7844 13.573C83.6011 13.573 84.4135 13.573 85.2301 13.5688C85.4279 13.5688 85.4751 13.6146 85.4279 13.802C85.3118 14.2808 85.3204 14.2808 84.8003 14.2808C84.1298 14.2808 83.4592 14.285 82.7887 14.2808C82.6167 14.2808 82.5566 14.3225 82.5566 14.4974C82.5652 17.079 82.5652 19.6607 82.5694 22.2423C82.5694 22.4546 82.5995 22.667 82.6253 22.8794C82.707 23.5373 83.1583 23.8954 83.73 24.1619C83.8633 24.2243 84.1255 24.2368 84.0782 24.4159C84.0352 24.5783 83.7945 24.4825 83.644 24.4825C81.727 24.4908 79.8099 24.4867 77.8928 24.4825C77.8026 24.4825 77.6564 24.5533 77.622 24.4159C77.5876 24.2826 77.7381 24.2576 77.824 24.2202C78.6665 23.8704 78.9803 23.2167 78.9803 22.3714C78.9803 19.7439 78.9803 17.1165 78.9932 14.489C78.9932 14.31 78.9244 14.2725 78.7611 14.2767C78.4645 14.2892 78.1679 14.2725 77.8713 14.2808C77.7037 14.285 77.665 14.2267 77.6607 14.0727C77.6521 13.5688 77.6435 13.5688 78.1679 13.5688C78.3699 13.5688 78.572 13.5563 78.7697 13.5688C78.9502 13.5813 78.9975 13.5188 78.9975 13.3481C78.9803 12.6528 79.0061 11.9574 79.1007 11.262C79.1995 10.5333 79.3758 9.82128 79.7325 9.16337C80.3558 8.00996 81.3573 7.47698 82.6812 7.48947C83.73 7.50196 85.4794 7.93501 86.4681 8.4097" fill="#686868"/>
<path d="M113.046 15.019C113.046 17.1872 113.046 19.3553 113.046 21.5277C113.046 21.9403 113.058 22.3528 113.096 22.7654C113.146 23.3127 113.367 23.7548 113.855 24.0368C113.984 24.1126 114.113 24.1884 114.243 24.2642C114.314 24.3063 114.409 24.3358 114.376 24.4452C114.347 24.5462 114.251 24.4999 114.184 24.4999C112.278 24.4999 110.372 24.4999 108.462 24.4999C108.391 24.4999 108.279 24.5505 108.258 24.4284C108.237 24.3189 108.346 24.2979 108.412 24.2558C108.554 24.1674 108.7 24.0832 108.842 23.9947C109.255 23.7421 109.459 23.3632 109.526 22.8917C109.572 22.5549 109.584 22.2181 109.584 21.8813C109.584 18.2776 109.584 14.6696 109.576 11.0658C109.576 10.7585 109.542 10.447 109.513 10.1396C109.447 9.46182 109.084 8.97767 108.512 8.63666C108.412 8.57351 108.22 8.53562 108.27 8.37564C108.316 8.2325 108.496 8.29144 108.617 8.27881C110.03 8.16093 111.419 7.91254 112.779 7.5168C113.012 7.44944 113.054 7.49996 113.054 7.73151C113.046 10.1649 113.05 12.5941 113.05 15.0274" fill="#686868"/>
<path d="M146.388 18.6641C146.392 17.1914 146.745 15.8284 147.741 14.7017C148.943 13.3429 150.489 12.8154 152.258 12.9589C153.855 13.0854 155.103 13.8661 156.036 15.1701C156.154 15.3346 156.171 15.4275 155.986 15.5667C155.339 16.0478 154.708 16.55 154.07 17.0437C153.99 17.1028 153.918 17.2125 153.805 17.1703C153.687 17.1239 153.725 16.9931 153.712 16.896C153.607 16.1111 153.431 15.3431 153.048 14.6384C152.969 14.4907 152.876 14.3472 152.775 14.2122C152.116 13.3471 151.141 13.3302 150.443 14.1742C150.023 14.6806 149.804 15.2756 149.687 15.9128C149.426 17.3391 149.489 18.7443 150.099 20.082C151.157 22.4198 153.658 22.576 155.049 21.6771C155.616 21.31 156.019 20.8036 156.343 20.217C156.376 20.158 156.381 20.0356 156.511 20.0904C156.629 20.1369 156.595 20.2213 156.578 20.3014C156.2 22.2257 155.032 24.0614 152.779 24.4327C150.015 24.8885 147.119 23.3313 146.506 20.0398C146.422 19.5841 146.376 19.1283 146.384 18.6641" fill="#686868"/>
<path d="M88.1971 17.961C88.1971 16.7417 88.1971 15.5223 88.2012 14.3029C88.2012 14.1108 88.152 14.0357 87.9592 14.0524C87.7665 14.0691 87.5738 14.0607 87.3851 14.0524C87.3072 14.0524 87.176 14.1108 87.1637 13.9689C87.1514 13.8394 87.1063 13.7016 87.2744 13.6056C87.5697 13.4385 87.8526 13.2506 88.1356 13.0627C89.0418 12.4614 89.9194 11.8224 90.6739 11.029C90.8707 10.8202 91.0593 10.6031 91.2152 10.3609C91.2808 10.2565 91.3587 10.1855 91.4817 10.2231C91.6088 10.2607 91.5514 10.3818 91.5514 10.4611C91.5555 11.3255 91.5637 12.1941 91.5514 13.0585C91.5514 13.2965 91.6211 13.3508 91.8426 13.3467C92.5848 13.3341 93.3229 13.3467 94.0652 13.3383C94.2374 13.3383 94.303 13.3634 94.262 13.568C94.1718 14.0482 94.1841 14.0524 93.7002 14.0524C93.0769 14.0524 92.4577 14.0566 91.8344 14.0524C91.6662 14.0524 91.5965 14.0858 91.5965 14.2779C91.5842 16.4869 91.5596 18.6918 91.5391 20.8967C91.5391 21.1848 91.5596 21.473 91.6375 21.7527C91.9205 22.755 92.8513 23.1851 93.7781 22.7424C94.0282 22.6213 94.2456 22.4501 94.4424 22.2538C94.4834 22.2121 94.5203 22.1327 94.5982 22.1912C94.6597 22.2413 94.6392 22.2998 94.6105 22.3666C93.856 24.0328 91.6457 24.9515 89.9645 24.3C88.8901 23.8824 88.2299 22.9011 88.2094 21.6149C88.1889 20.3956 88.2053 19.1762 88.2053 17.9568H88.2012L88.1971 17.961Z" fill="#686868"/>
<path d="M144.336 24.5107C143.233 24.5068 142.289 23.7221 142.298 22.8125C142.307 21.8833 143.256 21.1026 144.368 21.1065C145.458 21.1104 146.388 21.9029 146.383 22.8242C146.383 23.7455 145.443 24.5146 144.336 24.5107Z" fill="#686868"/>
<path d="M50.3872 36.7334L50.7723 35.8745C51.2514 36.2591 52.0087 36.5283 52.7402 36.5283C53.6686 36.5283 54.0622 36.195 54.0622 35.7548C54.0622 34.4686 50.5156 35.3104 50.5156 33.097C50.5156 32.1355 51.2814 31.3193 52.9199 31.3193C53.6344 31.3193 54.3874 31.5074 54.905 31.8492L54.5542 32.7081C54.0152 32.3919 53.429 32.2381 52.9071 32.2381C51.9873 32.2381 51.6108 32.597 51.6108 33.0457C51.6108 34.3148 55.1489 33.4901 55.1489 35.6779C55.1489 36.6308 54.3745 37.447 52.736 37.447C51.8076 37.447 50.8792 37.1564 50.3829 36.7334" fill="#686868"/>
<path d="M62.3314 36.1856H59.5085L58.9537 37.4468H57.8723L60.4157 32H61.4485L64 37.4468H62.9024L62.3354 36.1856H62.3314ZM61.9831 35.393L60.9179 33.0113L59.8609 35.393H61.9831Z" fill="#686868"/>
<path d="M72.851 32V37.4468H71.9154L68.5331 33.7609V37.4468H67.4042V32H68.3442L71.7221 35.6898V32H72.851Z" fill="#686868"/>
<path d="M80.7144 36.1856H77.8915L77.3367 37.4468H76.2553L78.7987 32H79.8315L82.383 37.4468H81.2854L80.7184 36.1856H80.7144ZM80.3661 35.393L79.3009 33.0113L78.2439 35.393H80.3661Z" fill="#686868"/>
<path d="M86.5527 32.8551H84.4255V32H89.8723V32.8551H87.7452V37.4468H86.5527V32.8551Z" fill="#686868"/>
<path d="M92.5958 34.3832C92.5958 32.6226 93.8972 31.3193 95.6596 31.3193C97.422 31.3193 98.7234 32.6141 98.7234 34.3832C98.7234 36.1522 97.422 37.447 95.6596 37.447C93.8972 37.447 92.5958 36.1437 92.5958 34.3832ZM97.6586 34.3832C97.6586 33.1653 96.806 32.2893 95.6596 32.2893C94.5132 32.2893 93.6606 33.1653 93.6606 34.3832C93.6606 35.601 94.5132 36.477 95.6596 36.477C96.806 36.477 97.6586 35.601 97.6586 34.3832Z" fill="#686868"/>
<path d="M106.3 37.4468L104.997 35.8538C104.915 35.8616 104.833 35.8616 104.751 35.8616H103.311V37.4468H102.128V32H104.751C106.428 32 107.465 32.7301 107.465 33.9366C107.465 34.7605 106.971 35.3696 106.108 35.6546L107.574 37.4429H106.3V37.4468ZM104.696 32.8551H103.311V35.026H104.696C105.733 35.026 106.272 34.6199 106.272 33.9366C106.272 33.2534 105.733 32.8551 104.696 32.8551Z" fill="#686868"/>
<path d="M112.34 32H110.979V37.4468H112.34V32Z" fill="#686868"/>
<path d="M116.426 35.0294V32H117.436V34.9909C117.436 36.0957 117.939 36.5692 118.82 36.5692C119.702 36.5692 120.197 36.0918 120.197 34.9909V32H121.191V35.0294C121.191 36.5923 120.298 37.4468 118.812 37.4468C117.326 37.4468 116.426 36.5961 116.426 35.0294Z" fill="#686868"/>
<path d="M130.993 37.4468L130.979 33.839L128.937 36.826H128.424L126.378 33.882V37.4468H125.277V32H126.226L128.696 35.6117L131.122 32H132.076L132.085 37.4468H130.993Z" fill="#686868"/>
<path d="M135.494 36.7334L135.879 35.8745C136.358 36.2591 137.115 36.5283 137.847 36.5283C138.775 36.5283 139.169 36.195 139.169 35.7548C139.169 34.4686 135.622 35.3104 135.622 33.097C135.622 32.1355 136.388 31.3193 138.026 31.3193C138.741 31.3193 139.494 31.5074 140.011 31.8492L139.661 32.7081C139.122 32.3919 138.535 32.2381 138.013 32.2381C137.094 32.2381 136.717 32.597 136.717 33.0457C136.717 34.3148 140.255 33.4901 140.255 35.6779C140.255 36.6308 139.481 37.447 137.842 37.447C136.914 37.447 135.986 37.1564 135.489 36.7334" fill="#686868"/>
</svg>
