<svg width="112" height="107" viewBox="0 0 112 107" fill="none" xmlns="http://www.w3.org/2000/svg">
<path d="M71.5844 36.0333C62.6813 24.0997 63.3082 13.8331 73.4494 5.51627L73.6437 5.74566C63.6475 13.9427 63.0362 24.0742 71.8305 35.8575L71.587 36.0333H71.5844Z" stroke="#F55E31" stroke-width="2"/>
<path d="M36.8347 72.9122C28.0016 63.5122 17.6868 63.4332 6.18045 72.6803L5.98877 72.4484C17.6428 63.084 28.0948 63.1706 37.0574 72.7083L36.8347 72.9097V72.9122Z" stroke="#F55E31" stroke-width="2"/>
<path d="M53.8565 48.4996C51.9577 40.9729 49.1291 36.6858 45.2151 35.3961C42.6636 34.555 39.5966 35.0367 36.0504 36.8285C35.2344 39.0103 34.0092 41.2864 32.3747 43.6441C31.9421 44.266 31.2013 44.6738 30.3931 44.7324C30.0408 44.7579 29.6859 44.6917 29.3647 44.5413C28.9554 44.3501 28.629 44.0035 28.4503 43.5676C27.9012 42.232 29.1316 41.1029 29.5227 40.7869C31.7763 38.9899 33.8719 37.5932 35.8147 36.5915C36.9311 33.5431 37.229 30.6859 36.7006 28.0428C35.8509 23.7837 32.8254 19.94 27.7095 16.6138L27.8778 16.364C33.0637 19.7336 36.1333 23.6435 37.0011 27.9841C37.5217 30.5941 37.2549 33.4055 36.2084 36.3927C39.7054 34.6722 42.7128 34.2542 45.3109 35.1106C49.3337 36.436 52.2246 40.792 54.1518 48.4257L53.8565 48.4971V48.4996ZM35.6463 37.035C33.7994 38.0086 31.8255 39.334 29.7299 41.0035C29.3647 41.2992 28.2586 42.3085 28.7301 43.4529C28.8803 43.82 29.1523 44.108 29.4916 44.2686C29.7662 44.396 30.0667 44.4521 30.3672 44.4317C31.0847 44.3807 31.7401 44.0213 32.1183 43.4733C33.6621 41.2482 34.8355 39.0995 35.6411 37.035H35.6463Z" stroke="#3B89FF" stroke-width="2"/>
<path d="M51.2818 19.4507L43.2646 11.5621L51.2818 3.67346L59.2989 11.5621L51.2818 19.4507ZM43.6921 11.5621L51.2818 19.0301L58.8715 11.5621L51.2818 4.09402L43.6921 11.5621Z" stroke="#3B89FF" stroke-width="2"/>
<path d="M12.3869 57.3593C9.51423 57.3593 7.17773 55.0603 7.17773 52.2336C7.17773 49.407 9.51423 47.1079 12.3869 47.1079C15.2596 47.1079 17.5961 49.407 17.5961 52.2336C17.5961 55.0603 15.2596 57.3593 12.3869 57.3593V57.3593ZM12.3869 47.4062C9.6826 47.4062 7.4808 49.5727 7.4808 52.2336C7.4808 54.8946 9.6826 57.0611 12.3869 57.0611C15.0913 57.0611 17.2931 54.8946 17.2931 52.2336C17.2931 49.5727 15.0913 47.4062 12.3869 47.4062Z" stroke="#3B89FF" stroke-width="2"/>
<path d="M7.69101 24.6758C7.51228 24.6758 7.33095 24.6299 7.16258 24.5381C6.74812 24.3113 6.53831 23.8652 6.62897 23.4064L8.07438 16.1984L1.55447 12.6198C1.14001 12.393 0.930196 11.9469 1.02086 11.4882C1.11411 11.0294 1.47676 10.6955 1.95079 10.6394L9.36438 9.7626L10.8098 2.55453C10.903 2.09574 11.2657 1.76184 11.7397 1.70577C12.2112 1.64969 12.6464 1.88928 12.8458 2.31239L15.9827 8.98011L23.3963 8.10331C23.8678 8.04724 24.3029 8.28683 24.5024 8.70994C24.7018 9.13559 24.606 9.61476 24.2563 9.93337L18.7829 14.9291L21.9198 21.5968C22.1193 22.0224 22.0234 22.5016 21.6737 22.8202C21.324 23.1388 20.8319 23.1974 20.4148 22.9681L13.8949 19.3895L8.4189 24.3852C8.21167 24.5738 7.95264 24.6707 7.69101 24.6707V24.6758ZM11.8692 1.99888C11.8356 1.99888 11.8045 1.99889 11.7734 2.00398C11.504 2.03457 11.1854 2.21299 11.1051 2.61315L9.61823 10.0353L1.98447 10.9376C1.5726 10.986 1.37056 11.2842 1.31616 11.5468C1.26435 11.8093 1.33688 12.161 1.69953 12.3598L8.41372 16.0454L6.92686 23.4676C6.84656 23.8678 7.07192 24.1507 7.31023 24.2807C7.54854 24.4107 7.9086 24.4515 8.21426 24.1736L13.8509 19.0301L20.5651 22.7157C20.9277 22.9145 21.2696 22.7922 21.4691 22.6087C21.6685 22.4277 21.8188 22.0989 21.6452 21.7293L18.4151 14.8653L24.0517 9.72182C24.3547 9.444 24.3418 9.08461 24.2278 8.84247C24.1138 8.60033 23.847 8.3582 23.4326 8.40663L15.7988 9.30891L12.5686 2.44493C12.4132 2.11613 12.1231 2.00398 11.8692 2.00398V1.99888Z" stroke="#F55E31" stroke-width="2"/>
<path d="M83.2986 77.3239C80.4259 77.3239 78.0894 75.0249 78.0894 72.1983C78.0894 69.3716 80.4259 67.0726 83.2986 67.0726C86.1713 67.0726 88.5077 69.3716 88.5077 72.1983C88.5077 75.0249 86.1713 77.3239 83.2986 77.3239ZM83.2986 67.3708C80.5942 67.3708 78.3924 69.5373 78.3924 72.1983C78.3924 74.8592 80.5942 77.0257 83.2986 77.0257C86.0029 77.0257 88.2047 74.8592 88.2047 72.1983C88.2047 69.5373 86.0029 67.3708 83.2986 67.3708Z" stroke="#F55E31" stroke-width="2"/>
<path d="M99.841 102.348L99.5432 102.29C100.919 95.5608 97.1264 91.3272 93.461 89.7495C89.5366 88.0596 83.913 88.6102 80.2036 93.6543L79.9575 93.4784C83.7679 88.2992 89.547 87.7359 93.5828 89.4742C97.3517 91.0978 101.25 95.4436 99.8385 102.346L99.841 102.348Z" stroke="#F55E31" stroke-width="2"/>
<path d="M106.192 105.027C105.684 105.027 105.169 104.928 104.671 104.724H104.666L51.7166 80.8668C51.626 80.826 51.5794 80.7292 51.6053 80.6349C51.6312 80.5406 51.7192 80.4794 51.8203 80.4871C56.7963 80.9178 64.829 76.6001 71.8048 69.7361C79.0215 62.6351 83.4873 54.3336 82.6662 49.5494C82.6506 49.4526 82.7076 49.3583 82.8008 49.3277C82.8967 49.2971 82.9977 49.3353 83.0443 49.4245L109.829 99.2566C110.531 100.834 110.202 102.629 108.997 103.839C108.223 104.617 107.223 105.027 106.192 105.027ZM104.788 104.451C106.184 105.017 107.712 104.703 108.779 103.633C109.914 102.491 110.212 100.865 109.554 99.3891L83.0314 50.0465C83.4692 54.9835 79.0345 63.0429 72.0172 69.9477C65.3082 76.5491 57.6071 80.8159 52.5171 80.8159C52.4523 80.8159 52.3875 80.8159 52.3254 80.8159L104.788 104.451Z" stroke="#3B89FF" stroke-width="3"/>
<path d="M52.0882 79.4743L51.8418 79.3264C60.6588 65.1248 70.3334 55.3992 81.42 49.5872L81.5555 49.8369C70.5157 55.6223 60.8757 65.3163 52.0882 79.4719V79.4743Z" stroke="#3B89FF" stroke-width="3"/>
</svg>
