<svg width="87" height="59" viewBox="0 0 87 59" fill="none" xmlns="http://www.w3.org/2000/svg">
<g clip-path="url(#clip0_426_1308)">
<path d="M43.4018 59C35.7646 59 28.1608 57.5113 20.6421 54.535L19.5283 54.0936V46.9546C19.5283 35.5672 29.5195 26.3029 41.803 26.3029H45.2101C57.4905 26.3029 67.4848 35.5672 67.4848 46.9546V54.1068L66.3498 54.538C58.7025 57.5134 51.0359 59 43.4018 59ZM23.0437 51.6608C36.5098 56.7052 50.2603 56.7021 63.9583 51.6536V46.9536C63.9583 37.5228 55.5445 29.8515 45.204 29.8515H41.797C31.4564 29.8515 23.0437 37.5228 23.0437 46.9536V51.6608Z" fill="#3B89FF"/>
<path d="M43.6983 29.5562C35.6227 29.5562 29.0537 22.9271 29.0537 14.7786C29.0537 6.63014 35.6227 0 43.6983 0C51.7739 0 58.3419 6.62912 58.3419 14.7786C58.3419 22.9281 51.7699 29.5562 43.6983 29.5562ZM43.6983 3.54956C41.4975 3.54936 39.3461 4.20776 37.5161 5.4415C35.6861 6.67524 34.2597 8.42891 33.4174 10.4807C32.575 12.5326 32.3545 14.7904 32.7838 16.9687C33.213 19.1469 34.2727 21.1479 35.8288 22.7184C37.3849 24.2889 39.3676 25.3585 41.5261 25.7918C43.6846 26.2252 45.922 26.0029 47.9553 25.153C49.9886 24.3031 51.7265 22.8639 52.9492 21.0172C54.1719 19.1706 54.8245 16.9995 54.8245 14.7786C54.8211 11.802 53.6477 8.94838 51.5618 6.8438C49.4759 4.73923 46.6479 3.5556 43.6983 3.55263V3.54956Z" fill="#3B89FF"/>
<path d="M73.5495 43.5235L73.4371 41.3574C76.9869 41.1664 80.6045 40.398 84.1988 39.0728V36.2006C84.1988 30.4359 79.0564 25.7461 72.7344 25.7461H70.6507C65.6207 25.7461 61.104 28.8113 59.6642 33.2049L57.623 32.5244C58.4573 29.9772 60.1887 27.6925 62.4972 26.0873C64.8992 24.4344 67.7434 23.5594 70.6507 23.5789H72.7283C80.2359 23.5789 86.3422 29.2425 86.3422 36.2037V40.5717L85.6548 40.8394C81.6261 42.4047 77.5518 43.309 73.5495 43.5235Z" fill="#3B89FF"/>
<path d="M71.8168 25.5652C70.0463 25.5662 68.3153 25.0374 66.8426 24.0455C65.37 23.0537 64.2219 21.6434 63.5435 19.9931C62.8651 18.3427 62.6869 16.5264 63.0315 14.7739C63.3761 13.0213 64.2279 11.4113 65.4793 10.1473C66.7307 8.88335 68.3254 8.02226 70.0617 7.67295C71.798 7.32364 73.598 7.50179 75.234 8.18488C76.87 8.86797 78.2686 10.0253 79.2527 11.5105C80.2369 12.9958 80.7626 14.7422 80.7632 16.5289C80.7613 18.9235 79.8184 21.2196 78.1413 22.9136C76.4641 24.6076 74.1897 25.5612 71.8168 25.5652ZM71.8168 9.66883C70.4714 9.66802 69.156 10.0699 68.037 10.8237C66.918 11.5775 66.0457 12.6492 65.5304 13.9034C65.0152 15.1576 64.8801 16.5378 65.1423 17.8695C65.4045 19.2011 66.0522 20.4244 67.0035 21.3845C67.9547 22.3446 69.1668 22.9984 70.4864 23.2632C71.8059 23.528 73.1736 23.3919 74.4165 22.8721C75.6594 22.3523 76.7216 21.4722 77.4687 20.3431C78.2158 19.2139 78.6142 17.8866 78.6136 16.5289C78.611 14.7105 77.894 12.9673 76.62 11.6814C75.346 10.3955 73.6187 9.6718 71.8168 9.66883Z" fill="#F55E31"/>
<path d="M13.4511 43.5235L13.5655 41.3574C10.0158 41.1664 6.39915 40.398 2.80381 39.0728V36.2006C2.80381 30.4359 7.94724 25.7461 14.2682 25.7461H16.3499C21.3799 25.7461 25.8976 28.8113 27.3364 33.2049L29.3775 32.5244C28.5433 29.9772 26.8119 27.6925 24.5034 26.0873C22.1014 24.4344 19.2572 23.5594 16.3499 23.5789H14.2682C6.76162 23.5789 0.654297 29.2425 0.654297 36.2037V40.5717L1.34279 40.8394C5.37451 42.4047 9.44775 43.309 13.4511 43.5235Z" fill="#3B89FF"/>
<path d="M6.2373 16.5289C6.2373 14.7422 6.7623 12.9958 7.74589 11.5102C8.72948 10.0247 10.1275 8.86689 11.7632 8.18318C13.3988 7.49947 15.1986 7.32058 16.935 7.66914C18.6714 8.01769 20.2664 8.87802 21.5183 10.1414C22.7702 11.4047 23.6227 13.0143 23.9681 14.7666C24.3135 16.5188 24.1362 18.3351 23.4587 19.9858C22.7812 21.6364 21.6339 23.0472 20.1618 24.0398C18.6898 25.0324 16.9591 25.5622 15.1887 25.5622C12.8155 25.5595 10.5402 24.6069 8.86207 22.9134C7.18394 21.2199 6.23998 18.9238 6.2373 16.5289ZM8.38682 16.5289C8.38662 17.8865 8.78537 19.2137 9.53265 20.3426C10.2799 21.4716 11.3422 22.3515 12.585 22.8712C13.8279 23.3909 15.1956 23.527 16.5151 23.2622C17.8346 22.9975 19.0466 22.3438 19.998 21.3839C20.9494 20.424 21.5973 19.2009 21.8598 17.8694C22.1224 16.5378 21.9877 15.1577 21.4729 13.9033C20.9581 12.649 20.0863 11.5769 18.9677 10.8226C17.8491 10.0684 16.534 9.66576 15.1887 9.66576C13.3855 9.66765 11.6566 10.3913 10.3815 11.6779C9.10631 12.9646 8.38896 14.7091 8.38682 16.5289Z" fill="#F55E31"/>
</g>
<defs>
<clipPath id="clip0_426_1308">
<rect width="85.6929" height="59" fill="white" transform="translate(0.654297)"/>
</clipPath>
</defs>
</svg>
