<svg width="20" height="20" viewBox="0 0 20 20" fill="none" xmlns="http://www.w3.org/2000/svg">
<g clip-path="url(#clip0_378_297)">
<path d="M0 6.70833C0 4.33546 0 3.14902 0.469111 2.24594C0.864425 1.48493 1.48493 0.864425 2.24594 0.469111C3.14902 0 4.33546 0 6.70833 0H13.2917C15.6645 0 16.851 0 17.7541 0.469111C18.5151 0.864425 19.1356 1.48493 19.5309 2.24594C20 3.14902 20 4.33546 20 6.70833V13.2917C20 15.6645 20 16.851 19.5309 17.7541C19.1356 18.5151 18.5151 19.1356 17.7541 19.5309C16.851 20 15.6645 20 13.2917 20H6.70833C4.33546 20 3.14902 20 2.24594 19.5309C1.48493 19.1356 0.864425 18.5151 0.469111 17.7541C0 16.851 0 15.6645 0 13.2917V6.70833Z" fill="#BB0F23"/>
<path d="M10.9658 2.9828C9.2712 2.74969 7.5495 3.13758 6.1186 4.07484C4.6877 5.0121 3.64423 6.43544 3.18088 8.08203C2.71753 9.72861 2.86559 11.4872 3.59771 13.0332C4.32984 14.5791 5.59659 15.808 7.16405 16.4928C7.12167 15.9488 7.16057 15.4014 7.27949 14.8689C7.41051 14.2747 8.19735 10.9998 8.19735 10.9998C8.04067 10.6486 7.96236 10.2675 7.96788 9.88298C7.96788 8.83128 8.57483 8.04657 9.32979 8.04657C9.46542 8.04459 9.59988 8.07185 9.72404 8.12648C9.84819 8.18111 9.95913 8.26183 10.0493 8.36316C10.1395 8.46449 10.2068 8.58405 10.2466 8.71371C10.2865 8.84336 10.2979 8.98008 10.2802 9.11456C10.2802 9.75196 9.87087 10.7166 9.65699 11.6217C9.61472 11.7877 9.61204 11.9613 9.64916 12.1285C9.68628 12.2957 9.76216 12.4519 9.8707 12.5844C9.97923 12.7169 10.1174 12.8221 10.274 12.8914C10.4306 12.9607 10.6014 12.9923 10.7724 12.9836C12.1166 12.9836 13.0175 11.2619 13.0175 9.2293C13.0175 7.67121 11.9856 6.50407 10.0833 6.50407C9.62822 6.48638 9.17425 6.56138 8.749 6.7245C8.32375 6.88763 7.93609 7.13548 7.60956 7.453C7.28303 7.77053 7.02443 8.1511 6.84948 8.57162C6.67452 8.99215 6.58686 9.44384 6.59181 9.89927C6.57153 10.4045 6.73452 10.9 7.05074 11.2945C7.10983 11.3386 7.15297 11.4007 7.17367 11.4715C7.19436 11.5422 7.19148 11.6178 7.16547 11.6868C7.13289 11.8171 7.05074 12.128 7.01816 12.2421C7.01138 12.2807 6.99562 12.3173 6.97214 12.3487C6.94866 12.3802 6.91812 12.4057 6.88298 12.4232C6.84784 12.4407 6.80908 12.4497 6.76983 12.4495C6.73057 12.4493 6.69191 12.4398 6.65697 12.422C5.67679 12.0296 5.21503 10.951 5.21503 9.71938C5.21503 7.70308 6.90343 5.28947 10.2816 5.28947C12.97 5.28947 14.7576 7.2562 14.7576 9.35961C14.7576 12.128 13.2158 14.2095 10.9374 14.2095C10.5969 14.2204 10.2592 14.1452 9.95538 13.991C9.6516 13.8367 9.39162 13.6084 9.19948 13.3271C9.19948 13.3271 8.79013 14.9673 8.70939 15.2775C8.54458 15.8134 8.30139 16.322 7.98771 16.7867C8.6414 16.985 9.32058 17.0842 10.0033 17.0813C10.9336 17.0821 11.8549 16.8993 12.7145 16.5435C13.5741 16.1877 14.355 15.6658 15.0126 15.0077C15.6702 14.3497 16.1915 13.5684 16.5467 12.7086C16.9019 11.8488 17.0841 10.9273 17.0827 9.99701C17.0818 8.28665 16.4621 6.63437 15.3381 5.34526C14.214 4.05615 12.6615 3.21726 10.9672 2.9835L10.9658 2.9828Z" fill="white"/>
</g>
<defs>
<clipPath id="clip0_378_297">
<rect width="20" height="20" fill="white"/>
</clipPath>
</defs>
</svg>
