<svg width="40" height="54" viewBox="0 0 40 54" fill="none" xmlns="http://www.w3.org/2000/svg">
<path d="M20 52.3799L3.45451 29.6999L3.27269 29.5199C1.63633 26.6399 0.909058 23.3999 0.909058 20.1599C0.909058 14.9399 2.90906 10.0799 6.54542 6.47991C10.1818 2.87991 14.9091 0.899902 20 0.899902C25.0909 0.899902 29.8181 2.87991 33.4545 6.47991C37.0909 10.0799 39.0909 14.9399 39.0909 20.1599C39.0909 23.5799 38.1818 26.8199 36.5454 29.8799L20 52.3799Z" fill="white"/>
<path d="M20 1.8C15.0909 1.8 10.5455 3.78 7.09091 7.2C3.63636 10.62 1.81818 15.3 1.81818 20.16C1.81818 23.22 2.54545 26.28 4.18182 29.16V29.34L20 50.94L35.8182 29.34C37.4545 26.64 38.1818 23.4 38.1818 20.16C38.1818 15.3 36.3636 10.62 32.9091 7.2C29.4545 3.6 24.9091 1.8 20 1.8ZM20 0C31.0909 0 40 9.00002 40 20.16C40 23.94 39.0909 27.36 37.2727 30.24L20 54L2.72727 30.42C1.09091 27.36 0 23.94 0 20.34C0 8.99998 8.90909 0 20 0Z" fill="#F55E31"/>
<path d="M31.0909 12.96V22.5C31.0909 24.12 30.1818 25.38 28.5454 25.92C27.6364 26.28 26.5454 26.46 25.4545 26.46C23.8182 26.46 22.3636 26.1 20.9091 25.2H20.7273C19.8182 24.66 18.5454 24.48 17.4545 24.48C16.7273 24.48 15.8182 24.66 15.0909 24.84C14.7273 24.84 14.5454 25.02 14.1818 25.02V34.74C14.1818 35.46 13.6364 36 12.9091 36C12.1818 36 11.6364 35.46 11.6364 34.74V12.96C11.6364 11.34 12.5454 10.08 14.1818 9.54C15.2727 9.18 16.3636 9 17.4545 9C19.0909 9 20.5454 9.36 22 10.26H22.1818C23.0909 10.8 24.3636 10.98 25.4545 10.98C26.1818 10.98 27.0909 10.8 27.8182 10.62C28 10.44 28.3636 10.44 28.5454 10.44C30 10.44 31.0909 11.52 31.0909 12.96ZM28.5454 22.5V12.96C27.6364 13.32 26.5454 13.5 25.4545 13.5C23.8182 13.5 22.3636 13.14 20.9091 12.24H20.7273C19.8182 11.7 18.5454 11.34 17.4545 11.34C16.7273 11.34 15.8182 11.52 15.0909 11.7C14.5454 11.88 14.1818 12.42 14.1818 12.96V22.5C15.2727 22.14 16.3636 21.96 17.4545 21.96C19.0909 21.96 20.5454 22.32 22 23.22H22.1818C23.0909 23.76 24.3636 24.12 25.4545 24.12C26.1818 24.12 27.0909 23.94 27.8182 23.76C28.3636 23.4 28.5454 23.04 28.5454 22.5Z" fill="#F55E31"/>
</svg>
