<svg width="146" height="146" viewBox="0 0 146 146" fill="none" xmlns="http://www.w3.org/2000/svg">
<path d="M54.0271 125L91.9734 125C93.1055 125 94.1437 124.588 94.8223 123.868C95.501 123.148 95.7074 122.243 95.3884 121.381L88.9744 104L57.0262 104L56.998 104.074L50.6122 121.379C50.2932 122.24 50.4996 123.148 51.1782 123.866C51.8568 124.586 52.8951 124.998 54.0271 124.998L54.0271 125ZM88.7773 104.211L95.1351 121.441C95.429 122.238 95.2383 123.076 94.6097 123.744C93.9811 124.409 93.021 124.792 91.9734 124.792L54.0271 124.792C52.9795 124.792 52.0194 124.409 51.3909 123.744C50.7623 123.079 50.5715 122.24 50.8655 121.441L57.2232 104.211L88.7742 104.211L88.7773 104.211Z" stroke="#3B89FF" stroke-width="3"/>
<path d="M26.3471 120L45.5966 120L51.6514 104L26.3471 104C23.9521 104 22.0002 105.491 22.0002 107.325L22.0002 116.675C22.0002 118.507 23.9489 120 26.3471 120V120ZM45.3943 119.791L26.3471 119.791C24.0998 119.791 22.2731 118.394 22.2731 116.675L22.2731 107.325C22.2731 105.606 24.0998 104.209 26.3471 104.209L51.2918 104.209L45.3943 119.791Z" stroke="#F55E31" stroke-width="3"/>
<path d="M101.348 119.998L119.176 119.998C121.836 119.998 124 118.274 124 116.154L124 107.843C124 105.724 121.836 104 119.176 104L95.5349 104L101.348 120L101.348 119.998ZM119.179 104.206C121.694 104.206 123.744 105.837 123.744 107.843L123.744 116.154C123.744 118.158 121.698 119.791 119.179 119.791L101.545 119.791L95.8832 104.209L119.176 104.209L119.179 104.206Z" stroke="#F55E31" stroke-width="3"/>
<path d="M47.1347 94.9988L98.6035 94.9988L98.6035 68.9431L47.1347 68.9431L47.1347 94.9988ZM98.2803 94.6756L47.4579 94.6756L47.4579 69.2625L98.2803 69.2625L98.2803 94.6756V94.6756Z" stroke="#3B89FF" stroke-width="3"/>
<path d="M34 95.8864C34 95.9491 34.0508 96 34.1136 96C34.1763 96 34.2271 95.9491 34.2271 95.8864L34.2271 24.291C34.2271 21.5296 36.4657 19.291 39.2271 19.291L106.773 19.291C109.534 19.291 111.773 21.5295 111.773 24.291L111.773 95.8864C111.773 95.9492 111.824 96 111.886 96C111.949 96 112 95.9492 112 95.8864L112 24C112 21.2386 109.761 19 107 19L39 19C36.2386 19 34 21.2386 34 24L34 95.8864Z" fill="black" stroke="#3B89FF" stroke-width="3"/>
<path d="M58.0596 40.997L64.9375 40.997C66.0755 40.997 67 40.1867 67 39.1931L67 36.1884C67 34.4199 65.9 32.8082 64.1242 31.9654L64.1242 27L58.7471 27L58.7471 32.0275C58.3375 32.2315 57.9543 32.4888 57.609 32.7934C56.5705 33.7013 56 34.9079 56 36.1914L56 39.196C56 40.1897 56.9245 41 58.0625 41L58.0596 40.997ZM63.8755 27.2188L63.8755 32.0984L63.9428 32.128C65.6747 32.9235 66.7513 34.4791 66.7513 36.1914L66.7513 39.196C66.7513 40.0714 65.938 40.7841 64.9375 40.7841L58.0596 40.7841C57.059 40.7841 56.2457 40.0714 56.2457 39.196L56.2457 36.1914C56.2457 34.9641 56.7928 33.8137 57.7846 32.9472C58.1327 32.6426 58.5189 32.3883 58.9314 32.1872L58.9957 32.1576L58.9957 27.2218L63.8755 27.2218L63.8755 27.2188Z" fill="#F55E31" stroke="#F55E31" stroke-width="2"/>
<path d="M81.0596 40.997L87.9375 40.997C89.0755 40.997 90 40.1867 90 39.1931L90 36.1884C90 34.4199 88.9 32.8082 87.1242 31.9654L87.1242 27L81.7471 27L81.7471 32.0275C81.3375 32.2315 80.9543 32.4888 80.609 32.7934C79.5705 33.7013 79 34.9079 79 36.1914L79 39.196C79 40.1897 79.9245 41 81.0625 41L81.0596 40.997ZM86.8755 27.2188L86.8755 32.0984L86.9428 32.128C88.6747 32.9235 89.7513 34.4791 89.7513 36.1914L89.7513 39.196C89.7513 40.0714 88.938 40.7841 87.9375 40.7841L81.0596 40.7841C80.059 40.7841 79.2457 40.0714 79.2457 39.196L79.2457 36.1914C79.2457 34.9641 79.7928 33.8137 80.7846 32.9472C81.1327 32.6426 81.5189 32.3883 81.9314 32.1872L81.9957 32.1576L81.9957 27.2218L86.8755 27.2218L86.8755 27.2188Z" fill="#F55E31" stroke="#F55E31" stroke-width="2"/>
<path d="M41 47.6588L41 31C41 28.2386 43.2386 26 46 26L91.9099 26C91.9597 26 92 26.0403 92 26.0901V26.0901" stroke="#3B89FF" stroke-width="3"/>
<path d="M104.678 47.4977C104.678 47.5867 104.75 47.6588 104.839 47.6588V47.6588C104.928 47.6588 105 47.5867 105 47.4977L105 31C105 28.2386 102.761 26 100 26L90.045 26C90.0202 26 90 26.0202 90 26.0451V26.0451C90 26.0699 90.0202 26.0901 90.045 26.0901L99.6777 26.0901C102.439 26.0901 104.678 28.3287 104.678 31.0901L104.678 47.4977Z" stroke="#3B89FF" stroke-width="3"/>
</svg>
