<svg width="56" height="87" viewBox="0 0 56 87" fill="none" xmlns="http://www.w3.org/2000/svg">
<path d="M13.1047 69.5025L8.5647 76.9839C6.9903 79.5783 3 78.4623 3 75.4275V6C3 4.34315 4.34315 3 6 3H50.019C51.6852 3 53.0322 4.35776 53.0189 6.02391L52.4644 75.5904C52.4403 78.6125 48.4677 79.7065 46.8998 77.1228L42.2382 69.4411C41.293 67.8837 39.1892 67.5212 37.7774 68.6727L29.3616 75.5365C28.24 76.4513 26.6252 76.4348 25.5224 75.4974L17.6125 68.7732C16.2057 67.5772 14.0627 67.924 13.1047 69.5025Z" stroke="#3B89FF" stroke-width="5" stroke-linecap="square"/>
<rect x="15.8315" y="43.8114" width="22.8887" height="3.61538" rx="1" fill="#F55E31"/>
<rect x="14.5483" y="12.641" width="26.322" height="24.7214" rx="3" fill="#DFE3E8"/>
<rect x="15.8315" y="51.8237" width="22.8887" height="3.61538" rx="1" fill="#F55E31"/>
</svg>
