<svg width="28" height="30" viewBox="0 0 28 30" fill="none" xmlns="http://www.w3.org/2000/svg">
<path opacity="0.7" d="M6.672 11.762H17.0304C17.1964 11.762 17.3313 11.8962 17.3313 12.0622C17.3313 12.2282 17.1964 12.3624 17.0304 12.3624H6.672C6.506 12.3624 6.37109 12.2282 6.37109 12.0622C6.37109 11.8962 6.506 11.762 6.672 11.762Z" fill="#686868" stroke="#333333" stroke-width="0.8"/>
<path opacity="0.7" d="M6.672 16.3403H17.0304C17.1964 16.3403 17.3313 16.4746 17.3313 16.6412C17.3313 16.8072 17.1964 16.9415 17.0304 16.9415H6.672C6.506 16.9415 6.37109 16.8072 6.37109 16.6406C6.37109 16.4746 6.506 16.3403 6.672 16.3403Z" fill="#686868" stroke="#333333" stroke-width="0.8"/>
<path opacity="0.7" d="M6.672 20.918H13.0703C13.2363 20.918 13.3712 21.0522 13.3712 21.2189C13.3712 21.3849 13.2363 21.5191 13.0703 21.5191H6.672C6.506 21.5191 6.37109 21.3849 6.37109 21.2182C6.37109 21.0522 6.506 20.918 6.672 20.918Z" fill="#686868" stroke="#333333" stroke-width="0.8"/>
<path d="M11.1808 26.5263H3.54103C2.95428 26.5263 2.47656 26.0447 2.47656 25.4532V3.72907C2.47656 3.13758 2.95428 2.65601 3.54103 2.65601H17.4887L21.0423 5.99482V16.992H20.9219V6.04765L17.4417 2.77746H3.54103C3.02054 2.77746 2.59705 3.20438 2.59705 3.72907V25.4532C2.59705 25.9779 3.02054 26.4048 3.54103 26.4048H11.1808V26.5263Z" fill="#686868" stroke="#686868"/>
<path d="M21.0428 7.96051H15.7383V2.65601H15.864V7.8259H21.0428V7.96051Z" fill="#686868" stroke="#686868"/>
<path d="M19.5 28.0001L23.9866 22.999C24.5911 22.3534 24.9078 21.5015 24.8784 20.5998C24.849 19.6981 24.4784 18.8705 23.8334 18.2689C22.5992 17.1169 20.709 17.1648 19.53 18.3775L14.2637 23.7921C13.8582 24.2085 13.634 24.7653 13.6315 25.3586C13.6297 25.9525 13.8502 26.5106 14.2526 26.9301C15.0617 27.7737 16.3921 27.7884 17.219 26.9633L21.9543 22.2371C22.1968 21.9957 22.3303 21.6701 22.331 21.3201C22.3316 20.9702 22.1993 20.6439 21.9579 20.4005C21.4783 19.9171 20.7299 19.9197 20.2533 20.4063L16.7817 23.9486L16.6959 23.8572L20.1676 20.315C20.6919 19.7798 21.5151 19.7773 22.0425 20.3092C22.3077 20.5768 22.4535 20.9357 22.4528 21.3208C22.4522 21.7058 22.3046 22.0641 22.0382 22.3297L17.3029 27.0559C16.4282 27.9283 15.0207 27.9129 14.165 27.0202C13.7393 26.5764 13.506 25.9857 13.5078 25.3579C13.5103 24.7302 13.7473 24.1414 14.1761 23.7008L19.4424 18.2862C20.6674 17.0262 22.6317 16.9771 23.9137 18.1738C24.5831 18.799 24.969 19.6591 24.999 20.5953C25.029 21.5321 24.7001 22.4172 24.0723 23.0877L19.5 28.0001Z" fill="#686868" stroke="#686868"/>
</svg>
