<svg width="137" height="91" viewBox="0 0 137 91" fill="none" xmlns="http://www.w3.org/2000/svg">
<path d="M81.2799 72.579L118.916 72.579L118.905 72.4371C118.418 66.3409 121.324 61.9106 127.546 59.2698L127.626 59.2356L127.626 29.2432C127.626 21.5704 124.373 14.1813 118.698 8.96536C113.04 3.76255 105.715 1.21369 98.0779 1.78915C97.8103 1.81017 97.5454 1.83382 97.2778 1.8601C90.4749 2.54067 84.2019 5.71229 79.6163 10.7969C75.0439 15.8657 72.5246 22.406 72.5246 29.2143L72.5246 59.2303L72.5988 59.2671C79.1421 62.4335 82.0693 66.8611 81.2984 72.4292L81.2772 72.579L81.2799 72.579ZM118.63 72.3162L81.5819 72.3162C82.2945 66.714 79.3355 62.2574 72.7895 59.0674L72.7895 29.2143C72.7895 15.1641 83.3277 3.51817 97.3043 2.12024C97.5692 2.09396 97.8341 2.07032 98.0991 2.05192C105.662 1.48434 112.915 4.00692 118.521 9.15718C124.14 14.3232 127.364 21.6439 127.364 29.2432L127.364 59.0622C121.128 61.7345 118.193 66.1937 118.632 72.3162L118.63 72.3162Z" stroke="#3B89FF" stroke-width="3"/>
<path d="M18.0494 72.579L55.6852 72.579L55.6746 72.4371C55.1872 66.3409 58.0933 61.9106 64.316 59.2698L64.3955 59.2356L64.3955 29.2432C64.3955 21.5704 61.1424 14.1813 55.468 8.96536C49.8095 3.76255 42.4848 1.21369 34.8474 1.78915C34.5798 1.81017 34.3149 1.83382 34.0474 1.8601C27.2445 2.54067 20.9714 5.71229 16.3858 10.7969C11.8134 15.8657 9.29414 22.406 9.29414 29.2143L9.29414 59.2303L9.36831 59.2671C15.9116 62.4335 18.8389 66.8611 18.068 72.4292L18.0468 72.579L18.0494 72.579ZM55.3991 72.3162L18.3514 72.3162C19.064 66.714 16.105 62.2574 9.55905 59.0674L9.55905 29.2143C9.55905 15.1641 20.0972 3.51817 34.0739 2.12024C34.3388 2.09396 34.6037 2.07032 34.8686 2.05192C42.4318 1.48434 49.685 4.00692 55.2905 9.15718C60.9093 14.3232 64.1332 21.6439 64.1332 29.2432L64.1332 59.0622C57.8972 61.7345 54.962 66.1937 55.4018 72.3162L55.3991 72.3162Z" stroke="#3B89FF" stroke-width="3"/>
<path d="M81.2373 89.2461L118.947 89.2461L118.947 80.023L81.2373 80.023L81.2373 89.2461ZM118.682 88.9834L81.5022 88.9834L81.5022 80.2857L118.682 80.2857L118.682 88.9834V88.9834Z" stroke="#3B89FF" stroke-width="3"/>
<path d="M18.0068 89.2461L55.7168 89.2461L55.7168 80.023L18.0068 80.023L18.0068 89.2461ZM55.4519 88.9834L18.2717 88.9834L18.2717 80.2857L55.4519 80.2857L55.4519 88.9834V88.9834Z" stroke="#3B89FF" stroke-width="3"/>
<path d="M63.6368 89.2461L73.4385 89.2461L73.4385 72.0926C73.4385 69.9721 72.159 68.0434 70.2543 67.2866C68.9853 66.7821 67.6793 66.8767 66.3733 67.5625C64.6832 68.4506 63.6341 70.2086 63.6341 72.153L63.6341 89.2461L63.6368 89.2461ZM73.1736 88.9834L63.9017 88.9834L63.9017 72.153C63.9017 70.3058 64.8978 68.6372 66.5005 67.7937C67.7323 67.1473 68.9641 67.058 70.1589 67.531C71.9629 68.2457 73.1762 70.0798 73.1762 72.0926L73.1762 88.9834L73.1736 88.9834Z" fill="black" stroke="#F55E31" stroke-width="3"/>
<path d="M125.531 89.2461L135.333 89.2461L135.333 72.0926C135.333 69.9721 134.053 68.0434 132.151 67.2866C130.883 66.7821 129.577 66.8767 128.27 67.5625C126.58 68.4506 125.531 70.2086 125.531 72.153L125.531 89.2461ZM135.068 88.9834L125.796 88.9834L125.796 72.153C125.796 70.3058 126.792 68.6372 128.395 67.7937C129.627 67.1473 130.859 67.058 132.053 67.531C133.857 68.2457 135.071 70.0798 135.071 72.0926L135.071 88.9834L135.068 88.9834Z" fill="black" stroke="#F55E31" stroke-width="3"/>
<path d="M1.73934 89.2461L11.541 89.2461L11.541 72.0926C11.541 69.9721 10.2615 68.0434 8.35945 67.2866C7.09053 66.7821 5.78451 66.8767 4.4785 67.5625C2.78838 68.4506 1.73934 70.2086 1.73934 72.153L1.73934 89.2461ZM11.2761 88.9834L2.00425 88.9834L2.00425 72.153C2.00425 70.3058 3.0003 68.6372 4.60301 67.7937C5.83485 67.1473 7.06668 67.058 8.26142 67.531C10.0655 68.2457 11.2788 70.0798 11.2788 72.0926L11.2788 88.9834L11.2761 88.9834Z" fill="black" stroke="#F55E31" stroke-width="3"/>
</svg>
