<svg width="121" height="49" viewBox="0 0 121 49" fill="none" xmlns="http://www.w3.org/2000/svg">
<g clip-path="url(#clip0_424_1278)">
<path d="M47.15 48.48C47.9611 48.4769 48.7501 48.2133 49.4029 47.7273L60.2514 39.7657L71.0998 47.7273C71.755 48.208 72.5441 48.4669 73.354 48.4668C74.1639 48.4666 74.9529 48.2076 75.608 47.7267C76.263 47.2458 76.7503 46.5678 77.0001 45.79C77.2499 45.0121 77.2493 44.1744 76.9984 43.3969L72.8533 30.5165L83.7017 22.555C84.3579 22.075 84.8466 21.3973 85.0976 20.6194C85.3486 19.8415 85.349 19.0033 85.0987 18.2251C84.8484 17.4469 84.3604 16.7688 83.7046 16.2882C83.0488 15.8076 82.2591 15.5491 81.4488 15.5499L68.0522 15.5499L63.9071 2.66829C63.6571 1.89068 63.1696 1.21297 62.5145 0.732335C61.8595 0.251701 61.0706 -0.00717376 60.2609 -0.00717383C59.4511 -0.0071739 58.6622 0.251701 58.0072 0.732335C57.3521 1.21297 56.8647 1.89068 56.6146 2.66829L52.4695 15.5499L39.0553 15.5499C38.245 15.5491 37.4552 15.8076 36.7994 16.2882C36.1437 16.7688 35.6556 17.4469 35.4053 18.2251C35.1551 19.0033 35.1555 19.8415 35.4064 20.6194C35.6574 21.3973 36.1461 22.075 36.8023 22.555L47.6508 30.5165L43.5057 43.3969C43.245 44.1734 43.2392 45.014 43.4891 45.7941C43.7391 46.5742 44.2315 47.2521 44.8933 47.7273C45.5472 48.2139 46.3376 48.4775 47.15 48.48ZM60.2615 35.9142L47.594 45.2055C47.4664 45.2991 47.3127 45.3495 47.155 45.3495C46.9973 45.3495 46.8436 45.2991 46.716 45.2055C46.5884 45.1119 46.4934 44.9799 46.4447 44.8284C46.396 44.6769 46.396 44.5138 46.4448 44.3623L51.2838 29.3333L38.6163 20.0357C38.4884 19.9424 38.3931 19.8105 38.3442 19.659C38.2953 19.5076 38.2952 19.3443 38.344 19.1928C38.3928 19.0413 38.488 18.9093 38.6158 18.8159C38.7436 18.7225 38.8975 18.6724 39.0553 18.6729L54.7124 18.6729L59.5513 3.6439C59.5997 3.49232 59.6945 3.36014 59.822 3.26638C59.9495 3.17262 60.1031 3.12211 60.2609 3.12211C60.4186 3.12211 60.5723 3.17262 60.6998 3.26638C60.8273 3.36014 60.922 3.49232 60.9704 3.6439L65.8093 18.6729L81.4614 18.6729C81.6192 18.6724 81.7731 18.7225 81.9009 18.8159C82.0287 18.9093 82.1238 19.0413 82.1726 19.1928C82.2215 19.3443 82.2214 19.5076 82.1725 19.659C82.1235 19.8105 82.0283 19.9424 81.9004 20.0357L69.2329 29.3333L74.0718 44.3623C74.1206 44.5138 74.1206 44.6769 74.0719 44.8284C74.0232 44.9799 73.9283 45.1119 73.8007 45.2055C73.6731 45.2991 73.5194 45.3495 73.3616 45.3495C73.2039 45.3495 73.0502 45.2991 72.9226 45.2055L60.2615 35.9142Z" fill="#3B89FF"/>
<path d="M26.3939 40.5197C26.9226 40.518 27.4369 40.3463 27.8623 40.0294C28.2939 39.7204 28.6153 39.2793 28.7789 38.7713C28.9425 38.2633 28.9396 37.7157 28.7705 37.2095L25.9499 28.4507L33.3344 23.0338C33.7612 22.7208 34.0789 22.2794 34.242 21.7729C34.405 21.2663 34.405 20.7207 34.242 20.2141C34.079 19.7076 33.7613 19.2661 33.3344 18.9531C32.9076 18.6401 32.3936 18.4715 31.8661 18.4717L22.7383 18.4717L19.9177 9.70643C19.7543 9.20019 19.4364 8.75913 19.0097 8.44636C18.5829 8.13358 18.0691 7.96515 17.5417 7.96515C17.0144 7.96515 16.5006 8.13358 16.0738 8.44636C15.647 8.75913 15.3292 9.20019 15.1658 9.70643L12.3452 18.4717L3.21861 18.4717C2.69109 18.4715 2.17708 18.6401 1.75027 18.9531C1.32345 19.2661 1.00576 19.7076 0.842723 20.2141C0.679694 20.7207 0.679702 21.2663 0.842738 21.7729C1.00578 22.2794 1.32347 22.7208 1.75028 23.0338L9.13481 28.4507L6.31421 37.2159C6.15106 37.7224 6.15095 38.2681 6.31389 38.7747C6.47684 39.2813 6.79447 39.7228 7.22124 40.0359C7.64802 40.349 8.16202 40.5176 8.68956 40.5176C9.2171 40.5176 9.7311 40.3489 10.1578 40.0357L17.5424 34.6189L24.9269 40.0357C25.3529 40.3496 25.8665 40.5191 26.3939 40.5197ZM31.8661 20.3859C31.9918 20.386 32.1143 20.4263 32.216 20.5009C32.3177 20.5756 32.3934 20.6809 32.4322 20.8016C32.471 20.9224 32.4709 21.0524 32.432 21.1732C32.3931 21.2939 32.3173 21.3991 32.2155 21.4736L23.7134 27.7145L26.9666 37.803C27.0058 37.9239 27.0061 38.0542 26.9672 38.1753C26.9284 38.2963 26.8526 38.4018 26.7507 38.4765C26.6487 38.5513 26.5259 38.5914 26.4 38.5913C26.274 38.5911 26.1513 38.5506 26.0496 38.4755L17.5474 32.2347L9.04524 38.4755C8.94351 38.5506 8.82083 38.5911 8.69485 38.5912C8.56886 38.5914 8.44607 38.5513 8.34413 38.4765C8.24219 38.4018 8.16636 38.2963 8.12756 38.1753C8.08875 38.0542 8.08896 37.9239 8.12816 37.803L11.3764 27.7107L2.87298 21.4698C2.77112 21.3952 2.69531 21.2899 2.65643 21.169C2.61754 21.0482 2.61758 20.918 2.65653 20.7972C2.69549 20.6764 2.77135 20.5711 2.87324 20.4965C2.97514 20.422 3.09782 20.3819 3.22366 20.3821L13.7214 20.3821L16.976 10.2936C17.0141 10.1718 17.0897 10.0655 17.1918 9.98998C17.2939 9.9145 17.4171 9.87382 17.5436 9.87382C17.6701 9.87382 17.7934 9.9145 17.8954 9.98998C17.9975 10.0655 18.0731 10.1718 18.1113 10.2936L21.3582 20.3859L31.8661 20.3859Z" fill="#F55E31"/>
<path d="M112.312 40.5197C112.841 40.5177 113.355 40.3459 113.781 40.0294C114.212 39.7201 114.533 39.2789 114.696 38.771C114.86 38.2631 114.856 37.7155 114.687 37.2095L111.862 28.4507L119.251 23.0275C119.678 22.7145 119.996 22.273 120.159 21.7665C120.322 21.26 120.322 20.7143 120.159 20.2077C119.996 19.7012 119.678 19.2598 119.251 18.9467C118.825 18.6337 118.311 18.4652 117.783 18.4653L108.655 18.4653L105.835 9.70007C105.672 9.19367 105.354 8.75237 104.927 8.43941C104.501 8.12645 103.987 7.9579 103.459 7.9579C102.932 7.9579 102.418 8.12645 101.991 8.43941C101.565 8.75237 101.247 9.19367 101.084 9.70007L98.2634 18.4653L89.1356 18.4653C88.6081 18.4652 88.0941 18.6337 87.6673 18.9467C87.2404 19.2598 86.9228 19.7012 86.7597 20.2077C86.5967 20.7143 86.5967 21.2599 86.7597 21.7665C86.9228 22.273 87.2405 22.7145 87.6673 23.0275L95.0518 28.4507L92.2312 37.2159C92.0681 37.7224 92.0679 38.2681 92.2309 38.7747C92.3938 39.2813 92.7115 39.7228 93.1382 40.0359C93.565 40.349 94.079 40.5176 94.6066 40.5176C95.1341 40.5176 95.6481 40.3489 96.0748 40.0357L103.459 34.6189L110.844 40.0357C111.27 40.3499 111.784 40.5194 112.312 40.5197ZM117.783 20.3859C117.909 20.386 118.031 20.4263 118.133 20.5009C118.235 20.5756 118.31 20.6809 118.349 20.8016C118.388 20.9224 118.388 21.0525 118.349 21.1732C118.31 21.2939 118.234 21.3991 118.133 21.4736L109.63 27.7145L112.879 37.8069C112.918 37.9277 112.918 38.0581 112.879 38.1791C112.84 38.3001 112.765 38.4056 112.663 38.4803C112.561 38.5551 112.438 38.5953 112.312 38.5951C112.186 38.5949 112.063 38.5544 111.962 38.4793L103.459 32.2385L94.9572 38.4793C94.8555 38.5544 94.7328 38.5949 94.6068 38.5951C94.4808 38.5953 94.358 38.5551 94.2561 38.4803C94.1541 38.4056 94.0783 38.3001 94.0395 38.1791C94.0007 38.0581 94.0009 37.9277 94.0401 37.8069L97.2883 27.7145L88.7849 21.4736C88.6831 21.399 88.6073 21.2937 88.5684 21.1729C88.5295 21.052 88.5295 20.9218 88.5685 20.801C88.6074 20.6802 88.6833 20.5749 88.7852 20.5004C88.8871 20.4258 89.0098 20.3857 89.1356 20.3859L99.6447 20.3859L102.893 10.2936C102.931 10.1718 103.007 10.0655 103.109 9.98999C103.211 9.91451 103.334 9.87382 103.461 9.87382C103.587 9.87382 103.71 9.91451 103.812 9.98999C103.914 10.0655 103.99 10.1718 104.028 10.2936L107.275 20.3859L117.783 20.3859Z" fill="#F55E31"/>
</g>
<defs>
<clipPath id="clip0_424_1278">
<rect width="119.571" height="48.48" fill="white" transform="matrix(-1 -8.77361e-08 -8.71105e-08 1 120.286 0)"/>
</clipPath>
</defs>
</svg>
