<svg width="52" height="57" viewBox="0 0 52 57" fill="none" xmlns="http://www.w3.org/2000/svg">
<g clip-path="url(#clip0_495_2358)">
<path d="M13.9372 40.0448C12.8994 41.1808 11.9187 42.2714 10.916 43.3374C7.99987 46.437 3.06139 45.9785 0.927479 42.3685C-0.358057 40.1938 -0.294494 37.9646 1.01958 35.8041C2.19745 33.8689 3.41034 31.9545 4.63102 30.0465C4.91474 29.6168 5.06253 29.1118 5.05521 28.5971C5.05521 24.4095 5.05521 20.2219 5.12007 16.0329C5.18622 11.6121 8.19835 8.10324 12.5466 7.35457C14.0643 7.09551 15.6106 7.22504 17.1439 7.24577C17.7225 7.25354 17.9508 7.06572 18.1298 6.52041C19.5399 2.2175 23.6754 -0.408031 28.2597 0.0440213C32.5483 0.471463 36.1247 4.03089 36.6086 8.41152C36.8511 10.6018 36.4101 12.6704 35.2011 14.533C34.8898 15.011 34.9274 15.1806 35.4904 15.3102C37.9149 15.9112 40.0501 17.0186 41.6988 18.9486C42.3746 19.7359 42.9385 20.6124 43.3748 21.5534C46.0536 27.3213 48.744 33.0814 51.4007 38.8609C53.0585 42.4683 51.1257 46.4603 47.3158 47.3152C45.4854 47.7271 43.7938 47.3424 42.3124 46.174C41.6547 45.6559 41.0372 45.0834 40.3757 44.5135C40.1876 44.7415 40.2641 44.985 40.2641 45.2039C40.2589 48.658 40.2589 52.112 40.2641 55.5661C40.2804 55.7824 40.2708 55.9998 40.2356 56.2137C40.1058 56.7396 39.766 57.0427 39.2043 56.9909C38.6854 56.9378 38.3793 56.6192 38.3624 56.0933C38.3403 55.3602 38.352 54.6257 38.352 53.8913C38.352 50.3733 38.3442 46.8554 38.3611 43.3361C38.3718 43.1356 38.3336 42.9355 38.2497 42.753C38.1659 42.5704 38.039 42.411 37.8798 42.2882C35.6006 40.3013 33.3642 38.2638 31.063 36.3027C30.0693 35.4569 29.352 34.4298 28.6904 33.3417C26.8847 30.3747 25.0846 27.4042 23.2901 24.4302C22.7349 23.5132 22.8387 23.1518 23.7662 22.6C25.2696 21.7063 26.7679 20.8047 28.274 19.9162C29.0886 19.4343 29.4843 19.5276 29.9902 20.3397C31.1577 22.2062 32.3174 24.0753 33.4576 25.9574C33.6743 26.3148 33.9078 26.4586 34.332 26.4573C35.5142 26.4488 36.6532 26.9004 37.5075 27.7163C40.2049 30.2102 42.8923 32.7144 45.5697 35.229C46.0886 35.716 46.1509 36.2885 45.7643 36.7056C45.3375 37.1654 44.8173 37.1395 44.2336 36.5968C41.6392 34.185 39.0469 31.7701 36.4568 29.3523C34.882 27.886 33.0594 28.013 31.5274 29.6903C30.1939 31.1488 30.295 33.0386 31.8128 34.3831C35.6093 37.7509 39.4144 41.1117 43.2282 44.4656C44.7849 45.8373 46.8838 45.9422 48.4703 44.7635C50.0269 43.6042 50.5458 41.5784 49.6845 39.7119C46.9949 33.8797 44.2907 28.0531 41.5717 22.2321C40.4509 19.8449 38.5674 18.2712 36.0404 17.4811C35.9364 17.4526 35.8342 17.418 35.7342 17.3774C34.3501 16.7518 33.0101 16.5225 31.8167 17.7777C28.2156 19.6377 24.7482 19.4045 21.4455 17.0679C21.0252 16.7699 20.6814 16.6728 20.2079 16.8438C19.7595 17 19.3015 17.1272 18.8368 17.2246C18.4645 17.3062 18.3516 17.4344 18.5099 17.8308C19.4584 20.1708 20.0834 22.629 20.3675 25.1374C20.3986 25.4159 20.422 25.6957 20.4323 25.9768C20.4726 27.0052 20.5309 28.0039 20.8604 29.0207C21.4027 30.6942 20.9668 32.2744 19.8123 33.6034C18.7084 34.874 17.5603 36.1097 16.4058 37.3364C16.257 37.4882 16.1411 37.6691 16.0655 37.8676C15.9898 38.0662 15.956 38.2782 15.966 38.4905C15.9799 44.1241 15.9825 49.7576 15.9738 55.3912C15.9872 55.7142 15.9598 56.0375 15.8921 56.3536C15.7754 56.8031 15.4303 57.0155 14.9646 57.0013C14.7564 57.0074 14.5533 56.9367 14.3941 56.8026C14.235 56.6686 14.1309 56.4805 14.102 56.2746C14.0636 56.0401 14.0493 55.8023 14.0591 55.5648C14.0591 50.6868 14.0591 45.8079 14.0591 40.9282C14.0462 40.6756 14.102 40.4152 13.9372 40.0448ZM6.98675 25.9871L7.13334 26.0273C7.84291 24.9004 8.5486 23.7696 9.26336 22.644C9.67717 21.9964 10.2051 21.8047 10.711 22.1169C11.217 22.429 11.2753 23.0054 10.8888 23.6479C10.8434 23.7217 10.7967 23.7929 10.7513 23.8668C8.07036 28.1446 5.38945 32.4217 2.70855 36.6978C2.01714 37.7975 1.75899 38.9671 2.08848 40.221C2.51786 41.8595 3.57768 42.941 5.22514 43.3426C6.8726 43.7441 8.31769 43.3102 9.47351 42.0693C11.3117 40.094 13.1226 38.0915 14.9451 36.1007C16.0815 34.8585 17.2334 33.628 18.349 32.3664C19.235 31.3638 19.3868 30.0452 18.816 28.9287C18.1869 27.7008 17.0544 27.0674 15.6859 27.1905C14.7506 27.2734 14.0358 27.7397 13.4339 28.4456C11.4985 30.711 9.54226 32.9622 7.59644 35.2199C7.52639 35.3015 7.45894 35.3857 7.38759 35.466C6.91411 35.9958 6.3576 36.0955 5.91526 35.725C5.45085 35.3365 5.4314 34.8015 5.90877 34.2458C8.02063 31.79 10.1394 29.3393 12.2651 26.8938C12.6164 26.4809 13.0457 26.1411 13.5286 25.8939C13.8049 25.7553 13.8996 25.5739 13.8308 25.2734C13.4131 23.4432 12.9137 21.6389 12.1302 19.9252C12.0121 19.6662 11.9395 19.5133 11.5737 19.7193C10.8278 20.1403 10.0832 19.6753 10.1221 18.8243C10.1961 17.209 10.3076 15.5938 10.4347 13.9812C10.4866 13.3064 10.9095 12.945 11.4725 12.9916C12.0355 13.0383 12.3663 13.4968 12.3326 14.1574C12.3014 14.761 12.2768 15.3659 12.2275 15.9708C12.2114 16.1195 12.2261 16.27 12.2707 16.4128C12.3154 16.5557 12.389 16.6878 12.4869 16.801C13.0782 17.5725 13.5702 18.4149 13.9515 19.3087C14.7298 21.0275 15.2487 22.8241 15.6547 24.6569C15.7053 24.881 15.6456 25.2449 16.0205 25.2488C16.8702 25.2592 17.6654 25.4936 18.4852 25.8589C18.4852 25.6633 18.4956 25.5571 18.4852 25.4535C18.2439 23.3537 17.7563 21.2896 17.0324 19.3035C16.4312 17.6404 15.7008 16.0268 14.8479 14.4773C14.5482 13.9294 14.6935 13.4022 15.1618 13.1302C15.6301 12.8582 16.1554 13.0007 16.4927 13.5188C16.6769 13.8089 16.8261 14.1224 16.9882 14.4255C17.6161 15.6133 17.6096 15.5912 18.9341 15.2234C19.3466 15.1094 19.4218 15.0123 19.1741 14.6392C18.1923 13.1533 17.6616 11.4157 17.6459 9.63555C17.6369 9.21588 17.4786 9.12781 17.1076 9.13428C16.0698 9.15242 15.0321 9.11615 13.9943 9.15242C9.88342 9.2949 7.06588 12.1898 7.03086 16.2907C7.0114 18.6002 7.00362 20.9097 6.99324 23.2191C6.98286 24.144 6.98675 25.0662 6.98675 25.9871ZM27.1765 1.91959C25.1668 1.91128 23.2355 2.69787 21.805 4.10736C20.3744 5.51686 19.561 7.43459 19.5425 9.44126C19.5061 13.6134 22.9334 17.0692 27.1337 17.0925C29.1488 17.0981 31.0836 16.3043 32.5124 14.8856C33.9413 13.4668 34.7472 11.5394 34.7529 9.5274C34.7586 7.51535 33.9636 5.58346 32.5427 4.15671C31.1219 2.72997 29.1916 1.92525 27.1765 1.91959ZM28.9706 30.1087C29.6192 28.8238 30.4572 27.8381 31.5935 27.1218C31.888 26.9353 31.7038 26.7539 31.5935 26.5804C30.7114 25.1491 29.8177 23.7308 28.9459 22.2891C28.7617 21.9847 28.61 21.9252 28.2973 22.1233C27.4196 22.6725 26.531 23.2006 25.6316 23.7075C25.3021 23.8927 25.2839 24.0598 25.4772 24.3642C26.0415 25.2566 26.5772 26.1659 27.126 27.0687C27.7201 28.0557 28.3207 29.0414 28.9706 30.1087Z" fill="white"/>
<path d="M27.0987 15.4514C26.1507 15.4446 25.2408 15.0775 24.5543 14.4247C23.8677 13.7719 23.456 12.8824 23.4029 11.9373C23.3692 11.2469 23.6715 10.8272 24.2383 10.7715C24.8052 10.7158 25.1814 11.0384 25.2995 11.7326C25.5087 12.9467 26.1379 13.5486 27.1869 13.5382C28.2104 13.5305 28.8603 12.8686 29.0212 11.673C29.099 11.0889 29.4635 10.7521 30.0006 10.7664C30.5376 10.7806 30.9151 11.1847 30.9294 11.7935C30.9735 13.7649 29.1716 15.4876 27.0987 15.4514Z" fill="white"/>
</g>
<defs>
<clipPath id="clip0_495_2358">
<rect width="52" height="57" fill="white"/>
</clipPath>
</defs>
</svg>
