<svg width="20" height="20" viewBox="0 0 20 20" fill="none" xmlns="http://www.w3.org/2000/svg">
<path d="M0 6.70833C0 4.33546 0 3.14902 0.469111 2.24594C0.864425 1.48493 1.48493 0.864425 2.24594 0.469111C3.14902 0 4.33546 0 6.70833 0H13.2917C15.6645 0 16.851 0 17.7541 0.469111C18.5151 0.864425 19.1356 1.48493 19.5309 2.24594C20 3.14902 20 4.33546 20 6.70833V13.2917C20 15.6645 20 16.851 19.5309 17.7541C19.1356 18.5151 18.5151 19.1356 17.7541 19.5309C16.851 20 15.6645 20 13.2917 20H6.70833C4.33546 20 3.14902 20 2.24594 19.5309C1.48493 19.1356 0.864425 18.5151 0.469111 17.7541C0 16.851 0 15.6645 0 13.2917V6.70833Z" fill="#1EA1F2"/>
<path fill-rule="evenodd" clip-rule="evenodd" d="M15.5511 7.5634C15.5559 7.68831 15.5575 7.81318 15.5575 7.9381C15.5575 11.7254 12.8934 16.0976 8.02153 16.0976C6.52498 16.0976 5.13341 15.6206 3.96094 14.8086C4.16819 14.8314 4.37868 14.8484 4.5924 14.8484C5.83324 14.8484 6.9761 14.3884 7.88264 13.6162C6.72363 13.5992 5.74496 12.7645 5.40743 11.6289C5.56946 11.6629 5.73633 11.68 5.90698 11.68C6.14761 11.68 6.38124 11.646 6.60519 11.5778C5.39234 11.3167 4.47881 10.1583 4.47881 8.76722C4.47881 8.75018 4.47881 8.74447 4.47881 8.73312C4.83626 8.9432 5.24538 9.07373 5.67981 9.09077C4.96814 8.57406 4.50033 7.69398 4.50033 6.70031C4.50033 6.17793 4.63061 5.68391 4.85993 5.25806C6.16591 6.99555 8.11843 8.13687 10.3196 8.25611C10.2744 8.04602 10.2513 7.82463 10.2513 7.60318C10.2513 6.01899 11.4372 4.73572 12.9004 4.73572C13.6621 4.73572 14.3501 5.08213 14.833 5.63858C15.4375 5.51367 16.0038 5.2752 16.5163 4.94587C16.3177 5.61589 15.8983 6.1779 15.3503 6.52994C15.8865 6.46181 16.3979 6.30862 16.8721 6.08149C16.5163 6.65498 16.0684 7.16025 15.5511 7.5634Z" fill="white"/>
</svg>
