<svg width="75" height="75" viewBox="0 0 75 75" fill="none" xmlns="http://www.w3.org/2000/svg">
<g clip-path="url(#clip0_498_2899)">
<path d="M62.7066 31.3308C62.6287 39.0295 60.1348 45.8367 55.1308 51.7025C54.699 52.2092 54.652 52.456 55.1587 52.9597C61.6535 59.412 68.1356 65.8766 74.6049 72.3533C75.0455 72.7939 75.1924 73.0877 74.6284 73.5283C74.0159 74.0026 73.5768 75.0395 72.9188 74.9969C72.3459 74.9617 71.8231 74.0467 71.287 73.5107C65.1574 67.3844 59.0337 61.2537 52.9159 55.1186C52.468 54.6678 52.2344 54.678 51.7659 55.076C46.919 59.2749 41.2996 61.8642 34.9253 62.4869C23.5528 63.5957 14.1308 59.6964 6.83404 50.8845C3.30137 46.6485 1.04808 41.4943 0.337784 36.0246C-1.07074 25.5619 1.91815 16.4826 9.38819 8.98513C14.1601 4.19583 19.9734 1.27026 26.6577 0.349414C37.1754 -1.10015 46.2948 1.94878 53.8045 9.48741C58.5177 14.2194 61.2951 19.9883 62.3497 26.5753C62.6163 28.1459 62.7358 29.7379 62.7066 31.3308ZM59.5826 31.3043C59.5532 15.7366 46.778 3.01503 31.2842 3.11343C15.6832 3.21183 3.08434 15.8452 3.10931 31.3528C3.13721 46.9382 15.8521 59.6377 31.3694 59.5834C46.969 59.5378 59.6119 46.8574 59.5826 31.3043Z" fill="white"/>
<path d="M32.8998 25.0979C32.8998 26.4432 32.9219 27.79 32.8896 29.1352C32.8778 29.6449 33.0232 29.8035 33.5446 29.7991C36.2368 29.7756 38.929 29.7991 41.6227 29.7756C42.1603 29.7756 42.3688 29.896 42.3218 30.46C42.2778 31.0706 42.2778 31.6837 42.3218 32.2943C42.3527 32.7819 42.175 32.9112 41.702 32.9082C39.0348 32.8877 36.3661 32.9215 33.6988 32.8818C33.0438 32.873 32.8793 33.0536 32.8896 33.6984C32.9263 36.342 32.8896 38.9855 32.9175 41.6291C32.9175 42.1813 32.7706 42.3635 32.2213 42.3194C31.6106 42.2746 30.9975 42.2746 30.3868 42.3194C29.8904 42.3517 29.7788 42.1593 29.7817 41.6938C29.8008 39.0267 29.767 36.3581 29.8081 33.691C29.8169 33.0345 29.6363 32.8774 28.993 32.8862C26.3492 32.9244 23.7055 32.8862 21.0617 32.9141C20.5139 32.9141 20.3274 32.779 20.3714 32.2224C20.4162 31.6117 20.4162 30.9986 20.3714 30.388C20.3391 29.8945 20.5183 29.7785 20.9927 29.7815C23.6849 29.8006 26.3771 29.7726 29.0708 29.8035C29.6583 29.8108 29.8052 29.6566 29.8052 29.0692C29.7743 26.4021 29.8052 23.7335 29.7802 21.0664C29.7802 20.5274 29.8992 20.3248 30.4647 20.3703C31.1005 20.41 31.7382 20.41 32.374 20.3703C32.7897 20.3512 32.9219 20.4922 32.916 20.9093C32.8866 22.3075 32.8998 23.7027 32.8998 25.0979Z" fill="white"/>
</g>
<defs>
<clipPath id="clip0_498_2899">
<rect width="75" height="75" fill="white"/>
</clipPath>
</defs>
</svg>
